<svg width="144" height="144" viewBox="0 0 144 144" fill="none" xmlns="http://www.w3.org/2000/svg">
<ellipse cx="73.0001" cy="129.015" rx="33.587" ry="8.98486" fill="#F6F6F6"/>
<path d="M47.0283 122.241L56.4429 83.0962L62.1735 85.117L51.531 125.964L47.0283 122.241Z" fill="#FFDF68"/>
<path d="M51.5303 125.964L60.5355 91.2157L62.1729 85.8381L90.4167 69.7051L99.4219 91.2157L88.7794 93.2841L83.4581 106.521L77.3181 89.1474L68.3128 124.309L62.1729 116.036L51.5303 125.964Z" fill="#FFCC33"/>
<path d="M77.318 104.039L83.4579 106.521L77.318 89.147L75.6807 95.352L77.318 104.039Z" fill="#D9AB00"/>
<ellipse cx="23.7692" cy="36.7057" rx="23.7692" ry="36.7057" transform="matrix(0.905273 0.424831 -0.41753 0.908663 62.5361 6)" fill="url(#paint0_linear_722_44428)"/>
<ellipse cx="23.7692" cy="36.7057" rx="23.7692" ry="36.7057" transform="matrix(0.905273 0.424831 -0.41753 0.908663 69.082 8.48193)" fill="#00B9BF"/>
<ellipse cx="17.4041" cy="27.9735" rx="17.4041" ry="27.9735" transform="matrix(0.905273 0.424831 -0.41753 0.908663 71.6182 19.2373)" fill="#E5E5E5"/>
<ellipse cx="16.3646" cy="26.7376" rx="16.3646" ry="26.7376" transform="matrix(0.905273 0.424831 -0.41753 0.908663 70.8848 20.8286)" fill="white"/>
<path d="M70.6133 54.275L65.1875 56.0537L75.0417 68.8774L86.5317 36.1978L81.2255 37.7697L74.4034 58.9908L70.6133 54.275Z" fill="#00DEE6"/>
<path d="M73.0674 55.1021L67.6416 56.8809L77.4959 69.7045L88.9858 37.0249L83.6796 38.5968L76.8575 59.8179L73.0674 55.1021Z" fill="#00B9BF"/>
<path d="M86.4717 36.1978L88.9277 37.0251L83.6064 38.6798L81.1504 37.8524L86.4717 36.1978Z" fill="#94F6FA"/>
<path d="M70.5903 54.2466L73.0667 55.1309L67.7044 56.9185L65.1875 56.0538L70.5903 54.2466Z" fill="#94F6FA"/>
<path d="M67.7878 56.9508L65.2295 56.0635L75.0142 68.8411L77.4977 69.6777L67.7878 56.9508Z" fill="#009A9F"/>
<defs>
<linearGradient id="paint0_linear_722_44428" x1="0.510431" y1="28.4419" x2="24.019" y2="73.2805" gradientUnits="userSpaceOnUse">
<stop stop-color="#95DFE1"/>
<stop offset="1" stop-color="#00A1A6"/>
</linearGradient>
</defs>
</svg>
