<svg width="144" height="144" viewBox="0 0 144 144" fill="none" xmlns="http://www.w3.org/2000/svg">
<ellipse cx="77.4669" cy="94.81" rx="17.4669" ry="9.60981" fill="#DDDDDD"/>
<ellipse cx="50.515" cy="68.5043" rx="4.98085" ry="3.13081" fill="#00B9BF"/>
<ellipse cx="50.515" cy="67.5043" rx="4.98085" ry="3.13082" fill="#7FEDF0"/>
<rect x="52.877" y="59.9878" width="1.01377" height="6.69928" rx="0.506884" fill="#035763"/>
<rect x="50.0088" y="59.9878" width="1.01376" height="8.77209" rx="0.506882" fill="#035763"/>
<rect x="47.1396" y="59.9878" width="1.01376" height="6.69928" rx="0.506882" fill="#035763"/>
<ellipse cx="50.5154" cy="51.5381" rx="7.1726" ry="4.60203" fill="#7FEDF0"/>
<path d="M43.3428 54.4422V51.2397C43.6241 52.7426 45.4524 55.7892 50.5154 55.9532C55.5784 56.1171 57.4067 52.8792 57.688 51.2397V54.4422C57.688 57.1106 56.1313 59.5338 53.7045 60.6432C51.6792 61.5691 49.3515 61.5691 47.3263 60.6432C44.8994 59.5338 43.3428 57.1106 43.3428 54.4422Z" fill="#27AFB4"/>
<path d="M93.327 87.5327H66.71V90.3674H66.719C66.719 90.4036 66.71 90.4398 66.71 90.4761C66.71 94.7598 72.6691 98.2284 80.023 98.2284C87.3769 98.2284 93.327 94.7598 93.327 90.4761C93.327 90.4398 93.327 90.4036 93.318 90.3674H93.327V87.5327Z" fill="#5BAEB0"/>
<path d="M80.0237 95.6204C87.3713 95.6204 93.3277 92.1496 93.3277 87.8681C93.3277 83.5866 87.3713 80.1157 80.0237 80.1157C72.6761 80.1157 66.7197 83.5866 66.7197 87.8681C66.7197 92.1496 72.6761 95.6204 80.0237 95.6204Z" fill="#7FEDF0"/>
<path d="M92.2128 67.0562H67.8418V86.8265C67.8418 86.8627 67.8418 86.8899 67.8418 86.9261C67.8418 90.8476 73.2938 94.0264 80.0319 94.0264C86.7608 94.0264 92.2219 90.8476 92.2219 86.9261C92.2219 86.8899 92.2219 86.8627 92.2219 86.8265V67.0562H92.2128Z" fill="url(#paint0_linear_722_44446)"/>
<path d="M80.0201 74.2104C86.7525 74.2104 92.2102 71.0314 92.2102 67.1101C92.2102 63.1887 86.7525 60.0098 80.0201 60.0098C73.2877 60.0098 67.8301 63.1887 67.8301 67.1101C67.8301 71.0314 73.2877 74.2104 80.0201 74.2104Z" fill="#7FEDF0"/>
<path d="M91.1909 12.5808L91.2905 12.3272L90.6475 12.0012C90.4935 11.8925 90.3215 11.8019 90.1313 11.7385L90.0316 11.6933L90.0226 11.7114C89.7962 11.648 89.5607 11.6298 89.2981 11.6389C87.2694 11.7476 84.8694 14.1657 83.9457 17.0275L70.9586 62.6542C70.216 64.9636 70.6507 66.8654 71.9186 67.4541L72.5435 67.8164L72.616 67.6352C72.7247 67.6443 72.8424 67.6443 72.9602 67.6443C74.9888 67.5356 77.3888 65.1175 78.3125 62.2557L91.2996 16.629C91.852 14.9445 91.7614 13.4774 91.1909 12.5808Z" fill="#999999"/>
<path d="M73.7295 68.0519C71.7008 68.1606 70.8042 65.9327 71.728 63.0708L84.715 17.4442C85.6388 14.5823 88.0387 12.1642 90.0674 12.0556C92.096 11.9469 92.9926 14.1748 92.0689 17.0366L79.0819 62.6633C78.1581 65.5251 75.7672 67.9432 73.7295 68.0519Z" fill="url(#paint1_linear_722_44446)"/>
<path d="M73.7295 68.0519C71.7008 68.1606 70.8042 65.9327 71.728 63.0708L84.715 17.4442C85.6388 14.5823 88.0387 12.1642 90.0674 12.0556C92.096 11.9469 92.9926 14.1748 92.0689 17.0366L79.0819 62.6633C78.1581 65.5251 75.7672 67.9432 73.7295 68.0519Z" fill="#E5E5E5"/>
<path d="M80.3887 65.2166V71.9636L87.018 68.1146V61.3223L80.3887 65.2166Z" fill="url(#paint2_linear_722_44446)"/>
<path d="M80.3883 65.2168V71.9639L73.7861 68.1239V61.3315L80.3883 65.2168Z" fill="#00B9BF"/>
<path d="M73.7861 61.3313L80.3883 65.2165L87.0177 61.3222L80.3974 57.4551L73.7861 61.3313Z" fill="#7FEDF0"/>
<path d="M104.972 16.846C104.972 17.7969 104.646 18.4761 104.112 18.8022C104.094 18.8112 100.281 21.0753 100.263 21.0844C99.7106 21.3923 100.064 20.6859 99.2216 20.2059C97.5189 19.2278 96.1423 16.846 96.1423 14.8988C96.1423 13.9388 95.2548 13.9298 95.7982 13.6037C95.8163 13.5947 99.7377 11.3124 99.7468 11.3124C100.299 11.0136 101.06 11.0679 101.893 11.5479C103.596 12.526 104.972 14.8988 104.972 16.846Z" fill="url(#paint3_linear_722_44446)"/>
<path d="M88.9873 22.3255V29.7609L94.3488 28.4749L102.355 23.8561V14.709L93.8869 19.4818L88.9873 22.3255Z" fill="#019DA2"/>
<path d="M88.997 22.3253V29.7607L82.748 26.3826V18.8657L88.997 22.3253Z" fill="#008286"/>
<path d="M82.748 18.8657L88.997 22.3253L93.8513 19.5087L102.355 14.7088L94.5034 10.416L86.5427 14.899L82.748 18.8657Z" fill="#17C4C9"/>
<path d="M88.5222 26.3826C88.5222 27.3335 88.1962 28.0127 87.6618 28.3388C87.6437 28.3478 83.8309 30.612 83.8128 30.621C83.2604 30.9289 83.6136 30.2225 82.7713 29.7425C81.0687 28.7644 79.6921 26.3826 79.6921 24.4354C79.6921 23.4754 78.8046 23.4664 79.348 23.1404C79.3661 23.1313 83.2875 20.8491 83.2966 20.8491C83.8491 20.5502 84.6098 20.6045 85.443 21.0845C87.1456 22.0626 88.5222 24.4354 88.5222 26.3826Z" fill="url(#paint4_linear_722_44446)"/>
<path d="M84.592 28.6921C84.592 30.6393 83.2154 31.4272 81.5128 30.4491C79.8102 29.471 78.4336 27.0891 78.4336 25.142C78.4336 23.1949 79.8102 22.4069 81.5128 23.385C83.2154 24.3631 84.592 26.745 84.592 28.6921Z" fill="#008286"/>
<path d="M83.4676 28.8301C83.4676 29.6271 83.1959 30.1886 82.7431 30.4694C82.7341 30.4784 58.7845 45.3878 58.7845 44.9659C58.3226 45.2286 58.6699 44.3768 57.9635 43.9602C56.5416 43.1361 55.3914 41.1527 55.3914 39.5225C55.3914 38.7165 54.2556 38.4092 54.7084 38.1376C51.3474 40.3983 79.0752 24.1932 79.0933 24.1842C79.5552 23.9306 80.1892 23.9759 80.8865 24.3834C82.3084 25.2166 83.4676 27.2 83.4676 28.8301Z" fill="url(#paint5_linear_722_44446)"/>
<path d="M59.4427 43.4654C59.4427 45.2793 58.0963 46.0149 56.4318 45.0979C54.7673 44.1809 53.4209 41.974 53.4209 40.1602C53.4209 38.3463 54.7673 37.6107 56.4318 38.5277C58.0857 39.4346 59.4427 41.6516 59.4427 43.4654Z" fill="url(#paint6_linear_722_44446)"/>
<path d="M100.076 17.426L100.175 17.1724L99.5322 16.8464C99.3783 16.7377 99.2062 16.6471 99.016 16.5837L98.9164 16.5385L98.9073 16.5566C98.6809 16.4932 98.4455 16.4751 98.1828 16.4841C96.1542 16.5928 93.7542 19.0109 92.8304 21.8727L79.8434 67.4994C79.1008 69.8088 79.5355 71.7106 80.8034 72.2993L81.4283 72.6616L81.5008 72.4804C81.6094 72.4895 81.7272 72.4895 81.8449 72.4895C83.8736 72.3808 86.2735 69.9627 87.1973 67.1009L100.184 21.4742C100.737 19.7897 100.655 18.3316 100.076 17.426Z" fill="#999999"/>
<path d="M82.624 72.9059C80.5953 73.0146 79.6987 70.7867 80.6225 67.9248L93.6095 22.2982C94.5333 19.4363 96.9332 17.0183 98.9619 16.9096C100.991 16.8009 101.887 19.0288 100.963 21.8906L87.9764 67.5173C87.0526 70.3791 84.6526 72.7882 82.624 72.9059Z" fill="#E5E5E5"/>
<path d="M96.291 22.7061C96.291 23.1951 96.4631 23.5483 96.7348 23.7204C96.7438 23.7295 97.5318 24.1913 97.5408 24.1913C97.8306 24.3543 97.6404 23.983 98.0842 23.7385C98.9627 23.2313 99.6781 21.9997 99.6781 20.9853C99.6781 20.4872 100.14 20.4782 99.8593 20.3152C99.8502 20.3061 99.008 19.8352 98.9989 19.8352C98.7091 19.6812 98.3196 19.7084 97.8849 19.9619C96.9974 20.4601 96.291 21.6917 96.291 22.7061Z" fill="url(#paint7_linear_722_44446)"/>
<path d="M97.1328 23.1947C97.1328 24.209 97.8483 24.6075 98.7268 24.1004C99.6052 23.5932 100.321 22.3615 100.321 21.3472C100.321 20.3328 99.6052 19.9344 98.7268 20.4415C97.8483 20.9487 97.1328 22.1804 97.1328 23.1947Z" fill="url(#paint8_linear_722_44446)"/>
<path d="M82.6494 69.5274C82.6494 70.0164 82.8215 70.3696 83.0932 70.5417C83.1022 70.5508 83.8902 71.0126 83.8992 71.0126C84.189 71.1757 83.9988 70.8043 84.4426 70.5598C85.3211 70.0526 86.0365 68.821 86.0365 67.8066C86.0365 67.3085 86.4984 67.2995 86.2177 67.1365C86.2086 67.1274 85.3664 66.6564 85.3573 66.6564C85.0675 66.5025 84.6781 66.5297 84.2434 66.7832C83.3558 67.2904 82.6494 68.5221 82.6494 69.5274Z" fill="url(#paint9_linear_722_44446)"/>
<path d="M83.4932 70.016C83.4932 71.0303 84.2086 71.4288 85.0871 70.9216C85.9656 70.4145 86.6811 69.1828 86.6811 68.1685C86.6811 67.1541 85.9656 66.7556 85.0871 67.2628C84.2086 67.77 83.4932 69.0017 83.4932 70.016Z" fill="#00B9BF"/>
<path d="M54.8658 43.2738L48.5444 46.996C47.7203 47.476 47.041 46.9689 47.041 45.864V45.3477C47.041 44.2428 47.7112 42.9568 48.5444 42.4859L54.8658 38.7637V43.2738Z" fill="#27AFB4"/>
<path d="M54.866 38.7626L48.5445 42.4848C47.7204 42.9648 47.0412 44.2417 47.0412 45.3466V45.8628C47.0412 46.3972 47.2042 46.7957 47.4578 47.004L47.2404 46.8319C46.86 46.6145 46.5068 46.2704 46.5068 45.5368V45.0206C46.5068 43.9157 47.177 42.6387 48.0102 42.1587L54.3317 38.4365L54.866 38.7626Z" fill="#7FEDF0"/>
<path d="M49.1497 52.0937V53.0718L46.6592 51.6318V50.6084L49.1497 52.0937Z" fill="#00ADB3"/>
<path d="M49.1416 52.0937V53.0717L54.6298 49.9292V48.9058L49.1416 52.0937Z" fill="#00BFC5"/>
<path d="M54.6289 48.9056L49.1407 52.0935L46.6592 50.6083L52.1474 47.4385L54.6289 48.9056Z" fill="#70E0E3"/>
<path d="M52.5114 46.9146H48.6533V49.5862C48.6533 49.5953 48.6533 49.5953 48.6533 49.6043C48.6533 50.2292 49.5137 50.7273 50.5824 50.7273C51.651 50.7273 52.5114 50.2202 52.5114 49.6043C52.5114 49.5953 52.5114 49.5953 52.5114 49.5862V46.9146Z" fill="url(#paint10_linear_722_44446)"/>
<path d="M48.6533 46.9228C48.6533 47.5477 49.5137 48.0458 50.5824 48.0458C51.651 48.0458 52.5114 47.5387 52.5114 46.9228C52.5114 46.2979 51.651 45.7998 50.5824 45.7998C49.5137 45.7998 48.6533 46.2979 48.6533 46.9228Z" fill="url(#paint11_linear_722_44446)"/>
<path d="M53.2253 43.6357H47.9453V47.2946C47.9453 47.3036 47.9453 47.3127 47.9453 47.3127C47.9453 48.164 49.1317 48.8523 50.5898 48.8523C52.0479 48.8523 53.2343 48.164 53.2343 47.3127C53.2343 47.3036 53.2343 47.2946 53.2343 47.2946V43.6357H53.2253Z" fill="url(#paint12_linear_722_44446)"/>
<path d="M47.9453 43.6441C47.9453 44.4954 49.1317 45.1837 50.5898 45.1837C52.0479 45.1837 53.2343 44.4954 53.2343 43.6441C53.2343 42.7928 52.0479 42.1045 50.5898 42.1045C49.1317 42.1045 47.9453 42.7928 47.9453 43.6441Z" fill="url(#paint13_linear_722_44446)"/>
<path d="M58.2779 45.1659L51.9565 48.8881C51.1324 49.3681 50.4531 48.8609 50.4531 47.7561V47.2398C50.4531 46.1349 51.1233 44.8489 51.9565 44.378L58.2779 40.6558V45.1659Z" fill="#27AFB4"/>
<path d="M58.2781 40.6561L51.9567 44.3783C51.1325 44.8583 50.4533 46.1353 50.4533 47.2402V47.7564C50.4533 48.2907 50.6163 48.6892 50.8699 48.8975L50.6525 48.7255C50.2721 48.5081 49.9189 48.1639 49.9189 47.4304V46.9142C49.9189 45.8093 50.5891 44.5323 51.4223 44.0523L57.7437 40.3301L58.2781 40.6561Z" fill="#7FEDF0"/>
<path opacity="0.1" d="M29.0639 99.3551L30.8445 100.94L49.4338 90.208L51.7534 91.5459L52.2764 91.8475L53.4506 92.5277L54.0249 92.8581L55.3628 93.6281L56.0494 94.026L56.5788 94.3308L56.643 94.3693L58.4878 95.4344L80.7923 108.31L81.3185 108.614L81.6939 108.833L82.5152 109.304L83.8916 110.1L81.4565 111.508L57.968 125.067H49.8412L19.9168 108.085L16.7887 106.442L29.0639 99.3551Z" fill="#212121"/>
<path d="M17.2175 106.327L45.7334 89.8618V79.7939L17.2175 96.2561V106.327Z" fill="#D49F62"/>
<path d="M19.2905 95.0591L17.2211 96.2558V106.327L17.9462 105.884L19.2937 101.963C19.2905 101.96 20.8273 95.4954 19.2905 95.0591Z" fill="#CF9E08"/>
<path d="M13.5849 94.1572V104.228L17.2168 106.327V96.2555L13.5849 94.1572Z" fill="#EEB919"/>
<path d="M42.0983 77.6958L13.5856 94.1579L17.2175 96.2562L45.7334 79.7941L42.0983 77.6958Z" fill="#FFCC33"/>
<path d="M17.3402 95.5636L44.6338 79.8073V76.3423L17.3402 92.1018V95.5636Z" fill="#CF9E08"/>
<path d="M14.477 90.4683V93.9333L17.3389 95.5631V92.1013L14.477 90.4683Z" fill="#E6B113"/>
<path d="M14.477 89.2646V92.7297L17.3389 94.3595V90.8977L14.477 89.2646Z" fill="#A98004"/>
<path d="M41.7719 74.7119L14.4784 90.4682L17.3402 92.1012L44.6338 76.3418L41.7719 74.7119Z" fill="#9D8972"/>
<path d="M17.2175 93.8589L45.7334 77.3968V75.3306L17.2175 91.7927V93.8589Z" fill="#FFCC33"/>
<path d="M13.5849 89.6943V91.7605L17.2168 93.8588V91.7926L13.5849 89.6943Z" fill="#EEB919"/>
<path d="M42.0983 73.2324L13.5856 89.6945L17.2175 91.7928L45.7334 75.3307L42.0983 73.2324Z" fill="#FFF7B0"/>
<path d="M52.4016 125.776L78.3252 110.809V107.665L52.4016 122.635V125.776Z" fill="#FFCC33"/>
<path d="M78.3252 107.665L75.89 109.073L52.4016 122.632L50.7653 121.689L50.5247 121.551L50.0435 121.271L49.8895 121.182L27.2191 108.095L26.5518 107.71L26.2823 107.553L25.8973 107.331L25.785 107.267L25.5572 107.135L23.5039 105.948L23.0034 105.66L21.8419 104.989L21.4088 104.739L20.7543 104.36L19.2913 103.516L18.717 103.186L18.6881 103.167L18.4026 103.003L18.1266 102.843L17.9438 102.74L43.8674 87.7729L46.187 89.1108L46.71 89.4124L47.8842 90.0926L48.4585 90.4231L49.7964 91.1931L50.483 91.5909L51.0124 91.8957L51.0766 91.9342L52.9214 92.9994L75.2259 105.875L75.7521 106.179L76.1275 106.398L76.9488 106.869L78.3252 107.665Z" fill="#FFF7B0"/>
<path d="M19.7352 101.704L17.9417 102.74L44.2021 117.906L31.9462 107.409L19.7352 101.704Z" fill="#FFCC33"/>
<path d="M17.9435 102.74V105.881L52.4014 125.776V122.635L17.9435 102.74Z" fill="#EEB919"/>
<path d="M52.4016 121.953L78.3252 106.986V102.529L52.4016 117.496V121.953Z" fill="#F0F0F0"/>
<path d="M78.3252 102.528L52.4016 117.495L17.9438 97.6003L43.8674 82.6333L78.3252 102.528Z" fill="white"/>
<path d="M25.0254 100.982H23.8031L17.9446 97.6001L20.7872 95.9606L32.8089 88.9824L37.291 93.888H32.687L25.0254 100.982Z" fill="#D1CCC7"/>
<path d="M17.9435 97.6006V102.06L52.4014 121.952V117.496L17.9435 97.6006Z" fill="#ADA7A7"/>
<path d="M31.5596 90.5757L37.293 93.8868V90.5693L31.5596 87.2583V90.5757Z" fill="#ADA7A7"/>
<path d="M49.5488 86.7969L37.2929 93.8874V90.57L49.5488 83.4795V86.7969Z" fill="#F0F0F0"/>
<path d="M31.5595 87.2585L37.2929 90.5695L49.5488 83.479L43.8155 80.168L31.5595 87.2585Z" fill="white"/>
<path d="M19.293 97.6739L25.0264 100.982V97.6643L19.293 94.3564V97.6739Z" fill="#ADA7A7"/>
<path d="M36.6582 94.2535L25.0279 100.981V97.664L36.6582 90.936V94.2535Z" fill="#F0F0F0"/>
<path d="M19.2945 94.3559L25.0279 97.6637L36.6582 90.9358L30.9249 87.6279L19.2945 94.3559Z" fill="white"/>
<path d="M27.7036 110.462V108.393L28.2779 108.024V103.526L53.8293 88.3857L78.3252 102.528L52.4016 117.495V121.952L51.7792 122.272V124.226L27.7036 110.462Z" fill="#F2F2F2"/>
<path d="M28.2747 103.526L52.3984 117.496V121.952L51.776 122.273V124.227L27.7004 110.463V108.393L28.2747 108.024V103.526Z" fill="#E5E5E5"/>
<path d="M51.776 122.273L27.7004 108.393L28.2747 108.024L52.3984 121.952L51.776 122.273Z" fill="#CCCCCC"/>
<path d="M83.9896 123.642C83.9887 123.643 83.9877 123.643 83.9858 123.644C84.2912 123.502 99.3538 114.646 99.6699 114.563C100.124 114.437 100.597 114.622 100.976 114.869L101.531 114.547C101.066 113.869 100.719 113.103 100.573 112.292C100.416 111.701 100.505 107.932 100.477 107.257C100.477 107.265 100.477 107.273 100.477 107.28C100.961 100.705 109.803 98.5985 115.45 98.5703C121.067 98.5975 129.842 100.681 130.326 107.215C130.326 107.201 130.326 107.185 130.326 107.171C130.205 109.392 130.843 112.704 129.227 114.597C127.738 116.76 124.68 118.346 122.047 119.078C116.277 120.682 109.212 120.3 104.091 116.998L102.775 117.763C102.845 118.273 102.812 118.849 102.47 119.244C102.255 119.539 87.0409 128.21 86.7646 128.429C86.7753 128.423 86.7851 128.416 86.7948 128.41C84.8193 129.361 82.235 124.925 83.9896 123.642Z" fill="#DDDDDD"/>
<ellipse cx="115.886" cy="108.592" rx="10.6936" ry="5.03227" fill="white"/>
<path d="M102.491 105.95C102.486 104.126 103.688 102.298 106.094 100.909C106.166 100.867 106.239 100.826 106.312 100.787C106.336 100.773 106.36 100.76 106.385 100.748C106.434 100.721 106.483 100.694 106.534 100.668C106.563 100.652 106.593 100.638 106.622 100.622C106.668 100.599 106.713 100.576 106.759 100.553C106.791 100.538 106.823 100.522 106.856 100.506C106.9 100.485 106.944 100.464 106.989 100.442C107.022 100.427 107.055 100.411 107.089 100.396C107.133 100.375 107.178 100.355 107.222 100.334C107.256 100.319 107.29 100.304 107.325 100.289C107.37 100.269 107.415 100.25 107.46 100.23C107.495 100.216 107.529 100.2 107.564 100.185C107.609 100.166 107.654 100.148 107.7 100.129C107.735 100.114 107.77 100.101 107.805 100.086C107.82 100.08 107.836 100.074 107.853 100.067C107.899 100.048 107.946 100.031 107.992 100.012C108.002 100.008 108.012 100.005 108.023 100.001C108.098 99.9724 108.174 99.9442 108.25 99.916C108.271 99.9083 108.291 99.9014 108.311 99.8946C108.371 99.8732 108.432 99.8518 108.494 99.8304C108.513 99.8236 108.531 99.8168 108.551 99.811C108.628 99.7847 108.706 99.7594 108.783 99.7341C108.798 99.7293 108.813 99.7254 108.827 99.7205C108.892 99.7001 108.958 99.6787 109.024 99.6592C109.046 99.6524 109.068 99.6456 109.091 99.6388C109.165 99.6165 109.239 99.5951 109.312 99.5737C109.318 99.5717 109.324 99.5698 109.33 99.5688C109.331 99.5688 109.333 99.5678 109.334 99.5678C109.345 99.5649 109.356 99.562 109.367 99.5591C109.453 99.5348 109.538 99.5114 109.625 99.4881C109.659 99.4793 109.692 99.4706 109.726 99.4618C109.791 99.4443 109.857 99.4278 109.923 99.4112C109.961 99.4015 110 99.3927 110.039 99.383C110.101 99.3684 110.164 99.3538 110.226 99.3393C110.266 99.3305 110.306 99.3208 110.345 99.312C110.409 99.2984 110.471 99.2848 110.534 99.2712C110.559 99.2663 110.584 99.2605 110.609 99.2546C110.624 99.2517 110.638 99.2488 110.654 99.2459C110.708 99.2342 110.764 99.2235 110.819 99.2128C110.861 99.205 110.904 99.1963 110.946 99.1885C111.002 99.1778 111.059 99.1681 111.117 99.1574C111.158 99.1496 111.198 99.1428 111.239 99.136C111.3 99.1253 111.36 99.1155 111.421 99.1058C111.459 99.1 111.497 99.0932 111.535 99.0873C111.604 99.0766 111.674 99.0659 111.744 99.0562C111.771 99.0523 111.798 99.0484 111.824 99.0445C111.826 99.0445 111.829 99.0436 111.831 99.0436C111.9 99.0338 111.969 99.0251 112.038 99.0153C112.066 99.0115 112.094 99.0076 112.123 99.0037C112.22 98.991 112.318 98.9794 112.415 98.9687C112.432 98.9667 112.447 98.9658 112.464 98.9638C112.546 98.9551 112.627 98.9463 112.709 98.9385C112.745 98.9346 112.78 98.9317 112.816 98.9288C112.879 98.923 112.941 98.9171 113.005 98.9123C113.008 98.9123 113.012 98.9113 113.014 98.9113C113.051 98.9084 113.087 98.9054 113.124 98.9035C113.184 98.8986 113.242 98.8947 113.301 98.8899C113.344 98.887 113.386 98.885 113.429 98.8821C113.485 98.8782 113.542 98.8753 113.599 98.8714C113.643 98.8695 113.687 98.8675 113.73 98.8646C113.786 98.8617 113.841 98.8587 113.897 98.8568C113.941 98.8549 113.986 98.8539 114.031 98.8519C114.085 98.85 114.14 98.8481 114.194 98.8471C114.204 98.8471 114.213 98.8461 114.222 98.8461C114.256 98.8451 114.29 98.8451 114.323 98.8442C114.382 98.8432 114.44 98.8422 114.5 98.8412C114.543 98.8403 114.588 98.8403 114.632 98.8403C114.689 98.8403 114.747 98.8393 114.804 98.8403C114.849 98.8403 114.894 98.8412 114.939 98.8412C114.996 98.8422 115.052 98.8422 115.109 98.8432C115.154 98.8442 115.2 98.8451 115.246 98.8461C115.301 98.8471 115.358 98.849 115.413 98.851C115.434 98.8519 115.457 98.8519 115.478 98.8529C115.5 98.8539 115.522 98.8549 115.543 98.8558C115.609 98.8588 115.677 98.8607 115.743 98.8646C115.784 98.8665 115.824 98.8685 115.865 98.8704C115.936 98.8743 116.006 98.8782 116.076 98.8831C116.112 98.885 116.148 98.887 116.184 98.8899C116.277 98.8957 116.37 98.9035 116.463 98.9103C116.476 98.9113 116.489 98.9123 116.502 98.9132C116.608 98.922 116.713 98.9317 116.819 98.9424C116.824 98.9434 116.83 98.9434 116.837 98.9443C116.854 98.9463 116.873 98.9482 116.89 98.9502C116.987 98.9599 117.082 98.9706 117.177 98.9813C117.212 98.9852 117.248 98.9901 117.283 98.994C117.379 99.0056 117.474 99.0183 117.568 99.0309C117.592 99.0338 117.615 99.0367 117.638 99.0406C117.754 99.0572 117.87 99.0737 117.986 99.0922C118.015 99.0971 118.044 99.1019 118.072 99.1068C118.162 99.1214 118.251 99.1369 118.34 99.1525C118.359 99.1564 118.379 99.1593 118.398 99.1622C118.417 99.1651 118.435 99.169 118.454 99.1729C118.507 99.1826 118.56 99.1924 118.612 99.2031C118.656 99.2118 118.7 99.2196 118.743 99.2284C118.797 99.2391 118.849 99.2498 118.902 99.2605C118.945 99.2692 118.989 99.278 119.031 99.2877C119.085 99.2994 119.138 99.311 119.191 99.3237C119.233 99.3334 119.274 99.3422 119.316 99.3519C119.371 99.3645 119.425 99.3782 119.479 99.3908C119.519 99.4005 119.559 99.4103 119.599 99.42C119.656 99.4346 119.712 99.4492 119.769 99.4638C119.806 99.4735 119.843 99.4832 119.88 99.4929C119.943 99.5095 120.004 99.527 120.066 99.5445C120.097 99.5532 120.128 99.561 120.159 99.5698C120.249 99.596 120.34 99.6223 120.429 99.6495C120.431 99.6505 120.432 99.6505 120.434 99.6515C120.525 99.6797 120.616 99.7079 120.706 99.7371C120.709 99.738 120.711 99.739 120.714 99.739C120.788 99.7633 120.862 99.7876 120.936 99.8129C120.955 99.8197 120.975 99.8265 120.994 99.8334C121.059 99.8557 121.123 99.8781 121.189 99.9015C121.202 99.9063 121.216 99.9112 121.23 99.916C121.304 99.9433 121.379 99.9715 121.454 99.9997C121.473 100.006 121.49 100.013 121.509 100.02C121.57 100.043 121.632 100.068 121.693 100.093C121.709 100.1 121.725 100.106 121.741 100.113C121.814 100.143 121.887 100.173 121.959 100.203C121.975 100.21 121.99 100.217 122.006 100.223C122.066 100.25 122.126 100.276 122.186 100.302C122.203 100.31 122.221 100.318 122.238 100.326C122.309 100.358 122.38 100.391 122.45 100.424C122.463 100.43 122.475 100.435 122.487 100.441C122.547 100.469 122.607 100.499 122.666 100.528C122.684 100.537 122.702 100.545 122.72 100.554C122.789 100.589 122.858 100.624 122.926 100.659C122.934 100.663 122.941 100.667 122.949 100.672C123.01 100.704 123.072 100.737 123.132 100.77C123.15 100.78 123.168 100.789 123.186 100.799C123.253 100.836 123.32 100.874 123.386 100.912C123.436 100.941 123.485 100.97 123.535 101C123.546 101.006 123.557 101.013 123.569 101.02C123.607 101.043 123.644 101.067 123.682 101.089C123.716 101.11 123.75 101.132 123.784 101.153C123.821 101.177 123.857 101.201 123.893 101.224C123.926 101.246 123.959 101.267 123.991 101.289C124.027 101.314 124.062 101.338 124.097 101.362C124.129 101.384 124.16 101.406 124.191 101.429C124.226 101.453 124.259 101.478 124.293 101.502C124.324 101.525 124.355 101.546 124.385 101.569C124.418 101.594 124.451 101.619 124.484 101.644C124.513 101.667 124.542 101.689 124.572 101.712C124.604 101.737 124.636 101.763 124.667 101.788C124.695 101.811 124.723 101.833 124.751 101.856C124.782 101.883 124.813 101.909 124.843 101.935C124.869 101.958 124.896 101.98 124.923 102.003C124.953 102.031 124.983 102.057 125.012 102.084C125.034 102.104 125.056 102.123 125.077 102.142C125.081 102.146 125.086 102.15 125.09 102.154C125.099 102.163 125.108 102.171 125.116 102.179C125.156 102.216 125.195 102.254 125.233 102.291C125.244 102.301 125.254 102.312 125.264 102.321C125.309 102.365 125.352 102.409 125.394 102.454C125.402 102.461 125.41 102.47 125.418 102.479C125.454 102.517 125.49 102.556 125.525 102.594C125.535 102.604 125.544 102.615 125.553 102.625C125.593 102.67 125.633 102.714 125.672 102.76C125.678 102.768 125.685 102.777 125.692 102.784C125.725 102.823 125.757 102.863 125.789 102.902C125.798 102.913 125.807 102.924 125.816 102.934C125.821 102.941 125.827 102.949 125.833 102.956C125.862 102.993 125.891 103.03 125.919 103.067C125.925 103.075 125.93 103.084 125.937 103.092C125.972 103.138 126.006 103.185 126.038 103.232C126.041 103.236 126.044 103.24 126.046 103.244C126.078 103.29 126.109 103.336 126.14 103.383C126.144 103.388 126.147 103.393 126.151 103.399C126.181 103.446 126.211 103.493 126.24 103.54C126.245 103.549 126.25 103.558 126.255 103.565C126.279 103.605 126.302 103.644 126.324 103.684C126.328 103.691 126.332 103.699 126.336 103.706C126.34 103.713 126.344 103.721 126.348 103.728C126.374 103.776 126.399 103.823 126.424 103.871C126.427 103.877 126.43 103.884 126.434 103.889C126.46 103.939 126.484 103.988 126.506 104.037C126.508 104.041 126.51 104.046 126.512 104.05C126.536 104.101 126.559 104.153 126.581 104.205C126.581 104.206 126.582 104.206 126.582 104.207C126.604 104.259 126.625 104.311 126.644 104.364C126.645 104.368 126.647 104.371 126.648 104.375C126.649 104.377 126.65 104.379 126.65 104.381C126.658 104.401 126.664 104.42 126.672 104.441C126.684 104.476 126.697 104.51 126.709 104.545C126.716 104.568 126.723 104.593 126.731 104.616C126.742 104.649 126.751 104.681 126.761 104.714C126.768 104.739 126.775 104.764 126.781 104.789C126.79 104.821 126.799 104.852 126.807 104.884C126.813 104.91 126.818 104.936 126.824 104.961C126.831 104.992 126.839 105.023 126.845 105.056C126.846 105.06 126.847 105.066 126.849 105.071C126.852 105.092 126.855 105.112 126.859 105.132C126.865 105.165 126.871 105.196 126.877 105.228C126.881 105.254 126.885 105.279 126.888 105.306C126.893 105.337 126.897 105.369 126.901 105.4C126.904 105.426 126.907 105.452 126.91 105.479C126.913 105.51 126.916 105.541 126.919 105.572C126.921 105.598 126.923 105.626 126.923 105.652C126.925 105.683 126.927 105.714 126.928 105.744C126.928 105.754 126.929 105.764 126.93 105.773C126.931 105.809 126.932 105.845 126.932 105.88L126.944 110.008C126.944 109.963 126.942 109.917 126.941 109.871C126.94 109.84 126.938 109.81 126.936 109.779C126.934 109.753 126.933 109.725 126.931 109.699C126.929 109.668 126.925 109.637 126.922 109.606C126.92 109.579 126.918 109.553 126.914 109.527C126.91 109.496 126.905 109.464 126.901 109.433C126.897 109.406 126.894 109.38 126.889 109.355C126.885 109.323 126.879 109.292 126.872 109.259C126.867 109.234 126.863 109.208 126.857 109.183C126.851 109.151 126.844 109.12 126.837 109.088C126.831 109.063 126.825 109.037 126.819 109.011C126.812 108.979 126.803 108.948 126.794 108.916C126.787 108.891 126.781 108.866 126.774 108.841C126.764 108.808 126.753 108.776 126.744 108.743C126.736 108.72 126.729 108.695 126.721 108.671C126.709 108.637 126.697 108.602 126.685 108.568C126.677 108.545 126.67 108.523 126.661 108.501C126.66 108.497 126.658 108.494 126.657 108.49C126.638 108.438 126.616 108.386 126.595 108.333C126.595 108.332 126.595 108.332 126.594 108.331C126.572 108.28 126.549 108.227 126.525 108.176C126.523 108.172 126.521 108.168 126.519 108.163C126.495 108.114 126.471 108.064 126.447 108.015C126.444 108.01 126.441 108.003 126.438 107.997C126.414 107.949 126.388 107.901 126.361 107.853C126.357 107.846 126.353 107.838 126.35 107.832C126.323 107.785 126.296 107.737 126.268 107.691C126.263 107.682 126.257 107.673 126.252 107.664C126.224 107.617 126.194 107.57 126.164 107.523C126.16 107.517 126.157 107.513 126.153 107.507C126.123 107.46 126.092 107.413 126.06 107.368C126.057 107.364 126.054 107.36 126.051 107.355C126.018 107.308 125.984 107.262 125.95 107.215C125.944 107.207 125.938 107.198 125.931 107.191C125.897 107.146 125.863 107.101 125.828 107.056C125.82 107.046 125.811 107.035 125.802 107.024C125.77 106.985 125.738 106.945 125.705 106.907C125.698 106.899 125.691 106.89 125.684 106.882C125.645 106.837 125.606 106.792 125.566 106.747C125.556 106.736 125.546 106.726 125.536 106.716C125.501 106.677 125.465 106.639 125.429 106.601C125.422 106.593 125.414 106.585 125.406 106.577C125.363 106.533 125.32 106.488 125.276 106.445C125.265 106.435 125.255 106.424 125.245 106.414C125.206 106.376 125.167 106.339 125.128 106.303C125.119 106.294 125.11 106.286 125.101 106.277C125.075 106.254 125.049 106.231 125.023 106.207C124.993 106.18 124.964 106.153 124.932 106.126C124.906 106.104 124.88 106.081 124.853 106.058C124.822 106.032 124.791 106.006 124.76 105.98C124.733 105.957 124.705 105.935 124.677 105.912C124.645 105.886 124.613 105.861 124.58 105.836C124.552 105.813 124.522 105.791 124.493 105.769C124.46 105.743 124.427 105.718 124.394 105.693C124.363 105.67 124.333 105.648 124.303 105.627C124.269 105.602 124.235 105.577 124.201 105.553C124.17 105.53 124.138 105.509 124.107 105.486C124.072 105.462 124.037 105.438 124.001 105.414C123.969 105.392 123.935 105.37 123.902 105.348C123.866 105.325 123.83 105.301 123.793 105.277C123.759 105.256 123.725 105.235 123.691 105.213C123.654 105.19 123.616 105.166 123.578 105.144C123.518 105.108 123.458 105.071 123.397 105.035C123.33 104.997 123.263 104.959 123.196 104.921C123.179 104.912 123.161 104.902 123.143 104.892C123.082 104.859 123.021 104.826 122.96 104.794C122.952 104.79 122.945 104.786 122.938 104.782C122.869 104.746 122.8 104.711 122.731 104.677C122.714 104.668 122.695 104.66 122.678 104.651C122.618 104.622 122.559 104.593 122.499 104.564C122.486 104.559 122.474 104.553 122.462 104.547C122.392 104.514 122.321 104.481 122.25 104.449C122.232 104.441 122.215 104.433 122.197 104.425C122.138 104.399 122.078 104.373 122.018 104.347C122.003 104.34 121.987 104.333 121.971 104.326C121.899 104.295 121.826 104.265 121.753 104.236C121.736 104.229 121.721 104.223 121.704 104.216C121.643 104.192 121.582 104.168 121.519 104.143C121.501 104.136 121.483 104.13 121.465 104.123C121.391 104.095 121.316 104.066 121.241 104.039C121.228 104.034 121.214 104.029 121.199 104.025C121.135 104.001 121.07 103.979 121.006 103.956C120.986 103.95 120.967 103.943 120.947 103.936C120.872 103.91 120.795 103.884 120.719 103.86C120.628 103.831 120.538 103.803 120.447 103.775C120.445 103.774 120.443 103.774 120.442 103.773C120.352 103.745 120.262 103.719 120.171 103.693C120.14 103.684 120.109 103.675 120.078 103.667C120.017 103.649 119.955 103.633 119.893 103.616C119.856 103.606 119.818 103.597 119.781 103.587C119.725 103.572 119.669 103.558 119.613 103.543C119.573 103.533 119.532 103.524 119.492 103.514C119.438 103.5 119.384 103.488 119.33 103.475C119.288 103.465 119.246 103.456 119.204 103.447C119.151 103.435 119.097 103.422 119.044 103.411C119.001 103.402 118.958 103.392 118.916 103.384C118.863 103.373 118.81 103.361 118.756 103.351C118.712 103.342 118.669 103.333 118.625 103.325C118.572 103.315 118.519 103.305 118.466 103.295C118.428 103.288 118.391 103.281 118.353 103.275C118.265 103.259 118.175 103.244 118.086 103.229C118.057 103.224 118.028 103.219 117.999 103.214C117.884 103.196 117.769 103.178 117.652 103.163C117.629 103.16 117.605 103.157 117.582 103.153C117.487 103.14 117.392 103.128 117.297 103.116C117.262 103.112 117.227 103.107 117.191 103.103C117.096 103.093 116.999 103.082 116.903 103.072C116.88 103.07 116.855 103.067 116.832 103.065C116.727 103.054 116.621 103.044 116.516 103.035C116.502 103.034 116.49 103.033 116.476 103.032C116.384 103.025 116.29 103.018 116.198 103.012C116.162 103.009 116.126 103.007 116.09 103.005C116.019 103 115.949 102.996 115.878 102.993C115.837 102.991 115.796 102.989 115.755 102.987C115.689 102.984 115.622 102.981 115.556 102.978C115.512 102.976 115.469 102.975 115.426 102.973C115.369 102.971 115.314 102.97 115.257 102.968C115.212 102.967 115.166 102.966 115.121 102.965C115.065 102.964 115.008 102.963 114.952 102.963C114.907 102.963 114.862 102.962 114.817 102.962C114.759 102.962 114.702 102.962 114.645 102.962C114.601 102.962 114.556 102.962 114.512 102.963C114.453 102.964 114.395 102.965 114.335 102.966C114.293 102.967 114.25 102.968 114.208 102.969C114.153 102.97 114.099 102.972 114.044 102.974C114 102.976 113.955 102.977 113.91 102.979C113.855 102.981 113.799 102.984 113.744 102.987C113.7 102.989 113.656 102.991 113.613 102.994C113.556 102.996 113.5 103 113.442 103.004C113.4 103.007 113.358 103.009 113.315 103.012C113.256 103.016 113.197 103.021 113.138 103.026C113.098 103.029 113.058 103.031 113.018 103.034C112.955 103.039 112.893 103.045 112.83 103.051C112.794 103.054 112.759 103.057 112.723 103.061C112.643 103.068 112.563 103.077 112.483 103.086C112.465 103.088 112.447 103.09 112.429 103.092C112.331 103.102 112.233 103.114 112.136 103.127C112.107 103.131 112.078 103.135 112.049 103.138C111.98 103.147 111.912 103.156 111.844 103.166C111.815 103.17 111.786 103.174 111.757 103.178C111.687 103.188 111.617 103.199 111.548 103.209C111.51 103.215 111.472 103.222 111.434 103.228C111.374 103.238 111.313 103.247 111.253 103.258C111.212 103.265 111.171 103.273 111.129 103.28C111.073 103.29 111.016 103.301 110.959 103.312C110.916 103.319 110.875 103.328 110.832 103.336C110.777 103.347 110.722 103.357 110.667 103.369C110.628 103.377 110.588 103.386 110.548 103.394C110.485 103.408 110.421 103.422 110.359 103.435C110.319 103.444 110.279 103.453 110.239 103.462C110.177 103.477 110.115 103.492 110.053 103.506C110.014 103.516 109.976 103.525 109.937 103.534C109.871 103.551 109.806 103.567 109.739 103.585C109.705 103.594 109.672 103.602 109.638 103.611C109.552 103.635 109.466 103.658 109.381 103.682C109.368 103.686 109.355 103.689 109.343 103.693C109.337 103.695 109.331 103.697 109.325 103.698C109.251 103.719 109.176 103.741 109.102 103.763C109.08 103.77 109.058 103.777 109.036 103.783C108.97 103.804 108.905 103.824 108.84 103.845C108.825 103.849 108.811 103.853 108.796 103.858C108.718 103.884 108.64 103.909 108.564 103.935C108.544 103.942 108.526 103.949 108.506 103.955C108.445 103.976 108.384 103.997 108.323 104.019C108.303 104.026 108.282 104.033 108.263 104.04C108.187 104.067 108.111 104.096 108.035 104.125C108.025 104.129 108.015 104.133 108.005 104.136C107.943 104.161 107.881 104.185 107.818 104.209C107.783 104.223 107.748 104.238 107.713 104.252C107.668 104.271 107.622 104.289 107.577 104.309C107.542 104.323 107.507 104.338 107.473 104.353C107.428 104.373 107.384 104.392 107.339 104.412C107.305 104.427 107.27 104.442 107.236 104.457C107.191 104.478 107.147 104.498 107.103 104.519C107.07 104.534 107.035 104.55 107.002 104.565C106.958 104.587 106.913 104.608 106.869 104.63C106.837 104.645 106.805 104.661 106.773 104.676C106.727 104.699 106.681 104.722 106.636 104.745C106.607 104.761 106.576 104.775 106.547 104.791C106.498 104.817 106.448 104.844 106.398 104.871C106.374 104.884 106.35 104.897 106.325 104.91C106.253 104.95 106.18 104.99 106.108 105.032C105.656 105.293 105.248 105.568 104.881 105.857C104.758 105.953 104.642 106.051 104.529 106.15C104.303 106.347 104.097 106.551 103.909 106.757C103.815 106.86 103.727 106.965 103.642 107.07C103.515 107.228 103.399 107.389 103.294 107.55C103.153 107.766 103.031 107.986 102.928 108.208C102.903 108.263 102.877 108.319 102.854 108.374C102.62 108.932 102.504 109.503 102.506 110.073L102.491 105.95Z" fill="#656565"/>
<path d="M99.7822 105.957C99.7822 105.998 99.7832 106.038 99.7842 106.079C99.7842 106.095 99.7851 106.11 99.7861 106.126C99.7871 106.144 99.7871 106.164 99.7881 106.182C99.789 106.199 99.79 106.215 99.791 106.232C99.792 106.25 99.7929 106.269 99.7949 106.288C99.7958 106.305 99.7968 106.321 99.7988 106.338C99.8007 106.356 99.8017 106.375 99.8036 106.394C99.8056 106.411 99.8065 106.427 99.8085 106.444C99.8104 106.462 99.8124 106.481 99.8143 106.499C99.8163 106.516 99.8182 106.533 99.8202 106.549C99.8221 106.568 99.825 106.586 99.827 106.604C99.8289 106.621 99.8309 106.638 99.8338 106.654C99.8367 106.673 99.8386 106.691 99.8416 106.71C99.8445 106.726 99.8464 106.743 99.8493 106.759C99.8523 106.778 99.8552 106.796 99.8591 106.815C99.862 106.831 99.8649 106.848 99.8678 106.863C99.8717 106.882 99.8746 106.9 99.8785 106.919C99.8814 106.935 99.8853 106.951 99.8882 106.967C99.8921 106.986 99.896 107.003 99.8999 107.022C99.9038 107.038 99.9067 107.055 99.9106 107.071C99.9145 107.09 99.9194 107.107 99.9233 107.126C99.9272 107.142 99.931 107.158 99.9349 107.174C99.9398 107.193 99.9437 107.21 99.9486 107.229C99.9524 107.245 99.9573 107.261 99.9612 107.278C99.9661 107.296 99.9709 107.314 99.9768 107.332C99.9816 107.348 99.9855 107.364 99.9904 107.38C99.9952 107.398 100.001 107.417 100.007 107.434C100.012 107.45 100.017 107.466 100.022 107.482C100.027 107.5 100.033 107.519 100.039 107.537C100.044 107.553 100.049 107.568 100.055 107.584C100.06 107.602 100.067 107.621 100.074 107.639C100.079 107.655 100.085 107.671 100.09 107.686C100.096 107.705 100.103 107.724 100.11 107.743C100.116 107.758 100.121 107.773 100.127 107.788C100.135 107.812 100.144 107.835 100.154 107.858C100.158 107.869 100.163 107.881 100.166 107.891C100.18 107.925 100.195 107.96 100.208 107.994C100.209 107.996 100.209 107.997 100.21 107.999C100.224 108.032 100.238 108.064 100.253 108.098C100.258 108.109 100.264 108.12 100.269 108.132C100.279 108.154 100.289 108.177 100.3 108.2C100.306 108.213 100.312 108.227 100.319 108.241C100.329 108.261 100.339 108.281 100.348 108.302C100.355 108.316 100.363 108.33 100.37 108.345C100.379 108.364 100.389 108.383 100.399 108.404C100.407 108.418 100.414 108.434 100.422 108.449C100.432 108.468 100.442 108.487 100.452 108.506C100.46 108.522 100.469 108.536 100.477 108.552C100.487 108.57 100.497 108.589 100.508 108.607C100.515 108.62 100.522 108.632 100.529 108.645C100.548 108.677 100.566 108.71 100.586 108.742C100.591 108.751 100.596 108.761 100.602 108.77C100.626 108.81 100.651 108.85 100.676 108.89C100.682 108.899 100.688 108.908 100.694 108.917C100.714 108.95 100.734 108.982 100.756 109.015C100.764 109.026 100.77 109.037 100.778 109.049C100.804 109.089 100.832 109.13 100.86 109.169C100.898 109.225 100.938 109.279 100.978 109.334C100.982 109.341 100.988 109.347 100.993 109.355C101.031 109.407 101.071 109.458 101.111 109.51C101.119 109.521 101.127 109.531 101.135 109.541C101.16 109.572 101.184 109.602 101.209 109.633C101.216 109.641 101.222 109.65 101.229 109.658C101.26 109.696 101.292 109.734 101.324 109.771C101.332 109.781 101.34 109.791 101.348 109.8C101.373 109.829 101.398 109.857 101.424 109.886C101.435 109.898 101.445 109.911 101.456 109.922C101.481 109.95 101.508 109.979 101.533 110.007C101.542 110.017 101.551 110.026 101.56 110.036C101.595 110.073 101.63 110.11 101.665 110.147C101.672 110.154 101.679 110.162 101.687 110.168C101.716 110.198 101.745 110.229 101.775 110.258C101.787 110.269 101.799 110.281 101.81 110.293C101.837 110.319 101.865 110.346 101.892 110.373C101.903 110.383 101.913 110.394 101.925 110.405C101.963 110.441 102.001 110.477 102.04 110.513C102.052 110.524 102.066 110.537 102.08 110.549C102.1 110.567 102.12 110.586 102.14 110.604C102.155 110.618 102.169 110.63 102.185 110.643C102.204 110.66 102.224 110.677 102.243 110.695C102.259 110.708 102.274 110.722 102.29 110.734C102.309 110.751 102.328 110.767 102.347 110.784C102.363 110.798 102.379 110.811 102.396 110.825C102.415 110.841 102.434 110.857 102.453 110.873C102.47 110.887 102.486 110.901 102.503 110.914C102.522 110.93 102.542 110.946 102.561 110.962C102.578 110.976 102.595 110.989 102.613 111.003C102.632 111.018 102.652 111.034 102.672 111.05C102.69 111.063 102.707 111.077 102.725 111.09C102.744 111.106 102.764 111.122 102.784 111.137C102.801 111.151 102.82 111.164 102.837 111.178C102.858 111.193 102.877 111.208 102.898 111.224C102.916 111.237 102.935 111.251 102.953 111.265C102.974 111.279 102.993 111.295 103.013 111.309C103.032 111.323 103.051 111.336 103.07 111.35C103.09 111.365 103.111 111.379 103.131 111.394C103.151 111.407 103.17 111.421 103.189 111.435C103.21 111.449 103.231 111.464 103.252 111.478C103.271 111.492 103.291 111.505 103.31 111.518C103.331 111.533 103.352 111.548 103.373 111.561C103.393 111.575 103.413 111.587 103.433 111.601C103.454 111.616 103.475 111.629 103.497 111.644C103.517 111.657 103.538 111.67 103.557 111.684C103.579 111.697 103.601 111.712 103.622 111.726C103.643 111.738 103.663 111.752 103.685 111.764C103.707 111.778 103.728 111.793 103.751 111.806C103.771 111.819 103.793 111.833 103.813 111.845C103.835 111.859 103.858 111.872 103.88 111.886C103.894 111.895 103.908 111.903 103.923 111.911C103.988 111.951 104.054 111.99 104.121 112.029C104.2 112.075 104.281 112.12 104.362 112.165C104.384 112.178 104.405 112.19 104.428 112.202C104.495 112.239 104.563 112.276 104.631 112.312C104.646 112.32 104.662 112.329 104.677 112.336C104.758 112.379 104.841 112.422 104.924 112.463C104.944 112.474 104.965 112.483 104.986 112.494C105.053 112.527 105.121 112.56 105.189 112.593C105.211 112.604 105.232 112.614 105.254 112.624C105.339 112.664 105.425 112.704 105.511 112.744C105.526 112.751 105.539 112.757 105.554 112.763C105.628 112.796 105.703 112.83 105.779 112.863C105.803 112.873 105.827 112.884 105.852 112.894C105.935 112.93 106.019 112.965 106.105 112.999C106.11 113.001 106.115 113.004 106.121 113.006C106.211 113.043 106.302 113.078 106.393 113.114C106.418 113.123 106.443 113.133 106.468 113.142C106.543 113.17 106.619 113.199 106.695 113.226C106.714 113.233 106.734 113.241 106.753 113.248C106.846 113.282 106.939 113.314 107.032 113.347C107.055 113.355 107.076 113.362 107.099 113.369C107.174 113.396 107.251 113.421 107.328 113.446C107.353 113.454 107.379 113.463 107.404 113.47C107.449 113.485 107.494 113.499 107.54 113.513C107.62 113.539 107.701 113.564 107.781 113.588C107.827 113.602 107.873 113.615 107.919 113.629C107.998 113.652 108.077 113.675 108.156 113.697C108.202 113.71 108.248 113.723 108.294 113.736C108.379 113.759 108.464 113.782 108.55 113.804C108.59 113.815 108.63 113.826 108.67 113.835C108.797 113.867 108.923 113.898 109.051 113.929C109.156 113.953 109.262 113.977 109.367 114.001C109.402 114.008 109.436 114.015 109.471 114.023C109.543 114.039 109.614 114.054 109.686 114.069C109.727 114.077 109.769 114.085 109.809 114.093C109.876 114.107 109.942 114.119 110.008 114.132C110.052 114.14 110.094 114.148 110.138 114.156C110.213 114.17 110.288 114.183 110.363 114.197C110.385 114.201 110.409 114.205 110.431 114.209C110.531 114.226 110.632 114.243 110.733 114.258C110.755 114.261 110.775 114.265 110.797 114.268C110.882 114.282 110.967 114.294 111.052 114.306C111.078 114.31 111.102 114.313 111.127 114.317C111.229 114.331 111.332 114.345 111.434 114.358C111.451 114.36 111.47 114.362 111.487 114.364C111.576 114.375 111.664 114.386 111.753 114.396C111.779 114.399 111.805 114.402 111.832 114.405C111.934 114.417 112.037 114.428 112.14 114.437C112.267 114.45 112.395 114.462 112.523 114.472C112.557 114.475 112.591 114.477 112.626 114.48C112.721 114.488 112.815 114.495 112.909 114.502C112.957 114.504 113.004 114.507 113.051 114.51C113.133 114.515 113.216 114.52 113.297 114.525C113.349 114.528 113.399 114.53 113.451 114.533C113.531 114.537 113.611 114.539 113.69 114.542C113.741 114.544 113.791 114.546 113.842 114.547C113.936 114.55 114.031 114.552 114.124 114.554C114.167 114.555 114.21 114.556 114.253 114.557C114.39 114.559 114.526 114.561 114.663 114.561C114.779 114.561 114.894 114.56 115.01 114.559C115.048 114.558 115.086 114.557 115.124 114.557C115.201 114.556 115.277 114.554 115.354 114.552C115.418 114.55 115.483 114.548 115.547 114.546C115.604 114.544 115.661 114.542 115.718 114.54C115.783 114.537 115.848 114.535 115.913 114.532C115.969 114.529 116.026 114.527 116.081 114.524C116.146 114.52 116.211 114.516 116.277 114.512C116.332 114.508 116.387 114.505 116.443 114.502C116.509 114.497 116.574 114.492 116.64 114.487C116.695 114.483 116.748 114.479 116.803 114.474C116.869 114.468 116.935 114.463 117.001 114.457C117.055 114.452 117.108 114.447 117.162 114.442C117.229 114.435 117.296 114.429 117.363 114.421C117.415 114.415 117.466 114.41 117.518 114.404C117.588 114.396 117.657 114.388 117.727 114.379C117.775 114.373 117.824 114.367 117.873 114.361C117.948 114.352 118.023 114.342 118.097 114.331C118.14 114.325 118.183 114.32 118.226 114.314C118.346 114.296 118.466 114.279 118.586 114.26C118.619 114.255 118.651 114.25 118.684 114.244C118.77 114.23 118.857 114.216 118.944 114.201C118.988 114.193 119.033 114.184 119.078 114.177C119.152 114.163 119.226 114.15 119.299 114.137C119.347 114.127 119.397 114.117 119.446 114.109C119.515 114.095 119.584 114.081 119.652 114.068C119.722 114.053 119.792 114.039 119.862 114.023C119.897 114.015 119.932 114.008 119.966 114.001C120.072 113.977 120.178 113.953 120.284 113.929C120.388 113.904 120.49 113.879 120.593 113.854C120.622 113.847 120.652 113.839 120.681 113.831C120.761 113.811 120.84 113.791 120.919 113.769C120.944 113.762 120.969 113.755 120.994 113.75C121.094 113.722 121.194 113.695 121.294 113.667C121.312 113.662 121.33 113.656 121.347 113.651C121.43 113.627 121.512 113.603 121.595 113.578C121.621 113.571 121.648 113.563 121.673 113.555C121.77 113.525 121.867 113.495 121.964 113.464C121.969 113.462 121.972 113.461 121.977 113.459C122.07 113.429 122.16 113.399 122.252 113.367C122.278 113.359 122.303 113.35 122.328 113.341C122.411 113.313 122.493 113.284 122.575 113.255C122.588 113.25 122.602 113.245 122.614 113.24C122.707 113.206 122.799 113.172 122.891 113.137C122.914 113.128 122.937 113.118 122.962 113.11C123.025 113.085 123.087 113.061 123.148 113.036C123.194 113.017 123.239 113 123.284 112.981C123.337 112.959 123.392 112.937 123.445 112.914C123.49 112.896 123.534 112.877 123.577 112.858C123.631 112.834 123.684 112.811 123.737 112.788C123.78 112.768 123.823 112.75 123.865 112.73C123.919 112.706 123.971 112.682 124.025 112.656C124.067 112.637 124.108 112.617 124.149 112.598C124.203 112.573 124.256 112.546 124.31 112.52C124.35 112.501 124.39 112.481 124.428 112.462C124.484 112.435 124.538 112.406 124.593 112.378C124.629 112.36 124.666 112.341 124.702 112.322C124.762 112.29 124.821 112.258 124.881 112.225C124.91 112.21 124.94 112.193 124.969 112.178C125.058 112.129 125.145 112.08 125.233 112.03C126.662 111.205 127.771 110.242 128.527 109.169C129.258 108.134 129.632 107.039 129.638 105.917C129.638 105.902 129.638 105.887 129.638 105.872L129.65 110C129.65 110.015 129.65 110.03 129.65 110.045C129.644 111.167 129.269 112.261 128.539 113.297C127.781 114.37 126.673 115.332 125.245 116.158C125.158 116.209 125.069 116.257 124.981 116.306C124.952 116.322 124.922 116.338 124.892 116.353C124.833 116.386 124.774 116.418 124.713 116.45C124.677 116.468 124.64 116.487 124.605 116.506C124.55 116.534 124.496 116.563 124.44 116.59C124.401 116.609 124.361 116.629 124.321 116.648C124.268 116.674 124.215 116.701 124.161 116.726C124.12 116.745 124.078 116.765 124.036 116.784C123.984 116.809 123.93 116.834 123.877 116.858C123.834 116.878 123.791 116.896 123.749 116.916C123.695 116.939 123.643 116.962 123.589 116.986C123.545 117.004 123.501 117.024 123.457 117.042C123.403 117.064 123.35 117.087 123.295 117.109C123.251 117.128 123.205 117.146 123.16 117.164C123.131 117.175 123.102 117.187 123.073 117.199C123.039 117.211 123.006 117.224 122.973 117.237C122.95 117.245 122.927 117.255 122.902 117.264C122.811 117.299 122.719 117.333 122.626 117.367C122.612 117.372 122.6 117.377 122.586 117.382C122.505 117.411 122.423 117.44 122.34 117.468C122.315 117.477 122.289 117.486 122.263 117.494C122.173 117.526 122.081 117.556 121.989 117.586C121.984 117.587 121.98 117.589 121.975 117.591C121.879 117.622 121.782 117.652 121.685 117.682C121.658 117.69 121.632 117.698 121.606 117.705C121.524 117.73 121.441 117.755 121.359 117.778C121.34 117.783 121.323 117.789 121.304 117.794C121.297 117.796 121.291 117.798 121.283 117.8C121.19 117.826 121.098 117.851 121.005 117.877C120.979 117.883 120.954 117.89 120.93 117.897C120.851 117.918 120.771 117.939 120.691 117.959C120.662 117.967 120.633 117.974 120.604 117.982C120.502 118.007 120.399 118.032 120.295 118.057C120.19 118.081 120.084 118.105 119.977 118.129C119.942 118.136 119.907 118.143 119.873 118.151C119.816 118.163 119.76 118.175 119.703 118.187C119.69 118.19 119.676 118.192 119.662 118.195C119.593 118.208 119.524 118.222 119.456 118.236C119.408 118.245 119.359 118.255 119.309 118.264C119.236 118.277 119.162 118.291 119.089 118.304C119.044 118.311 118.998 118.32 118.953 118.328C118.867 118.343 118.781 118.357 118.695 118.371C118.662 118.376 118.629 118.381 118.596 118.387C118.477 118.406 118.357 118.424 118.237 118.441C118.235 118.441 118.234 118.441 118.232 118.442C118.189 118.448 118.146 118.453 118.104 118.459C118.031 118.469 117.957 118.48 117.883 118.488C117.835 118.494 117.785 118.5 117.737 118.506C117.667 118.515 117.598 118.522 117.529 118.53C117.478 118.536 117.425 118.541 117.374 118.547C117.307 118.554 117.24 118.561 117.173 118.568C117.12 118.573 117.065 118.578 117.012 118.583C116.947 118.589 116.882 118.594 116.815 118.6C116.81 118.601 116.804 118.601 116.798 118.602C116.749 118.606 116.701 118.609 116.652 118.613C116.587 118.618 116.521 118.624 116.456 118.628C116.4 118.631 116.345 118.634 116.289 118.638C116.224 118.642 116.159 118.647 116.094 118.65C116.037 118.653 115.981 118.656 115.925 118.658C115.86 118.661 115.796 118.664 115.731 118.666C115.675 118.668 115.617 118.67 115.561 118.672C115.497 118.674 115.431 118.677 115.367 118.678C115.356 118.678 115.345 118.679 115.334 118.679C115.269 118.681 115.203 118.682 115.138 118.683C115.1 118.684 115.062 118.685 115.024 118.685C114.908 118.687 114.792 118.687 114.677 118.687C114.539 118.687 114.403 118.686 114.267 118.683C114.224 118.682 114.181 118.681 114.139 118.68C114.044 118.678 113.95 118.676 113.856 118.673C113.833 118.672 113.81 118.672 113.788 118.671C113.759 118.67 113.732 118.668 113.704 118.667C113.624 118.664 113.544 118.661 113.465 118.658C113.413 118.656 113.363 118.653 113.311 118.65C113.228 118.646 113.147 118.641 113.065 118.635C113.017 118.632 112.97 118.629 112.923 118.627C112.829 118.62 112.734 118.613 112.64 118.605C112.606 118.602 112.572 118.6 112.537 118.597C112.408 118.587 112.281 118.575 112.153 118.562C112.151 118.562 112.147 118.561 112.144 118.561C112.045 118.552 111.945 118.541 111.846 118.53C111.82 118.527 111.794 118.524 111.767 118.522C111.679 118.512 111.59 118.501 111.502 118.489C111.484 118.487 111.466 118.486 111.448 118.483C111.346 118.47 111.244 118.455 111.142 118.442C111.117 118.438 111.092 118.435 111.067 118.431C110.981 118.418 110.896 118.406 110.811 118.393C110.79 118.39 110.769 118.386 110.748 118.383C110.647 118.368 110.546 118.35 110.445 118.334C110.423 118.33 110.4 118.326 110.377 118.322C110.335 118.314 110.293 118.308 110.25 118.3C110.218 118.294 110.186 118.288 110.153 118.281C110.109 118.273 110.066 118.265 110.022 118.257C109.956 118.244 109.89 118.232 109.824 118.218C109.783 118.21 109.741 118.202 109.7 118.194C109.628 118.179 109.556 118.164 109.485 118.148C109.45 118.14 109.416 118.133 109.381 118.126C109.275 118.102 109.17 118.078 109.065 118.054C108.938 118.024 108.81 117.992 108.685 117.96C108.644 117.95 108.604 117.939 108.564 117.929C108.479 117.907 108.393 117.884 108.309 117.861C108.262 117.848 108.216 117.836 108.17 117.822C108.092 117.8 108.013 117.777 107.934 117.754C107.888 117.74 107.842 117.727 107.796 117.713C107.715 117.689 107.635 117.664 107.555 117.638C107.526 117.629 107.495 117.62 107.465 117.611C107.45 117.606 107.433 117.6 107.418 117.596C107.392 117.588 107.368 117.579 107.343 117.571C107.266 117.546 107.189 117.521 107.113 117.494C107.091 117.487 107.069 117.48 107.047 117.472C106.954 117.44 106.86 117.407 106.768 117.373C106.748 117.366 106.73 117.358 106.71 117.351C106.635 117.323 106.559 117.295 106.484 117.267C106.459 117.257 106.434 117.248 106.409 117.239C106.318 117.204 106.227 117.168 106.137 117.131C106.131 117.129 106.126 117.126 106.12 117.124C106.035 117.089 105.951 117.054 105.867 117.018C105.843 117.007 105.819 116.997 105.794 116.987C105.719 116.955 105.644 116.921 105.57 116.887C105.555 116.881 105.541 116.875 105.527 116.868C105.44 116.829 105.355 116.789 105.27 116.748C105.249 116.738 105.226 116.728 105.205 116.717C105.137 116.684 105.069 116.651 105.002 116.618C104.981 116.608 104.961 116.598 104.94 116.588C104.858 116.546 104.775 116.504 104.693 116.46C104.678 116.453 104.662 116.444 104.647 116.436C104.579 116.4 104.511 116.363 104.444 116.326C104.422 116.315 104.4 116.302 104.378 116.29C104.297 116.246 104.218 116.2 104.138 116.154C104.071 116.115 104.005 116.075 103.939 116.036C103.933 116.032 103.925 116.028 103.918 116.024C103.911 116.02 103.904 116.015 103.898 116.011C103.875 115.997 103.853 115.984 103.83 115.969C103.81 115.957 103.789 115.944 103.768 115.93C103.746 115.917 103.723 115.902 103.702 115.889C103.682 115.876 103.661 115.862 103.641 115.85C103.618 115.836 103.597 115.821 103.576 115.808C103.555 115.795 103.535 115.782 103.515 115.769C103.494 115.754 103.472 115.741 103.45 115.726C103.431 115.712 103.41 115.7 103.391 115.686C103.369 115.672 103.348 115.657 103.327 115.642C103.307 115.629 103.288 115.616 103.268 115.603C103.247 115.588 103.226 115.573 103.205 115.559C103.186 115.545 103.167 115.533 103.148 115.519C103.127 115.504 103.106 115.49 103.085 115.474C103.067 115.461 103.047 115.447 103.029 115.433C103.009 115.419 102.988 115.403 102.968 115.389C102.949 115.375 102.931 115.361 102.913 115.348C102.893 115.332 102.872 115.318 102.853 115.302C102.835 115.288 102.817 115.275 102.799 115.261C102.779 115.246 102.76 115.23 102.74 115.215C102.723 115.202 102.705 115.188 102.688 115.175C102.668 115.159 102.648 115.143 102.628 115.128C102.612 115.114 102.594 115.101 102.578 115.087C102.558 115.071 102.539 115.055 102.518 115.038C102.502 115.025 102.485 115.011 102.469 114.999C102.449 114.982 102.43 114.965 102.41 114.949C102.395 114.935 102.378 114.923 102.363 114.909C102.343 114.893 102.324 114.875 102.304 114.858C102.289 114.845 102.274 114.832 102.259 114.819C102.239 114.801 102.219 114.784 102.199 114.766C102.185 114.753 102.17 114.741 102.156 114.728C102.136 114.71 102.116 114.691 102.095 114.673C102.083 114.661 102.07 114.65 102.058 114.639C102.057 114.639 102.057 114.638 102.056 114.638C102.017 114.602 101.979 114.566 101.942 114.53C101.931 114.519 101.92 114.508 101.909 114.499C101.882 114.472 101.855 114.445 101.828 114.419C101.816 114.407 101.804 114.395 101.793 114.384C101.763 114.354 101.733 114.324 101.704 114.294C101.697 114.288 101.69 114.28 101.683 114.273C101.647 114.236 101.612 114.199 101.578 114.162C101.569 114.152 101.56 114.143 101.551 114.133C101.525 114.105 101.5 114.076 101.475 114.048C101.464 114.037 101.453 114.024 101.443 114.012C101.417 113.983 101.392 113.955 101.367 113.926C101.359 113.916 101.35 113.906 101.341 113.897C101.309 113.859 101.277 113.821 101.246 113.783C101.239 113.775 101.233 113.766 101.227 113.758C101.201 113.727 101.177 113.697 101.153 113.666C101.148 113.66 101.144 113.655 101.139 113.649C101.135 113.645 101.131 113.64 101.127 113.635C101.088 113.583 101.048 113.532 101.01 113.48C101.005 113.473 100.999 113.467 100.994 113.459C100.954 113.404 100.914 113.35 100.876 113.294C100.848 113.255 100.822 113.215 100.795 113.174C100.787 113.162 100.78 113.151 100.772 113.14C100.751 113.108 100.731 113.076 100.71 113.043C100.704 113.034 100.698 113.025 100.693 113.015C100.667 112.975 100.643 112.936 100.619 112.895C100.613 112.886 100.608 112.876 100.602 112.867C100.583 112.835 100.564 112.802 100.546 112.77C100.542 112.763 100.538 112.758 100.534 112.751C100.53 112.745 100.527 112.738 100.524 112.732C100.514 112.714 100.504 112.695 100.493 112.676C100.484 112.66 100.477 112.646 100.469 112.63C100.459 112.611 100.448 112.592 100.439 112.573C100.431 112.558 100.423 112.543 100.415 112.528C100.406 112.509 100.396 112.489 100.386 112.47C100.379 112.455 100.372 112.441 100.365 112.427C100.355 112.406 100.345 112.386 100.336 112.366C100.329 112.352 100.323 112.338 100.316 112.325C100.306 112.302 100.296 112.279 100.285 112.257C100.28 112.245 100.274 112.234 100.27 112.223C100.255 112.19 100.24 112.157 100.227 112.124C100.226 112.122 100.226 112.121 100.225 112.119C100.21 112.085 100.197 112.05 100.183 112.016C100.178 112.006 100.174 111.994 100.17 111.983C100.162 111.96 100.152 111.937 100.143 111.913C100.142 111.911 100.141 111.909 100.141 111.907C100.136 111.895 100.131 111.881 100.127 111.869C100.12 111.85 100.113 111.831 100.106 111.812C100.1 111.797 100.095 111.781 100.091 111.765C100.084 111.747 100.078 111.728 100.071 111.71C100.066 111.694 100.061 111.679 100.056 111.663C100.05 111.645 100.044 111.626 100.038 111.608C100.033 111.592 100.028 111.576 100.023 111.56C100.018 111.542 100.013 111.523 100.007 111.506C100.002 111.49 99.9982 111.474 99.9933 111.458C99.9884 111.44 99.9826 111.422 99.9777 111.404C99.9738 111.387 99.969 111.371 99.9651 111.355C99.9602 111.336 99.9554 111.319 99.9515 111.3C99.9476 111.284 99.9437 111.268 99.9398 111.252C99.9359 111.233 99.931 111.216 99.9272 111.197C99.9233 111.181 99.9203 111.164 99.9165 111.148C99.9126 111.129 99.9087 111.112 99.9048 111.093C99.9038 111.087 99.9019 111.082 99.9009 111.076C99.8989 111.065 99.897 111.055 99.8951 111.045C99.8912 111.026 99.8882 111.008 99.8844 110.989C99.8814 110.973 99.8785 110.957 99.8756 110.941C99.8727 110.922 99.8688 110.904 99.8659 110.885C99.863 110.869 99.861 110.852 99.8581 110.837C99.8552 110.818 99.8523 110.8 99.8503 110.781C99.8484 110.765 99.8454 110.748 99.8435 110.731C99.8406 110.713 99.8386 110.695 99.8367 110.675C99.8347 110.659 99.8328 110.642 99.8309 110.625C99.8289 110.607 99.827 110.588 99.825 110.569C99.8231 110.553 99.8221 110.536 99.8202 110.52C99.8182 110.502 99.8172 110.482 99.8153 110.464C99.8143 110.447 99.8124 110.431 99.8114 110.414C99.8104 110.396 99.8095 110.376 99.8075 110.358C99.8065 110.341 99.8056 110.325 99.8046 110.308C99.8036 110.289 99.8027 110.27 99.8027 110.251C99.8027 110.24 99.8017 110.229 99.8017 110.218C99.8017 110.214 99.8017 110.209 99.8017 110.205C99.8007 110.164 99.7997 110.124 99.7997 110.083L99.7822 105.957Z" fill="#7B7B7B"/>
<path d="M99.7823 105.915C99.7891 104.793 100.163 103.698 100.894 102.662C101.651 101.59 102.76 100.628 104.188 99.8019C105.617 98.977 107.282 98.338 109.137 97.9032C110.928 97.483 112.819 97.27 114.756 97.27C116.695 97.27 118.583 97.483 120.369 97.9032C122.219 98.338 123.876 98.977 125.295 99.8019C126.715 100.627 127.812 101.59 128.557 102.662C129.277 103.698 129.638 104.793 129.632 105.915C129.626 107.037 129.252 108.132 128.521 109.168C127.764 110.24 126.656 111.202 125.227 112.028C123.798 112.853 122.133 113.492 120.278 113.927C118.488 114.347 116.597 114.56 114.659 114.56C112.722 114.56 110.834 114.347 109.048 113.927C107.198 113.492 105.54 112.853 104.12 112.028C102.7 111.203 101.603 110.24 100.858 109.168C100.137 108.132 99.7765 107.037 99.7823 105.915ZM123.323 110.922C128.104 108.162 128.13 103.669 123.379 100.909C118.629 98.1483 110.874 98.1483 106.092 100.909C101.31 103.669 101.285 108.162 106.036 110.922C110.786 113.683 118.541 113.683 123.323 110.922Z" fill="#AAAAAA"/>
<path d="M101.732 116.011C101.731 115.996 101.73 115.98 101.729 115.965C101.728 115.957 101.728 115.949 101.727 115.941C101.726 115.926 101.724 115.91 101.722 115.895C101.721 115.887 101.72 115.88 101.719 115.872C101.718 115.862 101.716 115.851 101.714 115.84C101.713 115.824 101.71 115.808 101.707 115.792C101.705 115.781 101.703 115.769 101.701 115.758C101.698 115.743 101.695 115.727 101.692 115.711C101.689 115.698 101.687 115.686 101.684 115.673C101.682 115.662 101.679 115.651 101.678 115.642C101.675 115.628 101.671 115.614 101.667 115.6C101.664 115.589 101.662 115.579 101.659 115.569C101.657 115.561 101.654 115.552 101.652 115.544C101.642 115.51 101.632 115.475 101.621 115.441C101.62 115.438 101.619 115.436 101.618 115.433C101.607 115.399 101.595 115.366 101.582 115.332C101.579 115.324 101.575 115.316 101.572 115.307C101.562 115.279 101.55 115.251 101.538 115.223C101.536 115.218 101.535 115.214 101.533 115.209C101.519 115.178 101.504 115.147 101.49 115.116C101.486 115.108 101.482 115.1 101.478 115.091C101.466 115.067 101.454 115.043 101.441 115.018C101.437 115.01 101.433 115.004 101.429 114.996C101.413 114.966 101.396 114.936 101.379 114.905C101.376 114.9 101.372 114.895 101.369 114.889C101.354 114.863 101.338 114.837 101.322 114.812C101.318 114.804 101.313 114.797 101.309 114.79C101.289 114.759 101.269 114.728 101.248 114.698C101.245 114.693 101.241 114.69 101.238 114.685C101.215 114.654 101.193 114.623 101.17 114.593C101.167 114.589 101.164 114.585 101.161 114.582C101.132 114.545 101.103 114.508 101.072 114.473C101.068 114.468 101.064 114.464 101.06 114.459C101.04 114.437 101.02 114.414 101.001 114.393C100.98 114.371 100.96 114.35 100.939 114.33C100.927 114.317 100.913 114.304 100.9 114.292C100.896 114.288 100.893 114.284 100.889 114.28C100.871 114.263 100.854 114.248 100.835 114.231C100.83 114.227 100.825 114.224 100.822 114.22C100.808 114.208 100.794 114.196 100.781 114.186C100.774 114.18 100.767 114.175 100.761 114.17C100.75 114.16 100.737 114.152 100.725 114.142C100.718 114.136 100.711 114.131 100.704 114.126C100.692 114.118 100.68 114.109 100.668 114.1C100.661 114.095 100.653 114.09 100.646 114.085C100.634 114.077 100.62 114.068 100.608 114.059C100.602 114.055 100.595 114.051 100.589 114.048C100.57 114.036 100.55 114.023 100.532 114.013C100.506 113.998 100.481 113.984 100.456 113.972C100.448 113.968 100.441 113.965 100.434 113.961C100.415 113.951 100.397 113.943 100.377 113.935C100.37 113.932 100.363 113.929 100.357 113.926C100.339 113.919 100.322 113.912 100.304 113.907C100.299 113.905 100.294 113.903 100.29 113.902C100.267 113.894 100.246 113.887 100.224 113.881C100.212 113.877 100.198 113.874 100.185 113.872C100.18 113.871 100.175 113.869 100.169 113.868C100.15 113.864 100.132 113.86 100.114 113.858C100.112 113.858 100.112 113.858 100.11 113.857C100.094 113.855 100.078 113.853 100.064 113.851C100.058 113.85 100.053 113.85 100.047 113.85C100.036 113.849 100.024 113.848 100.013 113.848C100.008 113.848 100.003 113.848 99.9977 113.848C99.9861 113.848 99.9734 113.848 99.9617 113.849C99.9578 113.849 99.954 113.849 99.9501 113.849C99.9345 113.85 99.9199 113.851 99.9053 113.853C99.9024 113.853 99.8985 113.854 99.8956 113.854C99.8859 113.855 99.8752 113.857 99.8654 113.859C99.845 113.863 99.8246 113.867 99.8051 113.872C99.8042 113.872 99.8042 113.872 99.8032 113.873C99.7847 113.879 99.7662 113.886 99.7477 113.893C99.7429 113.895 99.737 113.897 99.7322 113.9C99.7166 113.907 99.702 113.913 99.6874 113.921C99.6826 113.924 99.6777 113.926 99.6729 113.929L102.602 112.227C102.603 112.226 102.606 112.224 102.608 112.223C102.611 112.222 102.613 112.22 102.616 112.219C102.631 112.211 102.645 112.203 102.661 112.198C102.664 112.197 102.667 112.195 102.67 112.194C102.672 112.193 102.674 112.192 102.676 112.191C102.694 112.184 102.712 112.177 102.732 112.171C102.733 112.171 102.733 112.171 102.734 112.17C102.753 112.164 102.774 112.161 102.794 112.157C102.796 112.157 102.799 112.156 102.801 112.155C102.809 112.154 102.816 112.153 102.823 112.152C102.826 112.152 102.83 112.151 102.833 112.151C102.847 112.149 102.86 112.148 102.874 112.147C102.876 112.147 102.877 112.147 102.879 112.147C102.883 112.147 102.887 112.147 102.89 112.147C102.902 112.146 102.915 112.146 102.926 112.146C102.931 112.146 102.937 112.146 102.942 112.146C102.946 112.146 102.95 112.146 102.955 112.146C102.962 112.146 102.969 112.147 102.977 112.148C102.983 112.148 102.988 112.149 102.994 112.149C103.009 112.15 103.025 112.152 103.04 112.155C103.042 112.155 103.043 112.155 103.045 112.156C103.045 112.156 103.045 112.156 103.046 112.156C103.064 112.159 103.082 112.162 103.101 112.165C103.105 112.166 103.111 112.168 103.117 112.169C103.129 112.172 103.141 112.175 103.153 112.178C103.154 112.178 103.155 112.179 103.156 112.179C103.177 112.185 103.199 112.192 103.221 112.199C103.226 112.201 103.231 112.203 103.236 112.204C103.253 112.21 103.271 112.217 103.288 112.224C103.291 112.225 103.293 112.226 103.296 112.227C103.301 112.229 103.305 112.231 103.31 112.233C103.328 112.24 103.348 112.249 103.367 112.259C103.374 112.263 103.382 112.266 103.388 112.27C103.414 112.282 103.439 112.296 103.464 112.31C103.484 112.322 103.503 112.334 103.522 112.345C103.528 112.349 103.534 112.353 103.54 112.357C103.553 112.366 103.566 112.374 103.579 112.383C103.586 112.388 103.594 112.393 103.6 112.398C103.612 112.407 103.625 112.415 103.636 112.424C103.643 112.429 103.651 112.435 103.658 112.441C103.67 112.449 103.681 112.459 103.694 112.469C103.701 112.474 103.707 112.48 103.714 112.485C103.728 112.496 103.741 112.508 103.754 112.52C103.759 112.523 103.764 112.527 103.769 112.531C103.786 112.547 103.805 112.563 103.822 112.579C103.826 112.583 103.83 112.587 103.835 112.591C103.846 112.601 103.857 112.612 103.868 112.623C103.87 112.625 103.872 112.626 103.873 112.628C103.893 112.649 103.915 112.67 103.934 112.692C103.955 112.713 103.974 112.735 103.993 112.758C103.995 112.76 103.997 112.762 103.998 112.764C104 112.767 104.002 112.769 104.005 112.771C104.035 112.806 104.065 112.843 104.095 112.88C104.096 112.881 104.097 112.882 104.097 112.883C104.098 112.886 104.1 112.889 104.102 112.892C104.126 112.922 104.148 112.952 104.17 112.983C104.172 112.986 104.175 112.989 104.177 112.992C104.178 112.994 104.179 112.995 104.18 112.997C104.202 113.027 104.222 113.057 104.241 113.089C104.243 113.091 104.245 113.094 104.247 113.097C104.25 113.102 104.253 113.106 104.255 113.111C104.272 113.136 104.287 113.162 104.302 113.188C104.304 113.192 104.307 113.196 104.31 113.199C104.311 113.201 104.311 113.202 104.312 113.204C104.33 113.234 104.346 113.264 104.363 113.295C104.364 113.298 104.366 113.3 104.367 113.302C104.37 113.307 104.372 113.312 104.375 113.317C104.387 113.341 104.4 113.366 104.412 113.39C104.415 113.395 104.417 113.4 104.419 113.405C104.42 113.408 104.422 113.41 104.423 113.413C104.438 113.445 104.453 113.476 104.466 113.507C104.466 113.508 104.467 113.509 104.467 113.51C104.469 113.514 104.47 113.516 104.471 113.52C104.483 113.549 104.494 113.577 104.505 113.605C104.507 113.61 104.509 113.614 104.511 113.619C104.512 113.622 104.514 113.626 104.515 113.63C104.527 113.663 104.54 113.697 104.551 113.73C104.551 113.731 104.552 113.732 104.552 113.732C104.553 113.734 104.553 113.737 104.554 113.739C104.565 113.773 104.575 113.808 104.585 113.842C104.586 113.846 104.588 113.851 104.589 113.855C104.59 113.859 104.591 113.863 104.592 113.867C104.595 113.877 104.597 113.887 104.599 113.898C104.603 113.911 104.606 113.926 104.61 113.94C104.613 113.95 104.615 113.961 104.617 113.971C104.619 113.978 104.621 113.986 104.622 113.993C104.623 113.998 104.624 114.003 104.625 114.009C104.628 114.024 104.631 114.04 104.633 114.056C104.635 114.067 104.637 114.078 104.639 114.089C104.642 114.106 104.644 114.121 104.647 114.138C104.648 114.146 104.65 114.154 104.651 114.161C104.651 114.164 104.652 114.167 104.652 114.17C104.653 114.178 104.654 114.185 104.655 114.192C104.657 114.208 104.658 114.224 104.66 114.239C104.661 114.247 104.661 114.255 104.662 114.263C104.663 114.278 104.664 114.294 104.665 114.309C104.665 114.316 104.666 114.323 104.666 114.331C104.666 114.353 104.666 114.375 104.666 114.397C104.666 114.777 104.53 115.045 104.313 115.171L101.385 116.873C101.602 116.747 101.737 116.479 101.738 116.099C101.738 116.077 101.738 116.055 101.737 116.033C101.733 116.025 101.732 116.018 101.732 116.011Z" fill="url(#paint14_linear_722_44446)"/>
<path d="M86.6448 125.728C86.6438 125.702 86.6418 125.677 86.6399 125.652C86.6389 125.639 86.638 125.626 86.637 125.613C86.635 125.588 86.6321 125.562 86.6292 125.537C86.6282 125.525 86.6263 125.514 86.6253 125.501C86.6234 125.484 86.6204 125.466 86.6175 125.449C86.6136 125.422 86.6097 125.396 86.6059 125.37C86.6029 125.352 86.6 125.335 86.5961 125.316C86.5913 125.291 86.5864 125.265 86.5815 125.239C86.5776 125.219 86.5728 125.199 86.5679 125.178C86.564 125.161 86.5601 125.144 86.5563 125.127C86.5504 125.104 86.5456 125.082 86.5397 125.059C86.5358 125.043 86.531 125.025 86.5261 125.009C86.5183 124.982 86.5105 124.953 86.5028 124.926C86.4998 124.916 86.4969 124.907 86.494 124.897C86.4823 124.859 86.4707 124.822 86.458 124.784C86.4561 124.777 86.4531 124.771 86.4512 124.764C86.4405 124.734 86.4298 124.703 86.4191 124.673C86.4152 124.662 86.4104 124.65 86.4065 124.638C86.3958 124.61 86.3851 124.583 86.3744 124.555C86.3705 124.546 86.3676 124.536 86.3637 124.527C86.3491 124.492 86.3345 124.457 86.3199 124.422C86.2975 124.372 86.2742 124.321 86.2508 124.272C86.245 124.259 86.2382 124.245 86.2314 124.233C86.2119 124.193 86.1915 124.153 86.1711 124.114C86.1652 124.102 86.1584 124.09 86.1526 124.078C86.1263 124.028 86.0991 123.98 86.0709 123.931C86.066 123.922 86.0602 123.913 86.0544 123.904C86.0291 123.862 86.0038 123.82 85.9775 123.778C85.9697 123.767 85.962 123.754 85.9551 123.742C85.923 123.692 85.89 123.642 85.8559 123.594C85.8355 123.563 85.8141 123.534 85.7927 123.505C85.7908 123.502 85.7888 123.499 85.7869 123.497C85.7626 123.465 85.7382 123.432 85.7139 123.401C85.7023 123.386 85.6906 123.371 85.6779 123.356C85.6633 123.338 85.6478 123.319 85.6332 123.301C85.6206 123.286 85.6079 123.272 85.5962 123.257C85.5816 123.24 85.5671 123.222 85.5525 123.206C85.5204 123.169 85.4883 123.133 85.4552 123.098C85.4221 123.063 85.3891 123.029 85.355 122.994C85.3336 122.974 85.3132 122.954 85.2918 122.933C85.285 122.927 85.2791 122.921 85.2723 122.915C85.2441 122.888 85.215 122.862 85.1858 122.836C85.178 122.829 85.1712 122.823 85.1634 122.816C85.142 122.798 85.1196 122.779 85.0973 122.761C85.0866 122.752 85.0759 122.744 85.0652 122.735C85.0457 122.719 85.0263 122.704 85.0068 122.689C84.9951 122.68 84.9835 122.672 84.9718 122.663C84.9523 122.648 84.9329 122.635 84.9134 122.621C84.9018 122.613 84.8901 122.604 84.8784 122.597C84.857 122.582 84.8366 122.568 84.8152 122.555C84.8055 122.548 84.7948 122.541 84.785 122.535C84.7539 122.516 84.7228 122.496 84.6907 122.478C84.6605 122.461 84.6304 122.444 84.6002 122.428C84.5925 122.425 84.5847 122.421 84.5769 122.417C84.5497 122.403 84.5224 122.389 84.4962 122.377C84.4932 122.376 84.4903 122.374 84.4874 122.373C84.4573 122.359 84.4281 122.347 84.3989 122.335C84.3931 122.333 84.3872 122.33 84.3814 122.328C84.3532 122.317 84.324 122.306 84.2958 122.297C84.2929 122.296 84.289 122.295 84.2861 122.294C84.2588 122.285 84.2326 122.277 84.2053 122.269C84.2014 122.268 84.1975 122.267 84.1927 122.265C84.1703 122.259 84.1489 122.253 84.1265 122.248C84.1178 122.247 84.109 122.244 84.1003 122.242C84.0701 122.235 84.041 122.23 84.0118 122.225C84.0089 122.225 84.0069 122.224 84.004 122.224C83.9787 122.22 83.9534 122.217 83.9291 122.215C83.9203 122.214 83.9116 122.214 83.9028 122.213C83.8844 122.212 83.8649 122.211 83.8464 122.211C83.8377 122.211 83.8299 122.211 83.8211 122.211C83.8017 122.211 83.7822 122.211 83.7628 122.212C83.756 122.212 83.7501 122.211 83.7433 122.212C83.719 122.213 83.6937 122.216 83.6704 122.219C83.6655 122.22 83.6597 122.221 83.6548 122.221C83.6354 122.224 83.6159 122.227 83.5974 122.231C83.5906 122.232 83.5848 122.234 83.578 122.235C83.5556 122.24 83.5332 122.245 83.5118 122.251C83.5109 122.251 83.5099 122.252 83.5089 122.252C83.4865 122.259 83.4642 122.266 83.4428 122.275C83.4369 122.277 83.4311 122.28 83.4253 122.282C83.4078 122.288 83.3902 122.296 83.3737 122.304C83.3688 122.306 83.365 122.308 83.3601 122.31C83.3377 122.32 83.3163 122.332 83.2949 122.344L98.7622 113.355C98.7661 113.353 98.769 113.352 98.7729 113.35C98.7904 113.34 98.8088 113.33 98.8273 113.321C98.8322 113.319 98.8361 113.317 98.8409 113.316C98.8516 113.311 98.8614 113.306 98.8721 113.301C98.8789 113.298 98.8857 113.296 98.8925 113.293C98.8983 113.291 98.9042 113.288 98.91 113.286C98.9314 113.279 98.9538 113.271 98.9761 113.264H98.9771C98.9781 113.264 98.9791 113.263 98.98 113.263C99.0014 113.257 99.0238 113.251 99.0462 113.246C99.053 113.246 99.0588 113.244 99.0656 113.243C99.0724 113.242 99.0792 113.24 99.0861 113.239C99.0977 113.237 99.1104 113.235 99.123 113.234C99.1279 113.233 99.1337 113.232 99.1386 113.232C99.16 113.229 99.1824 113.227 99.2047 113.226C99.2067 113.226 99.2096 113.226 99.2115 113.226C99.2183 113.226 99.2242 113.226 99.231 113.225C99.2504 113.224 99.2699 113.224 99.2893 113.224C99.2981 113.224 99.3059 113.224 99.3146 113.224C99.3214 113.224 99.3283 113.224 99.3351 113.224C99.3467 113.225 99.3594 113.226 99.371 113.227C99.3798 113.228 99.3886 113.228 99.3973 113.229C99.4226 113.231 99.4469 113.234 99.4732 113.238C99.4761 113.238 99.478 113.239 99.481 113.239H99.4819C99.5111 113.244 99.5403 113.248 99.5695 113.255C99.5782 113.257 99.587 113.259 99.5957 113.262C99.6152 113.267 99.6346 113.271 99.6541 113.277C99.656 113.278 99.659 113.278 99.6609 113.279C99.6648 113.28 99.6687 113.281 99.6735 113.282C99.6998 113.29 99.727 113.298 99.7533 113.308C99.7562 113.309 99.7601 113.31 99.763 113.311C99.7912 113.32 99.8194 113.331 99.8486 113.342C99.8545 113.344 99.8603 113.347 99.8661 113.349C99.872 113.352 99.8788 113.353 99.8846 113.356C99.908 113.366 99.9313 113.377 99.9546 113.388C99.9576 113.388 99.9605 113.39 99.9634 113.391C99.9906 113.404 100.017 113.417 100.044 113.431C100.052 113.435 100.06 113.439 100.067 113.443C100.098 113.459 100.128 113.475 100.158 113.493C100.189 113.511 100.221 113.53 100.252 113.55C100.262 113.557 100.273 113.563 100.282 113.569C100.304 113.583 100.324 113.597 100.346 113.611C100.357 113.619 100.369 113.628 100.381 113.636C100.4 113.649 100.42 113.664 100.439 113.677C100.451 113.686 100.462 113.695 100.474 113.704C100.493 113.718 100.513 113.734 100.532 113.749C100.543 113.758 100.554 113.767 100.564 113.776C100.587 113.794 100.608 113.813 100.631 113.831C100.638 113.838 100.646 113.844 100.653 113.851C100.682 113.876 100.711 113.902 100.74 113.929C100.746 113.935 100.752 113.942 100.759 113.948C100.778 113.965 100.796 113.983 100.814 114C100.816 114.003 100.819 114.006 100.822 114.009C100.856 114.042 100.889 114.077 100.922 114.112C100.922 114.112 100.922 114.113 100.923 114.113C100.956 114.148 100.989 114.184 101.02 114.22C101.023 114.223 101.026 114.226 101.028 114.229C101.04 114.242 101.053 114.257 101.064 114.272C101.077 114.286 101.09 114.301 101.101 114.315C101.117 114.334 101.132 114.352 101.146 114.372C101.158 114.386 101.169 114.401 101.181 114.416C101.183 114.419 101.185 114.42 101.187 114.423C101.209 114.453 101.232 114.483 101.254 114.512C101.256 114.515 101.258 114.517 101.26 114.52C101.279 114.547 101.299 114.573 101.318 114.6C101.32 114.603 101.321 114.605 101.323 114.608C101.357 114.657 101.39 114.706 101.422 114.757C101.425 114.762 101.429 114.767 101.432 114.771C101.437 114.777 101.441 114.785 101.446 114.793C101.472 114.834 101.497 114.876 101.523 114.918C101.526 114.925 101.53 114.931 101.534 114.938C101.535 114.941 101.537 114.943 101.538 114.946C101.566 114.994 101.594 115.043 101.62 115.092C101.622 115.096 101.625 115.099 101.627 115.103C101.631 115.111 101.634 115.12 101.639 115.128C101.66 115.167 101.68 115.206 101.7 115.246C101.703 115.254 101.708 115.263 101.712 115.271C101.714 115.275 101.716 115.28 101.719 115.285C101.743 115.336 101.766 115.385 101.788 115.436C101.789 115.438 101.79 115.439 101.79 115.441C101.805 115.474 101.818 115.508 101.832 115.541C101.836 115.55 101.839 115.559 101.843 115.568C101.849 115.585 101.856 115.601 101.862 115.618C101.867 115.63 101.871 115.641 101.875 115.652C101.879 115.664 101.883 115.675 101.887 115.687C101.898 115.717 101.909 115.747 101.919 115.777C101.921 115.784 101.924 115.791 101.926 115.798C101.927 115.8 101.927 115.802 101.928 115.804C101.94 115.84 101.952 115.876 101.962 115.911C101.965 115.92 101.968 115.93 101.971 115.94C101.977 115.961 101.984 115.983 101.989 116.003C101.991 116.01 101.992 116.016 101.994 116.021C101.999 116.038 102.003 116.056 102.008 116.072C102.014 116.094 102.02 116.117 102.024 116.14C102.028 116.158 102.032 116.174 102.036 116.192C102.039 116.204 102.042 116.216 102.045 116.229C102.047 116.237 102.048 116.245 102.05 116.254C102.055 116.279 102.059 116.306 102.064 116.331C102.067 116.348 102.071 116.366 102.074 116.384C102.079 116.411 102.082 116.437 102.086 116.464C102.088 116.477 102.09 116.489 102.092 116.501C102.093 116.506 102.093 116.511 102.094 116.517C102.095 116.528 102.096 116.541 102.097 116.553C102.1 116.578 102.103 116.603 102.105 116.628C102.106 116.641 102.107 116.655 102.108 116.667C102.11 116.693 102.112 116.718 102.113 116.743C102.114 116.755 102.114 116.766 102.115 116.777C102.116 116.813 102.117 116.849 102.117 116.885C102.116 117.079 102.094 117.254 102.055 117.409C102.038 117.472 102.02 117.531 101.997 117.587C101.987 117.616 101.975 117.643 101.962 117.669C101.913 117.775 101.852 117.868 101.782 117.947C101.747 117.987 101.709 118.023 101.67 118.056C101.631 118.089 101.589 118.119 101.545 118.144L86.0777 127.132C86.4308 126.927 86.6496 126.492 86.6516 125.874C86.6516 125.838 86.6506 125.802 86.6496 125.766C86.6467 125.75 86.6457 125.739 86.6448 125.728Z" fill="url(#paint15_linear_722_44446)"/>
<path d="M86.082 127.127C86.8474 126.682 86.8451 125.25 86.0769 123.928C85.3087 122.607 84.0654 121.896 83.3 122.341C82.5346 122.785 82.5368 124.218 83.3051 125.539C84.0733 126.861 85.3166 127.572 86.082 127.127Z" fill="#828282"/>
<ellipse opacity="0.3" cx="114.626" cy="107.02" rx="11.9516" ry="5.97582" fill="#7FC7F0"/>
<path d="M110.225 107.649L113.684 106.077" stroke="white" stroke-linecap="round"/>
<path d="M114.628 110.165L118.088 108.592" stroke="white" stroke-linecap="round"/>
<path d="M110.853 109.851L117.143 106.706" stroke="white" stroke-linecap="round"/>
<path d="M69.105 133.416C69.105 135.284 66.1222 136.799 62.4397 136.799C58.7573 136.799 54.0322 134.522 54.0322 132.651C54.0322 130.78 57.0151 129.268 60.6975 129.268C64.3843 129.272 69.105 131.549 69.105 133.416Z" fill="#E1E1E1"/>
<path d="M68.5601 106.63L68.316 105.707C68.316 105.707 68.1868 104.54 68.2263 104.49C68.2657 104.44 68.736 103.833 68.8149 103.675C68.8939 103.517 68.9513 103.657 68.9621 103.873C68.9729 104.088 68.7072 104.58 68.7072 104.58L68.8544 105.316C68.8544 105.316 69.3462 105.111 69.4826 105.061C69.6189 105.011 69.8953 104.648 69.9923 104.609C70.0892 104.569 70.1968 104.049 70.1968 104.049C70.1968 104.049 69.9025 103.941 69.7841 103.851C69.6656 103.762 69.5184 103.686 69.5184 103.557C69.5184 103.428 69.4395 103.194 69.5687 103.234C69.6979 103.273 69.7948 103.431 70.021 103.439C70.2471 103.449 70.5594 103.428 70.6204 103.586C70.6778 103.744 70.6778 104.587 70.6778 104.587C70.6778 104.587 70.904 103.686 71.0906 103.783C71.2773 103.88 71.3347 103.998 71.3347 104.361C71.3347 104.724 71.1696 104.95 71.227 105.086C71.2844 105.222 71.4316 105.251 71.3239 105.506C71.2162 105.761 71.1768 105.782 71.1947 105.858C71.2127 105.937 71.2234 105.965 71.0081 106.21C70.7927 106.454 70.7137 106.554 70.4589 106.748C70.204 106.945 69.6871 107.444 69.6871 107.444L68.5601 106.63Z" fill="#FBBAB6"/>
<path d="M57.3659 129.279C57.3659 129.279 55.7973 130.456 55.3666 130.768C54.9359 131.08 53.4822 131.77 54.2682 132.653C54.7672 133.213 56.5834 132.965 56.8957 132.34C57.208 131.712 57.7966 131.536 58.3458 131.378C58.895 131.22 59.2468 130.948 59.4047 130.75C59.5626 130.553 59.1283 128.966 59.1283 128.966L57.3659 129.279Z" fill="#F6FFFF"/>
<path d="M57.4856 128.55C57.4856 128.55 56.3083 130 55.3679 130.474C54.8905 130.711 53.7203 131.848 54.2695 132.358C54.8187 132.868 56.5847 132.67 56.897 132.046C57.2093 131.418 57.7979 131.066 58.3471 130.908C58.8963 130.75 59.248 130.477 59.406 130.28C59.5639 130.082 59.1296 128.672 59.1296 128.672L57.4856 128.55Z" fill="#212121"/>
<path d="M55.3673 113.524C55.3673 113.524 55.055 118.036 55.5252 120.114C55.9954 122.192 56.3508 123.567 56.5051 124.274C56.663 124.981 56.8569 129.296 56.8569 129.296C56.8569 129.296 57.9552 129.806 58.5439 129.572C59.1326 129.335 59.4843 128.984 59.4843 128.984C59.4843 128.984 59.4448 126.435 59.5633 125.491C59.6817 124.551 59.0536 122.745 59.0536 122.745L58.6623 115.017L55.3673 113.524Z" fill="#6C6C6C"/>
<path d="M63.5653 133.181C63.5653 133.181 63.2889 134.397 62.8581 134.828C62.4274 135.259 61.6808 136.239 62.151 136.555C62.6212 136.867 63.4863 136.906 64.1144 136.515C64.7426 136.124 64.9759 135.298 65.2128 134.947C65.4497 134.595 65.8015 133.888 65.4892 133.299C65.1769 132.71 65.3707 132.789 65.1769 132.71C64.9795 132.631 63.5653 133.181 63.5653 133.181Z" fill="#F6FFFF"/>
<path d="M63.5653 132.828C63.5653 132.828 63.2889 134.045 62.8581 134.476C62.4274 134.906 61.6808 135.886 62.151 136.202C62.6212 136.514 63.4863 136.554 64.1144 136.163C64.7426 135.771 64.8216 134.827 65.0549 134.476C65.2918 134.124 65.8015 133.535 65.4856 132.947C65.1733 132.358 65.3671 132.437 65.1733 132.358C64.9795 132.279 63.5653 132.828 63.5653 132.828Z" fill="#212121"/>
<path d="M57.3265 117.645C57.7895 119.228 59.1319 122.667 59.875 123.726C60.6216 124.785 62.1901 127.218 62.4234 128.514C62.6603 129.81 63.1306 133.302 63.1306 133.302C63.1306 133.302 64.7781 134.009 65.1299 133.46C65.4816 132.911 65.6001 132.753 65.6001 132.753C65.6001 132.753 65.3237 127.301 64.814 126.554C64.3043 125.808 63.6331 124.422 63.4393 124.437C63.3208 124.447 62.5383 116.708 62.2224 115.492C61.9102 114.275 61.0056 113.019 61.0056 113.019L56.5332 114.196C56.544 114.192 57.0788 116.795 57.3265 117.645Z" fill="#6C6C6C"/>
<path d="M56.843 103.692C56.7245 103.692 55.3928 103.85 54.8795 104.633C54.3698 105.419 54.2514 109.536 54.2119 109.97C54.1724 110.401 54.1329 110.677 54.1329 110.677L49.1293 115.092C49.1293 115.092 48.8924 116.309 50.1882 116.27C51.4839 116.23 56.2938 112.088 56.2938 112.088C56.2938 112.088 57.2737 106.636 57.2342 106.438C57.1947 106.241 56.843 103.692 56.843 103.692Z" fill="#43DADE"/>
<path d="M46.0391 116.227L46.0283 116.449L46.5919 116.672C46.5919 116.672 46.6026 116.794 46.6349 116.826C46.6672 116.858 46.8467 116.916 46.8467 116.916L46.8898 117.149C46.8898 117.149 47.2667 117.659 47.7082 117.648C48.1497 117.637 48.7922 117.174 48.9358 117.052C49.0793 116.93 49.4239 116.022 49.4239 116.022L48.383 115.501L46.9687 116.155C46.9687 116.148 46.0283 116.162 46.0391 116.227Z" fill="#FFDCD4"/>
<path d="M52.8922 116.5L49.091 118.575L44.4463 114.778L44.4499 114.569L52.903 116.303L52.8922 116.5Z" fill="#00875D"/>
<path d="M52.9156 116.291L49.1144 118.366L44.4697 114.568L48.2709 112.494L52.9156 116.291Z" fill="#A3A3D9"/>
<path d="M44.6436 114.587L48.2617 112.613L52.7413 116.278L49.1267 118.252L44.6436 114.587Z" fill="white"/>
<path d="M46.1363 114.085L47.4931 113.295L47.3603 112.958L45.623 113.941L46.1363 114.085Z" fill="#FF4104"/>
<path d="M45.9747 116.127L45.9531 115.851C45.9531 115.851 46.251 115.574 46.3839 115.564C46.5167 115.553 46.5597 115.585 46.6387 115.553C46.7177 115.52 46.8612 115.607 46.8361 115.718C46.8146 115.829 46.6925 115.962 46.5705 115.994C46.4485 116.027 46.3946 116.095 46.3946 116.095V116.35C46.3946 116.35 46.1398 116.561 46.0285 116.45C45.9172 116.339 45.9747 116.127 45.9747 116.127Z" fill="#FFDCD4"/>
<path d="M46.1576 116.307L46.1289 115.976C46.1289 115.976 46.5022 115.646 46.6673 115.632C46.8324 115.617 46.8863 115.657 46.9832 115.617C47.0801 115.578 47.2596 115.682 47.2309 115.815C47.2021 115.948 47.0514 116.106 46.9006 116.145C46.7499 116.184 46.6817 116.263 46.6817 116.263V116.572C46.6817 116.572 46.3658 116.823 46.2258 116.691C46.0894 116.558 46.1576 116.307 46.1576 116.307Z" fill="#FFDCD4"/>
<path d="M46.4223 116.56L46.3936 116.23C46.3936 116.23 46.7669 115.899 46.932 115.885C47.0971 115.871 47.1509 115.91 47.2478 115.871C47.3448 115.831 47.5242 115.935 47.4955 116.068C47.4668 116.201 47.316 116.359 47.1653 116.398C47.0145 116.438 46.9463 116.517 46.9463 116.517V116.822C46.9463 116.822 46.6305 117.073 46.4905 116.94C46.3541 116.811 46.4223 116.56 46.4223 116.56Z" fill="#FFDCD4"/>
<path d="M46.7833 116.791L46.7617 116.518C46.7617 116.518 47.0525 116.245 47.1781 116.234C47.3073 116.224 47.3504 116.256 47.4258 116.224C47.5011 116.191 47.6411 116.278 47.6196 116.389C47.5981 116.496 47.4796 116.629 47.3612 116.662C47.2427 116.694 47.1889 116.758 47.1889 116.758V117.01C47.1889 117.01 46.9412 117.218 46.8335 117.107C46.7294 116.999 46.7833 116.791 46.7833 116.791Z" fill="#FFDCD4"/>
<path d="M58.1385 103.183C58.1385 103.183 56.2146 103.772 56.1392 104.009C56.0602 104.246 54.9619 106.306 55.6044 108.507C56.1535 110.391 55.3675 111.723 55.2526 112.311C55.1342 112.9 54.8506 122.311 54.8506 122.311C54.8506 122.311 57.3991 124.311 59.9117 124.311C62.4243 124.311 64.158 123.116 64.158 123.116C64.158 123.116 62.3525 112.703 63.6303 109.422C64.1005 108.216 64.2979 104.282 63.8672 103.891C63.4365 103.499 59.944 103.104 59.944 103.104L58.1385 103.183Z" fill="#17C4C9"/>
<path d="M62.3837 106.374C62.0894 110.448 65.5927 111.776 66.1419 111.697C66.691 111.618 67.5166 111.188 67.3587 110.48C67.2007 109.773 65.5532 107.027 65.5137 106.597C65.4742 106.166 64.8066 104.084 63.8662 103.89C62.9221 103.693 62.4412 105.588 62.3837 106.374Z" fill="#43DADE"/>
<path d="M65.6351 109.303C65.9187 108.93 66.6151 108.754 67.2037 108.284C67.5986 107.968 68.0257 107.318 68.3021 106.923C68.4385 106.729 68.5354 106.597 68.5749 106.597C68.6933 106.597 69.7127 107.146 69.7522 107.498C69.7917 107.849 67.8283 110.52 67.0853 111.184C66.3387 111.855 64.3358 111.008 65.6351 109.303Z" fill="#43DADE"/>
<path d="M57.9039 101.163C57.9039 101.163 57.9218 102.771 57.746 103.575C57.5701 104.379 58.3705 107.257 58.3705 107.257L60.7036 103.244L60.3375 102.261L57.9039 101.163Z" fill="#009FA4"/>
<path d="M57.9017 101.163C57.9017 101.163 57.9196 102.771 57.7438 103.575C57.5679 104.379 58.4365 104.906 59.0575 104.888C60.2671 104.853 60.7014 103.244 60.7014 103.244L60.3353 102.261L57.9017 101.163Z" fill="#FCC8C4"/>
<path d="M60.6172 100.319L61.0479 100.369C61.0479 100.369 61.1664 99.4177 61.0084 98.7322C60.8505 98.0466 59.7808 97.3502 58.9589 97.4974C58.1369 97.6446 57.6739 98.244 57.4477 98.9798C57.2216 99.7157 57.5375 100.423 57.5949 100.52C57.6523 100.617 59.0845 100.922 59.0845 100.922L60.6172 100.319Z" fill="#035763"/>
<path d="M60.9043 100.524C60.9043 100.524 61.1412 99.6801 61.2776 99.7878C61.414 99.8955 61.2094 100.75 61.1591 100.868C61.1089 100.987 60.9222 101.27 60.9222 101.27L60.9043 100.524Z" fill="#FCC8C4"/>
<path d="M60.6822 98.8573C60.7432 98.8035 60.8401 98.8286 60.8617 98.9076C60.9227 99.1337 61.016 99.5357 61.0232 99.9055C61.034 100.455 61.1309 100.954 61.034 101.23C60.937 101.506 60.7791 102.278 60.6499 102.447C60.5207 102.612 60.2084 103.154 59.8566 103.211C59.5049 103.269 58.7583 102.752 58.5429 102.526C58.3275 102.3 57.904 101.632 57.8178 101.535C57.7281 101.438 57.7784 101.269 57.7784 101.269C57.7784 101.269 57.6132 101.309 57.5522 101.309C57.4948 101.309 57.0928 100.692 57.0928 100.329C57.0928 99.9665 57.0928 99.8373 57.2292 99.8875C57.3656 99.9378 57.7496 100.211 57.7496 100.211C57.7496 100.211 57.8286 100.555 57.965 100.487C58.1014 100.419 58.2593 99.9485 58.2988 99.6937C58.3383 99.4388 58.446 98.8322 58.7906 98.8215C59.1352 98.8107 59.8207 99.3312 60.2012 99.1732C60.413 99.0835 60.5781 98.9543 60.6822 98.8573Z" fill="#FFDAD2"/>
<path d="M57.8087 103.093C57.8087 103.093 57.2954 103.226 57.1626 103.549C57.0298 103.872 56.6924 104.798 56.6924 104.798L57.3241 104.561L56.8683 105.43C56.8683 105.43 57.5287 106.09 57.6938 106.313C57.8554 106.532 58.3543 107.239 58.3543 107.239C58.3543 107.239 57.9882 105.667 57.8697 104.766C57.7297 103.725 57.8087 103.093 57.8087 103.093Z" fill="#43DADE"/>
<path d="M58.6495 106.463C58.5023 106.901 58.2187 107.619 58.1003 108.064C57.9818 108.509 57.867 108.958 57.8203 109.414C57.7737 109.87 57.7449 110.333 57.7198 110.792C57.7198 110.792 57.5906 113.093 57.5511 113.552C57.5403 113.667 57.5296 113.782 57.5152 113.897C57.5009 114.012 57.4793 114.127 57.465 114.238C57.4363 114.468 57.2783 123.714 57.2783 123.714C57.2783 123.714 57.2927 115.38 57.3393 114.92C57.3609 114.69 57.386 114.461 57.4147 114.231C57.4291 114.116 57.447 114.001 57.4614 113.89C57.4757 113.775 57.4865 113.66 57.4937 113.549C57.5296 113.089 57.5547 112.63 57.5798 112.171C57.5798 112.171 57.6911 110.329 57.7055 110.099C57.7234 109.87 57.7414 109.64 57.7701 109.41C57.8239 108.951 57.9388 108.502 58.068 108.057C58.1972 107.612 58.4915 106.894 58.6495 106.463Z" fill="#26C89B"/>
<path d="M60.5757 102.828C60.5757 102.828 60.7121 103.392 60.2418 103.98C59.7716 104.569 59.1614 105.359 58.9281 105.768C58.6912 106.181 58.3682 107.268 58.3682 107.268L60.4859 105.416L60.31 105.032L61.3115 104.695C61.3115 104.695 61.2828 103.621 61.1213 103.313C61.0351 103.155 60.5757 102.828 60.5757 102.828Z" fill="#43DADE"/>
<path d="M69.5238 104.35C69.5238 104.397 69.5131 104.44 69.4951 104.479C69.4485 104.573 69.3516 104.637 69.2403 104.637C69.0823 104.637 68.9531 104.508 68.9531 104.35V101.805L69.5274 101.82V104.35H69.5238Z" fill="#93BED8"/>
<path d="M69.498 104.336C69.498 104.382 69.4657 104.483 69.4549 104.483C69.297 104.483 69.2682 104.361 69.2682 104.203C69.2682 104.203 69.2682 104.196 69.2682 104.185C69.2682 104.185 69.2646 102.196 69.2646 101.823L69.5015 101.819V104.336H69.498Z" fill="#B8D9F1"/>
<path d="M69.5238 101.815C69.5238 101.905 69.3946 101.981 69.2367 101.981C69.0788 101.981 68.9531 101.905 68.9531 101.815V101.489H69.5238V101.815Z" fill="#0091E0"/>
<path d="M69.5238 101.493C69.5238 101.583 69.3946 101.658 69.2367 101.658C69.0788 101.658 68.9531 101.583 68.9531 101.493C68.9531 101.404 69.0823 101.328 69.2367 101.328C69.391 101.328 69.5238 101.4 69.5238 101.493Z" fill="#0091E0"/>
<path d="M69.0274 101.999V104.303C69.0274 104.303 69.0059 104.404 69.0633 104.404C69.1171 104.404 69.1064 104.293 69.1064 104.293V102.021C69.1064 102.017 69.0705 102.024 69.0274 101.999Z" fill="white"/>
<path d="M70.4434 104.838C70.4434 104.838 70.8562 104.719 71.0895 104.454C71.3264 104.188 71.3264 104.07 71.2941 104.009C71.2654 103.944 71.2008 103.739 70.9998 103.779C70.7988 103.818 70.6121 104.378 70.4506 104.518C70.2891 104.662 70.1276 104.852 70.4434 104.838Z" fill="#FFDDD6"/>
<path d="M71.2038 105.071C71.1822 105.057 70.6295 104.881 70.6043 104.935C70.5792 104.989 69.9582 105.595 70.0372 105.728C70.1162 105.861 70.3064 105.764 70.4033 105.692C70.5002 105.624 70.6223 105.409 70.8843 105.455C71.1428 105.506 71.2217 105.674 71.3115 105.592C71.3976 105.509 71.5412 105.29 71.2038 105.071Z" fill="#FFDDD6"/>
<path d="M71.0768 105.746C71.0768 105.746 70.6496 105.588 70.6066 105.574C70.5635 105.56 70.1938 105.775 70.0466 105.825C69.8994 105.875 69.8635 105.972 70.0071 106.037C70.1507 106.102 70.5671 105.947 70.6101 105.987C70.6532 106.026 70.847 106.281 71.0157 106.267C71.188 106.249 71.3101 105.911 71.0768 105.746Z" fill="#FFDDD6"/>
<g clip-path="url(#clip0_722_44446)">
<path d="M59.9954 109.775H59.9945C59.7544 109.776 59.5593 109.967 59.5596 110.203C59.5601 110.437 59.7555 110.628 59.9953 110.628C60.2361 110.628 60.4319 110.436 60.4315 110.201C60.4311 109.966 60.2354 109.775 59.9954 109.775Z" fill="white"/>
<path d="M57.9288 111.102C57.9288 111.198 57.8492 111.276 57.7511 111.276C57.6529 111.276 57.5732 111.198 57.5732 111.102C57.5732 111.006 57.6529 110.928 57.7511 110.928C57.8492 110.928 57.9288 111.006 57.9288 111.102Z" fill="white"/>
<path d="M57.9288 109.313C57.9288 109.409 57.8492 109.487 57.7511 109.487C57.6529 109.487 57.5732 109.409 57.5732 109.313C57.5732 109.217 57.6529 109.14 57.7511 109.14C57.8492 109.14 57.9288 109.217 57.9288 109.313Z" fill="white"/>
<path d="M57.5244 110.202C57.5244 110.28 57.4593 110.344 57.379 110.344C57.2986 110.344 57.2334 110.28 57.2334 110.202C57.2334 110.123 57.2986 110.06 57.379 110.06C57.4593 110.06 57.5244 110.123 57.5244 110.202Z" fill="white"/>
<path d="M59.6196 110.778H59.6188C59.4362 110.778 59.2878 110.924 59.2881 111.103C59.2884 111.281 59.4371 111.426 59.6195 111.426C59.8027 111.426 59.9515 111.28 59.9512 111.102C59.951 110.923 59.8021 110.778 59.6196 110.778Z" fill="white"/>
<path d="M59.6196 108.989H59.6188C59.4362 108.989 59.2878 109.135 59.2881 109.314C59.2884 109.492 59.4371 109.637 59.6195 109.637C59.8027 109.637 59.9515 109.491 59.9512 109.312C59.951 109.134 59.8021 108.989 59.6196 108.989Z" fill="white"/>
<path d="M58.6896 111.246H58.6891C58.5534 111.246 58.4432 111.354 58.4434 111.487C58.4436 111.619 58.5541 111.727 58.6895 111.727C58.8254 111.727 58.9361 111.619 58.9359 111.486C58.9356 111.353 58.8251 111.246 58.6896 111.246Z" fill="white"/>
<path d="M58.6896 108.688H58.6891C58.5534 108.688 58.4432 108.796 58.4434 108.929C58.4436 109.061 58.5541 109.169 58.6895 109.169C58.8254 109.169 58.9361 109.061 58.9359 108.928C58.9356 108.795 58.8251 108.688 58.6896 108.688Z" fill="white"/>
</g>
<defs>
<linearGradient id="paint0_linear_722_44446" x1="67.9519" y1="80.5406" x2="91.9388" y2="80.5406" gradientUnits="userSpaceOnUse">
<stop stop-color="#00B9BF"/>
<stop offset="0.2323" stop-color="#02D2D9"/>
<stop offset="0.3436" stop-color="#00E7EF"/>
<stop offset="0.557292" stop-color="#00CCD2"/>
<stop offset="0.692708" stop-color="#00B9BF"/>
<stop offset="1" stop-color="#009EA4"/>
</linearGradient>
<linearGradient id="paint1_linear_722_44446" x1="77.1067" y1="41.9428" x2="107.993" y2="44.9405" gradientUnits="userSpaceOnUse">
<stop stop-color="#25054D"/>
<stop offset="1" stop-color="#45108A"/>
</linearGradient>
<linearGradient id="paint2_linear_722_44446" x1="82.3883" y1="67.0337" x2="99.6909" y2="61.8526" gradientUnits="userSpaceOnUse">
<stop stop-color="#008F93"/>
<stop offset="1" stop-color="#45108A"/>
</linearGradient>
<linearGradient id="paint3_linear_722_44446" x1="98.2694" y1="12.067" x2="103.625" y2="20.9675" gradientUnits="userSpaceOnUse">
<stop stop-color="#008286"/>
<stop offset="0.2323" stop-color="#17C4C9"/>
<stop offset="0.3436" stop-color="#019DA2"/>
<stop offset="1" stop-color="#008286"/>
</linearGradient>
<linearGradient id="paint4_linear_722_44446" x1="81.8152" y1="21.6044" x2="87.1713" y2="30.5047" gradientUnits="userSpaceOnUse">
<stop stop-color="#019FA4"/>
<stop offset="0.2323" stop-color="#17C4C9"/>
<stop offset="1" stop-color="#008286"/>
</linearGradient>
<linearGradient id="paint5_linear_722_44446" x1="70.2634" y1="29.9486" x2="73.8896" y2="34.5213" gradientUnits="userSpaceOnUse">
<stop stop-color="#ECECEC"/>
<stop offset="1" stop-color="#C2C2C2"/>
</linearGradient>
<linearGradient id="paint6_linear_722_44446" x1="48.0753" y1="43.5903" x2="65.0574" y2="39.5851" gradientUnits="userSpaceOnUse">
<stop stop-color="#E0F8F8"/>
<stop offset="1" stop-color="#B8E9EA"/>
</linearGradient>
<linearGradient id="paint7_linear_722_44446" x1="99.1675" y1="19.8739" x2="96.394" y2="24.482" gradientUnits="userSpaceOnUse">
<stop offset="0.0253" stop-color="#008286"/>
<stop offset="0.2677" stop-color="#17C4C9"/>
<stop offset="0.554" stop-color="#019DA2"/>
<stop offset="0.7525" stop-color="#008286"/>
</linearGradient>
<linearGradient id="paint8_linear_722_44446" x1="103.144" y1="23.2601" x2="94.1175" y2="21.2366" gradientUnits="userSpaceOnUse">
<stop offset="0.096" stop-color="#008286"/>
<stop offset="1" stop-color="#17C4C9"/>
</linearGradient>
<linearGradient id="paint9_linear_722_44446" x1="85.5272" y1="66.6984" x2="82.7536" y2="71.3063" gradientUnits="userSpaceOnUse">
<stop offset="0.0253" stop-color="#00B9BF"/>
<stop offset="0.2677" stop-color="#7FEDF0"/>
<stop offset="0.554" stop-color="#00B9BF"/>
<stop offset="0.7525" stop-color="#009EA4"/>
</linearGradient>
<linearGradient id="paint10_linear_722_44446" x1="48.6722" y1="48.8203" x2="52.4699" y2="48.8203" gradientUnits="userSpaceOnUse">
<stop offset="0.0101" stop-color="#2FD9DE"/>
<stop offset="0.166667" stop-color="#64DBDE"/>
<stop offset="0.296875" stop-color="#B2F0F2"/>
<stop offset="1" stop-color="#41CCD1"/>
</linearGradient>
<linearGradient id="paint11_linear_722_44446" x1="52.8488" y1="44.492" x2="49.7923" y2="47.7697" gradientUnits="userSpaceOnUse">
<stop stop-color="#25054D"/>
<stop offset="1" stop-color="#45108A"/>
</linearGradient>
<linearGradient id="paint12_linear_722_44446" x1="47.9663" y1="46.2443" x2="53.1637" y2="46.2443" gradientUnits="userSpaceOnUse">
<stop offset="0.0104167" stop-color="#04C8CE"/>
<stop offset="0.296875" stop-color="#9AF7FA"/>
<stop offset="0.645833" stop-color="#10A7AB"/>
<stop offset="1" stop-color="#019FA4"/>
</linearGradient>
<linearGradient id="paint13_linear_722_44446" x1="53.6821" y1="40.3213" x2="49.4988" y2="44.8067" gradientUnits="userSpaceOnUse">
<stop stop-color="#17C4C9"/>
<stop offset="1" stop-color="#E6F8F9"/>
</linearGradient>
<linearGradient id="paint14_linear_722_44446" x1="101.582" y1="112.866" x2="103.315" y2="115.85" gradientUnits="userSpaceOnUse">
<stop stop-color="#BEBEBE"/>
<stop offset="0.3304" stop-color="#A5A5A5"/>
<stop offset="0.7865" stop-color="#6F6F6F"/>
</linearGradient>
<linearGradient id="paint15_linear_722_44446" x1="91.64" y1="117.565" x2="94.3703" y2="121.935" gradientUnits="userSpaceOnUse">
<stop stop-color="#D9D9D9"/>
<stop offset="0.514" stop-color="#B4B4B4"/>
<stop offset="1" stop-color="#757575"/>
</linearGradient>
<clipPath id="clip0_722_44446">
<rect width="3.19854" height="3.19855" fill="white" transform="translate(57.2334 108.607)"/>
</clipPath>
</defs>
</svg>
