<svg width="144" height="144" viewBox="0 0 144 144" fill="none" xmlns="http://www.w3.org/2000/svg">
<path d="M32.5285 71.9604L14.323 61.4674C13.4311 60.9427 13.536 60.0508 14.5854 59.4737L30.5348 50.2398C31.5317 49.6627 33.1056 49.6102 33.9451 50.0824L52.1505 60.5755C53.0425 61.1001 52.9375 61.992 51.8882 62.5691L35.9387 71.803C34.9419 72.4326 33.4204 72.4851 32.5285 71.9604Z" fill="#EDEDED"/>
<path d="M45.6962 63.2525L44.542 62.9902L45.224 46.9883L45.6962 47.0407V63.2525Z" fill="#CBAF46"/>
<path d="M52.4113 23.3262V26.2642L51.362 25.7396L50.1553 23.9558L52.4113 23.3262Z" fill="#ACB95A"/>
<path d="M35.728 52.4447L45.2242 46.9883L44.5421 62.9902L35.0459 68.4466L35.728 52.4447Z" fill="#E2C65F"/>
<path d="M33.0539 51.5507L39.4547 55.2232V66.8181L34.7852 69.4938C34.3655 69.7037 33.7884 69.7561 33.4736 69.5463L17.6816 60.4173C17.5242 60.3124 17.4717 60.2074 17.4717 60.1025C17.4717 59.9451 17.5766 59.7877 17.7865 59.6828L31.7423 51.6031C32.1095 51.3933 32.6866 51.3933 33.0539 51.5507Z" fill="#FFDF68"/>
<path d="M49.056 61.048C49.056 61.2054 48.9511 61.3628 48.7412 61.4678L45.6982 63.1991V58.897L48.8462 60.7333C49.0036 60.7857 49.056 60.8906 49.056 61.048Z" fill="#E2C65F"/>
<path d="M50.5251 26.1592L49.0561 61.0487L45.6983 60.9437V47.0404L39.4549 50.6605V60.7863L17.4195 60.1043L16.0029 25.2148L50.5251 26.1592Z" fill="#FFDF68"/>
<path d="M50.3653 29.2545L44.6991 26.0017L21.0897 25.3721L16.1055 28.2577L16.2629 32.245L32.4747 41.6363C33.3666 42.161 34.8881 42.056 35.8849 41.4789L50.1555 33.2419L50.3653 29.2545Z" fill="#DDC15A"/>
<path d="M52.7793 26.106L50.7856 26.0535L33.9967 17.5542C33.1048 17.0295 31.5833 17.1344 30.5865 17.7116L17.3652 25.319L13.7451 25.2141V27.9948C13.7451 28.3095 13.955 28.6243 14.3222 28.8342L32.5277 39.3273C33.4196 39.8519 34.9411 39.747 35.9379 39.1699L38.3514 37.7533L39.1908 35.9695L51.8874 28.6243C52.4645 28.3095 52.7268 27.8898 52.7268 27.4701V26.106H52.7793Z" fill="#FEE14B"/>
<path d="M32.5285 36.6001L14.323 26.107C13.4311 25.5824 13.536 24.6905 14.5854 24.1133L30.5348 14.8794C31.5317 14.3023 33.1056 14.2499 33.9451 14.722L52.1505 25.2151C53.0425 25.7398 52.9375 26.6317 51.8882 27.2088L35.9387 36.4427C34.9419 37.0198 33.4204 37.1247 32.5285 36.6001Z" fill="#FBEB9B"/>
<path d="M33.9969 35.2365C33.6296 35.2365 33.4198 35.1841 33.3673 35.1316L16.8932 25.6354C16.6833 25.5305 16.6309 25.3206 16.6309 25.1107C16.6309 24.9533 16.6309 23.7466 16.6309 23.7466L33.9444 14.88C34.2067 14.7226 34.6265 14.6177 35.0462 14.6177C35.4134 14.6177 35.6233 14.6701 35.6758 14.7226L52.1499 24.2188C52.5171 24.4287 52.5171 24.9009 52.1499 25.1107L52.045 25.1632L35.0987 34.9742C34.8363 35.1316 34.4166 35.2365 33.9969 35.2365Z" fill="#F1D64A"/>
<path d="M33.9983 33.8715C33.631 33.8715 33.4212 33.8191 33.3687 33.7666L16.8946 24.2179C16.5273 24.0081 16.5273 23.5359 16.8946 23.326L33.9458 13.4625C34.2081 13.3051 34.6278 13.2002 35.0476 13.2002C35.4148 13.2002 35.6247 13.2527 35.6772 13.3051L52.1513 22.8014C52.5185 23.0112 52.5185 23.4834 52.1513 23.6933L35.1001 33.5567C34.8377 33.7666 34.418 33.8715 33.9983 33.8715Z" fill="#FFE997"/>
<path d="M24.9216 32.1928L21.4589 30.1992C20.6194 29.727 20.5145 28.9925 21.249 28.5203L21.5812 28.3413L28.1394 32.1188L27.8072 32.2978C27.0726 32.77 25.761 32.7175 24.9216 32.1928Z" fill="#E2C65F"/>
<path d="M34.3098 70.03V40.4592L16.3818 30.0996L17.6042 60.353L34.3098 70.03Z" fill="#212121" fill-opacity="0.13"/>
<path d="M22.1917 49.454C22.1392 49.5065 22.1392 49.6114 22.1917 49.7164C22.1917 49.7688 22.1917 49.7688 22.2442 49.7688L24.6576 51.1329L24.5526 49.1392L23.0312 48.2998L22.1917 49.454Z" fill="#F6F6F6"/>
<path d="M27.019 50.4506L28.6455 51.395C28.7504 51.4474 28.8553 51.4999 28.9603 51.4474L27.911 49.1914L26.5469 49.4537L27.019 50.4506Z" fill="#F6F6F6"/>
<path d="M24.9696 47.145L27.0682 48.8763L27.383 46.7253L26.8583 46.8302L25.914 44.7316C25.7566 44.3643 25.4418 43.9971 25.1794 43.8397L23.6055 42.9478L25.4942 47.0401L24.9696 47.145Z" fill="#F6F6F6"/>
<path d="M24.66 45.5719L23.7681 43.6307C23.7156 43.4733 23.6107 43.3684 23.5058 43.3159H23.4533L22.3516 44.8374L23.873 46.7262L24.66 45.5719Z" fill="#F6F6F6"/>
<path d="M23.6097 48.5624L23.0326 45.8866L20.9865 45.2046L21.5636 45.9391L21.039 46.6736C20.8816 46.8835 20.8815 47.2507 21.0914 47.6705L21.8784 49.5592L23.0851 47.8279L23.6097 48.5624Z" fill="#F6F6F6"/>
<path d="M26.2864 50.1896L26.234 49.4551L24.8174 50.347L26.4438 52.9703L26.3913 52.1833L27.9129 53.0752C28.2276 53.2326 28.49 53.2326 28.5949 52.9703L29.2245 51.8685L26.2864 50.1896Z" fill="#F6F6F6"/>
<path d="M47.1113 61.5204C47.1113 60.0513 48.1606 58.215 49.4723 57.4805C50.1019 57.1133 50.7314 57.0608 51.1512 57.3231L52.148 57.9527L48.6853 63.5665L47.7934 62.9894C47.3737 62.7795 47.1113 62.2549 47.1113 61.5204Z" fill="#515050"/>
<path d="M48.0557 62.0976C48.0557 63.5666 49.105 64.1962 50.4166 63.4092C51.7282 62.6747 52.7775 60.8384 52.7775 59.3694C52.7775 57.9004 51.7282 57.2708 50.4166 58.0578C49.105 58.8448 48.0557 60.6286 48.0557 62.0976Z" fill="#6B6B6B"/>
<path d="M48.7402 61.7316C48.7402 62.7809 49.4748 63.2006 50.4191 62.676C51.3635 62.1513 52.098 60.8397 52.098 59.7904C52.098 58.7411 51.3635 58.3213 50.4191 58.846C49.4748 59.3706 48.7402 60.6823 48.7402 61.7316Z" fill="#B4B4B4"/>
<path opacity="0.08" d="M6.68087 100.363C6.68087 100.363 3.34562 102.94 3.61593 104.308C4.99847 111.302 26.1727 119.438 36.128 121.08C37.1242 121.244 77.8778 106.191 102.838 90.9094C118.501 81.3195 130.668 73.0141 124.556 67.2421C124.556 65.883 92.3841 47.9914 92.3841 47.9914L6.68087 100.363Z" fill="#212121"/>
<path d="M68.1572 120.992L63.9595 118.307L57.9314 113.936C57.9314 113.936 61.5808 109.055 62.8092 109.543C64.0376 110.031 68.4658 115.173 68.4658 115.173L68.1572 120.992" fill="#424242"/>
<path d="M123.137 89.6279L118.94 86.9443L112.911 82.5726C112.911 82.5726 116.56 77.6909 117.789 78.1789C119.018 78.6673 123.445 83.8099 123.445 83.8099L123.137 89.6279Z" fill="#110F0E"/>
<path d="M108.38 81.2709C110.017 80.3257 111.513 80.1526 112.658 80.6323C114.038 81.2105 120.45 84.3912 120.45 84.3912L111.357 100.374C111.357 100.374 105.046 97.4092 103.873 96.8023C102.627 96.1567 101.851 94.6788 101.851 92.5442C101.851 88.4026 104.774 83.3549 108.38 81.2709" fill="#424242"/>
<path d="M122.168 88.4623C122.168 92.6046 119.245 97.6513 115.638 99.7356C112.032 101.82 109.108 100.152 109.108 96.0093C109.108 91.8671 112.032 86.8204 115.638 84.7363C119.245 82.6521 122.168 84.3207 122.168 88.4623Z" fill="#3B3A3D"/>
<path d="M121.945 88.8624C121.945 92.7049 119.233 97.3876 115.887 99.3215C112.541 101.255 109.828 99.7073 109.828 95.8648C109.828 92.0213 112.541 87.3387 115.887 85.4053C119.233 83.4723 121.945 85.0199 121.945 88.8624Z" fill="#838383"/>
<path d="M120.276 89.6473C120.276 92.51 118.255 95.9986 115.762 97.4389C113.27 98.8791 111.249 97.7257 111.249 94.8632C111.249 92.0005 113.27 88.5119 115.762 87.0717C118.255 85.6314 120.276 86.7842 120.276 89.6473Z" fill="#676767"/>
<path d="M119.688 89.8982C119.688 92.4657 117.876 95.5956 115.64 96.8873C113.404 98.1796 111.591 97.1448 111.591 94.5769C111.591 92.0091 113.404 88.8801 115.64 87.5879C117.876 86.2961 119.688 87.3303 119.688 89.8982" fill="#D7D7D4"/>
<path d="M119.337 90.0949C119.337 92.4465 117.677 95.3117 115.629 96.495C113.582 97.6786 111.922 96.7313 111.922 94.3796C111.922 92.0279 113.582 89.1628 115.629 87.9791C117.677 86.7964 119.337 87.7438 119.337 90.0949Z" fill="#ABADAA"/>
<path d="M118.221 90.7425C118.221 92.3836 117.063 94.3825 115.634 95.2081C114.206 96.0335 113.047 95.3721 113.047 93.7319C113.047 92.0914 114.206 90.0924 115.634 89.2669C117.063 88.441 118.221 89.1019 118.221 90.7425Z" fill="#787D7C"/>
<path d="M115.109 96.3195C117.157 95.1359 118.817 92.2707 118.817 89.919C118.817 88.7019 118.37 87.8647 117.657 87.5006C118.668 87.677 119.337 88.6007 119.337 90.0924C119.337 92.444 117.677 95.3092 115.629 96.4926C114.641 97.0629 113.747 97.1342 113.082 96.7956C113.665 96.8968 114.361 96.7519 115.109 96.3195" fill="#787D7C"/>
<path d="M115.639 87.9768C116.818 87.2962 117.866 87.3243 118.545 87.9163C117.883 87.5935 117 87.6693 116.027 88.2319C113.979 89.4156 112.319 92.2807 112.319 94.6324C112.319 95.6304 112.62 96.3726 113.121 96.8086C112.391 96.4529 111.932 95.6106 111.932 94.3773C111.932 92.0256 113.591 89.1605 115.639 87.9768" fill="#787D7C"/>
<path d="M113.796 90.7971C113.796 91.0562 113.613 91.3715 113.387 91.5026C113.161 91.6327 112.978 91.5286 112.978 91.2689C112.978 91.0101 113.161 90.6945 113.387 90.5644C113.613 90.4334 113.796 90.5383 113.796 90.7971Z" fill="#5D5E61"/>
<path d="M118.2 93.4021C118.2 93.6612 118.017 93.9765 117.791 94.1075C117.565 94.2377 117.382 94.1336 117.382 93.8739C117.382 93.6151 117.565 93.2995 117.791 93.1694C118.017 93.0383 118.2 93.1433 118.2 93.4021Z" fill="#5D5E61"/>
<path d="M119.027 91.3018C119.027 91.5606 118.844 91.8762 118.618 92.0069C118.392 92.1374 118.209 92.0324 118.209 91.7733C118.209 91.5145 118.377 91.1989 118.602 91.0688C118.828 90.9377 119.027 91.0427 119.027 91.3018Z" fill="#5D5E61"/>
<path d="M119.016 89.3137C119.016 89.5725 118.833 89.8881 118.607 90.0182C118.382 90.1493 118.198 90.0443 118.198 89.7855C118.198 89.5267 118.382 89.2111 118.607 89.0801C118.833 88.9499 119.016 89.054 119.016 89.3137Z" fill="#5D5E61"/>
<path d="M117.675 88.0712C117.675 88.3305 117.492 88.6461 117.267 88.7763C117.041 88.9068 116.858 88.8023 116.858 88.5436C116.858 88.2848 117.041 87.9683 117.267 87.8382C117.492 87.708 117.675 87.8121 117.675 88.0712Z" fill="#5D5E61"/>
<path d="M115.432 88.8226C115.432 89.0817 115.249 89.397 115.023 89.5281C114.797 89.6582 114.614 89.5535 114.614 89.2944C114.614 89.0356 114.797 88.72 115.023 88.5893C115.249 88.4588 115.432 88.5638 115.432 88.8226Z" fill="#5D5E61"/>
<path d="M113.011 93.0403C113.011 93.2991 112.828 93.6152 112.602 93.7457C112.376 93.8758 112.193 93.7717 112.193 93.513C112.193 93.2533 112.376 92.9377 112.602 92.8075C112.828 92.6773 113.011 92.7815 113.011 93.0403Z" fill="#5D5E61"/>
<path d="M113.231 95.1301C113.231 95.3892 113.048 95.7054 112.822 95.8355C112.597 95.9657 112.413 95.8616 112.413 95.6028C112.413 95.3431 112.597 95.0275 112.822 94.8974C113.048 94.7673 113.231 94.8713 113.231 95.1301Z" fill="#5D5E61"/>
<path d="M114.817 95.9817C114.817 96.2414 114.634 96.557 114.408 96.6871C114.182 96.8172 113.999 96.7131 113.999 96.4544C113.999 96.1947 114.182 95.8791 114.408 95.7489C114.634 95.6188 114.817 95.7229 114.817 95.9817Z" fill="#5D5E61"/>
<path d="M116.712 95.1301C116.712 95.3892 116.529 95.7054 116.303 95.8355C116.077 95.9657 115.894 95.8616 115.894 95.6028C115.894 95.3431 116.077 95.0275 116.303 94.8974C116.529 94.7673 116.712 94.8713 116.712 95.1301Z" fill="#5D5E61"/>
<path d="M118.493 90.8683C118.493 92.5094 117.335 94.5083 115.907 95.3339C114.479 96.1593 113.32 95.4988 113.32 93.8577C113.32 92.2172 114.479 90.2182 115.907 89.3927C117.335 88.5669 118.493 89.2277 118.493 90.8683Z" fill="#D7D7D4"/>
<path d="M118.097 91.0981C118.097 92.4862 117.116 94.1774 115.909 94.8756C114.7 95.5739 113.721 95.0143 113.721 93.627C113.721 92.2386 114.7 90.5478 115.909 89.8495C117.116 89.1512 118.097 89.71 118.097 91.0981Z" fill="#282628"/>
<path d="M117.902 91.4049C117.902 92.596 117.061 94.0488 116.024 94.6482C114.986 95.2474 114.145 94.7677 114.145 93.5757C114.145 92.3846 114.986 90.9327 116.024 90.3332C117.061 89.7332 117.902 90.2129 117.902 91.4049Z" fill="#515156"/>
<path d="M114.413 94.1621C114.413 94.1621 115.3 93.7391 116.221 93.1106C117.268 92.3947 117.793 91.5353 117.793 91.5353C117.793 91.5353 117.886 91.0272 117.618 90.5885C117.421 90.2682 117.15 90.1639 116.881 90.1639C116.391 90.1639 115.91 90.5089 115.91 90.5089C115.91 90.5089 115.197 90.8041 114.556 92.2345C114.023 93.4279 114.413 94.1621 114.413 94.1621Z" fill="url(#paint0_linear_722_44627)"/>
<path d="M52.9983 113.243C54.6341 112.297 56.1298 112.123 57.2763 112.603C58.6556 113.181 65.0674 116.362 65.0674 116.362L55.9744 132.345C55.9744 132.345 49.6629 129.38 48.4912 128.773C47.2444 128.128 46.4678 126.65 46.4678 124.515C46.4678 120.374 49.3918 115.326 52.9983 113.243Z" fill="#424242"/>
<path d="M66.7783 120.434C66.7783 124.576 63.8551 129.623 60.2486 131.707C56.6422 133.791 53.7189 132.123 53.7189 127.981C53.7189 123.839 56.6422 118.792 60.2486 116.707C63.8551 114.624 66.7783 116.292 66.7783 120.434" fill="#3B3A3D"/>
<path d="M66.5605 120.838C66.5605 124.681 63.8479 129.363 60.5018 131.297C57.1558 133.23 54.4439 131.682 54.4439 127.84C54.4439 123.996 57.1558 119.315 60.5018 117.381C63.8479 115.447 66.5605 116.995 66.5605 120.838" fill="#838383"/>
<path d="M64.8867 121.616C64.8867 124.479 62.8656 127.968 60.3736 129.408C57.8807 130.848 55.8596 129.695 55.8596 126.832C55.8596 123.97 57.8807 120.481 60.3736 119.041C62.8656 117.6 64.8867 118.753 64.8867 121.616Z" fill="#676767"/>
<path d="M64.2988 121.867C64.2988 124.435 62.4861 127.564 60.2505 128.856C58.0142 130.148 56.2022 129.114 56.2022 126.546C56.2022 123.978 58.0142 120.849 60.2505 119.556C62.4861 118.265 64.2988 119.299 64.2988 121.867" fill="#D7D7D4"/>
<path d="M63.9531 122.068C63.9531 124.42 62.2927 127.285 60.2456 128.468C58.1977 129.651 56.5381 128.704 56.5381 126.352C56.5381 124.001 58.1977 121.135 60.2456 119.952C62.2927 118.769 63.9531 119.716 63.9531 122.068Z" fill="#ABADAA"/>
<path d="M62.8379 122.716C62.8379 124.357 61.6799 126.356 60.2516 127.182C58.8233 128.007 57.6653 127.346 57.6653 125.705C57.6653 124.065 58.8233 122.066 60.2516 121.24C61.6799 120.415 62.8379 121.075 62.8379 122.716Z" fill="#787D7C"/>
<path d="M59.7256 128.292C61.7735 127.108 63.4331 124.243 63.4331 121.891C63.4331 120.674 62.9858 119.837 62.2728 119.473C63.2837 119.649 63.9531 120.573 63.9531 122.065C63.9531 124.416 62.2927 127.282 60.2456 128.465C59.2584 129.036 58.3631 129.106 57.6991 128.767C58.2819 128.869 58.9773 128.724 59.7256 128.292" fill="#787D7C"/>
<path d="M60.2516 119.948C61.4302 119.267 62.4779 119.295 63.1572 119.887C62.4955 119.565 61.6125 119.641 60.6391 120.203C58.5912 121.386 56.9316 124.251 56.9316 126.603C56.9316 127.601 57.2326 128.343 57.7334 128.78C57.0036 128.424 56.5441 127.582 56.5441 126.348C56.5441 123.996 58.2037 121.131 60.2516 119.948Z" fill="#787D7C"/>
<path d="M58.4043 122.767C58.4043 123.027 58.2213 123.342 57.9953 123.473C57.7694 123.603 57.5863 123.499 57.5863 123.24C57.5863 122.98 57.7694 122.665 57.9953 122.535C58.2213 122.404 58.4043 122.509 58.4043 122.767Z" fill="#5D5E61"/>
<path d="M62.8105 125.376C62.8105 125.636 62.6275 125.951 62.4016 126.082C62.1756 126.212 61.9926 126.108 61.9926 125.849C61.9926 125.589 62.1756 125.274 62.4016 125.143C62.6275 125.013 62.8105 125.117 62.8105 125.376Z" fill="#5D5E61"/>
<path d="M63.6396 123.273C63.6396 123.532 63.4566 123.848 63.2307 123.979C63.0055 124.109 62.8225 124.005 62.8225 123.746C62.8225 123.486 62.9894 123.171 63.2154 123.04C63.4405 122.909 63.6396 123.014 63.6396 123.273Z" fill="#5D5E61"/>
<path d="M63.6328 121.287C63.6328 121.546 63.4498 121.862 63.2246 121.993C62.9987 122.123 62.8156 122.019 62.8156 121.759C62.8156 121.5 62.9987 121.185 63.2246 121.054C63.4498 120.923 63.6328 121.028 63.6328 121.287Z" fill="#5D5E61"/>
<path d="M62.29 120.042C62.29 120.301 62.107 120.617 61.881 120.747C61.6551 120.878 61.4721 120.773 61.4721 120.514C61.4721 120.255 61.6551 119.939 61.881 119.809C62.107 119.678 62.29 119.783 62.29 120.042Z" fill="#5D5E61"/>
<path d="M60.0352 120.793C60.0352 121.052 59.8521 121.368 59.6262 121.499C59.4003 121.629 59.2172 121.525 59.2172 121.265C59.2172 121.006 59.4003 120.691 59.6262 120.56C59.8521 120.429 60.0352 120.534 60.0352 120.793Z" fill="#5D5E61"/>
<path d="M57.6211 125.01C57.6211 125.27 57.4381 125.585 57.2121 125.715C56.987 125.846 56.8039 125.741 56.8039 125.483C56.8039 125.223 56.987 124.908 57.2121 124.777C57.4381 124.647 57.6211 124.751 57.6211 125.01Z" fill="#5D5E61"/>
<path d="M57.8418 127.099C57.8418 127.359 57.6587 127.674 57.4328 127.804C57.2069 127.934 57.0238 127.83 57.0238 127.572C57.0238 127.313 57.2069 126.996 57.4328 126.866C57.6587 126.736 57.8418 126.84 57.8418 127.099Z" fill="#5D5E61"/>
<path d="M59.4326 127.952C59.4326 128.211 59.2496 128.527 59.0237 128.657C58.7985 128.788 58.6155 128.683 58.6155 128.424C58.6155 128.165 58.7985 127.849 59.0237 127.719C59.2496 127.589 59.4326 127.693 59.4326 127.952Z" fill="#5D5E61"/>
<path d="M61.3223 127.099C61.3223 127.359 61.1392 127.674 60.9133 127.804C60.6874 127.934 60.5043 127.83 60.5043 127.572C60.5043 127.313 60.6874 126.996 60.9133 126.866C61.1392 126.736 61.3223 126.84 61.3223 127.099Z" fill="#5D5E61"/>
<path d="M63.1035 122.844C63.1035 124.484 61.9455 126.483 60.5172 127.308C59.0889 128.134 57.9309 127.473 57.9309 125.832C57.9309 124.192 59.0889 122.193 60.5172 121.367C61.9455 120.542 63.1035 121.202 63.1035 122.844" fill="#D7D7D4"/>
<path d="M62.7119 123.073C62.7119 124.461 61.7324 126.152 60.5238 126.85C59.3153 127.548 58.3358 126.989 58.3358 125.601C58.3358 124.213 59.3153 122.522 60.5238 121.824C61.7324 121.125 62.7119 121.685 62.7119 123.073" fill="#282628"/>
<path d="M62.5195 123.377C62.5195 124.569 61.6786 126.021 60.6409 126.62C59.6032 127.22 58.7622 126.74 58.7622 125.548C58.7622 124.357 59.6032 122.905 60.6409 122.306C61.6786 121.706 62.5195 122.186 62.5195 123.377Z" fill="#515156"/>
<path d="M59.0186 126.136C59.0186 126.136 59.9054 125.713 60.826 125.085C61.8737 124.369 62.3983 123.509 62.3983 123.509C62.3983 123.509 62.4917 123.001 62.2237 122.562C62.0269 122.242 61.755 122.138 61.4862 122.138C60.9968 122.138 60.5158 122.482 60.5158 122.482C60.5158 122.482 59.8021 122.777 59.1618 124.208C58.628 125.402 59.0186 126.136 59.0186 126.136Z" fill="url(#paint1_linear_722_44627)"/>
<path d="M21.0827 104.187C20.9296 104.4 20.7925 104.619 20.66 104.838C20.2908 105.453 20.0335 106.059 19.8458 106.647C19.4936 106.019 19.1313 105.398 18.838 104.741C18.5968 104.201 18.3977 103.656 18.1786 103.12L18.184 103.114L18.4359 95.3971L24.1538 87.7738C24.1538 87.7738 24.1538 87.7738 24.7236 87.4274C25.2881 87.0818 26.4031 86.4549 26.4031 86.4549C26.4031 86.4549 34.2777 71.8056 35.7075 69.4938C37.1427 67.1813 38.5764 63.9566 42.49 61.2262C46.3981 58.5012 50.33 56.0262 50.33 56.0262C53.0427 54.3812 77.2675 40.419 90.1377 33.0083L90.143 33.0029L94.6945 30.3715C95.213 30.071 95.707 29.9583 96.1244 30.015L96.1903 30.025C96.5058 30.0809 96.7761 30.2335 96.9791 30.478C97.1522 30.6873 97.2847 30.9571 97.3559 31.2928L99.3287 34.0324L99.9958 48.2843L99.8786 58.5319L100.825 58.7258C100.825 58.7258 100.51 62.9233 100.285 63.952C100.255 64.0945 100.219 64.2318 100.183 64.3697C99.9391 65.2459 99.5018 66.076 98.4028 66.9314C97.1254 67.9249 91.9137 71.526 91.9137 71.526C91.9137 71.526 91.8831 70.7166 91.6288 69.6977C91.0483 67.3392 89.2929 63.8753 84.0208 66.9215C80.5499 68.9282 78.7019 72.0655 77.7201 74.8726C77.1809 76.4155 76.9006 77.8626 76.7582 78.9628C76.595 80.1955 76.6058 80.9847 76.6058 80.9847L74.0761 82.1001C74.0761 82.1001 40.6151 101.436 38.4876 102.664C36.3654 103.891 33.907 105.822 33.907 105.822C33.907 105.822 33.907 105.822 33.2866 101.726C33.2254 101.314 33.1281 100.942 33.001 100.606C31.8614 97.6512 28.2328 97.9111 23.4492 101.66C22.4819 102.419 21.7084 103.28 21.0827 104.187" fill="#8C8C8C"/>
<path d="M26.748 85.1552C28.1112 86.2607 30.2234 87.9569 32.3456 89.6226C34.9059 91.6347 37.486 93.5956 38.7888 94.4059C39.282 94.7107 39.9184 95.0727 40.6567 95.4751C42.1218 96.2746 43.9951 97.2327 45.9848 98.2208C48.8858 99.6571 52.0258 101.16 54.4888 102.321C55.4454 102.774 56.3008 103.176 57.0031 103.503L57.6794 103.101L67.3896 84.2639L57.1456 78.2996L48.7326 73.4047L43.4398 70.3234L37.3888 66.798L34.2794 72.1621L26.748 85.1552" fill="#D0D0D0"/>
<path d="M30.674 86.6284L29.3468 85.4142C29.3468 85.4142 30.7246 82.2422 32.3467 79.1884C34.4842 75.1626 36.5512 71.2986 37.4427 69.5769C37.8371 68.8173 38.2537 68.146 38.6795 67.5481L48.4756 73.202C48.2213 73.5598 47.9158 73.8704 47.5826 74.0802C46.3136 74.8776 44.1378 76.2634 42.7523 77.302C40.4425 79.033 37.2834 82.5222 37.2834 82.5222L30.674 86.6284Z" fill="white"/>
<path d="M59.8408 99.2134L58.7203 96.1551L47.6637 91.0245L43.7861 92.2632L30.6977 82.4679L26.7458 85.1546L38.8732 95.394L56.9987 103.503L57.678 103.101L59.8408 99.2134Z" fill="#A8A8A8"/>
<path d="M55.3489 94.5928L57.0537 79.1749C54.8664 78.0413 52.3866 76.7197 49.6464 75.2036C49.291 75.0066 48.9426 74.8111 48.6041 74.6186L46.7537 91.3233L47.6705 91.0305L55.3489 94.5928V94.5928ZM41.2288 90.3499L42.6648 77.3745C40.3649 79.1273 37.2885 82.5254 37.2885 82.5254L33.728 84.7375L41.2288 90.3499ZM33.81 76.4484C35.3823 73.4934 36.7623 70.9043 37.4478 69.5802C37.784 68.9326 38.1363 68.3493 38.497 67.8204C38.3821 67.7238 38.2826 67.6372 38.1976 67.5621L33.9907 74.8171L33.81 76.4484" fill="#E7E7E7"/>
<path d="M33.7215 84.7339L37.282 82.5218C37.282 82.5218 40.3584 79.1236 42.6583 77.3708L43.3223 71.3725C41.8901 70.4161 40.7375 69.5745 39.843 68.8822C39.2564 68.4445 38.8137 68.0887 38.4905 67.8168C38.1298 68.3457 37.7775 68.9289 37.4413 69.5765C36.7558 70.9006 35.3757 73.4897 33.8034 76.4447L32.9495 84.156L33.7215 84.7339" fill="white"/>
<path d="M34.1154 73.6084L37.7646 67.1582C37.5081 66.9259 37.3848 66.8018 37.3848 66.8018C37.3856 66.801 37.3863 66.7995 37.3871 66.7987L37.3848 66.7972L34.2754 72.1613L34.1154 73.6084" fill="#E5DFD3"/>
<path d="M54.566 101.631L55.3457 94.5862L47.6672 91.024L46.7505 91.3168L46.0658 97.4996C48.8283 98.8871 51.9491 100.389 54.566 101.631V101.631ZM40.7454 94.6851L41.2256 90.3434L33.7248 84.731L32.9528 84.1531L32.4627 88.5774C35.3798 90.8869 38.588 93.3604 40.0921 94.294C40.2882 94.4159 40.5072 94.5464 40.7454 94.6851" fill="#C2C2C2"/>
<path d="M37.7682 67.159L38.3196 67.3368L28.0518 85.045C31.0593 87.4817 37.71 92.8169 40.0903 94.2945C43.3972 96.3473 52.9881 100.902 57.6797 103.101L57.0004 103.503C52.6419 101.465 42.2469 96.5521 38.786 94.4035C36.4057 92.9264 30.3309 88.0575 27.3234 85.6199L37.7682 67.159" fill="#DDDDDD"/>
<path d="M36.5972 97.0644L25.938 86.5462L26.7452 85.1542C29.7535 87.5909 36.4034 92.926 38.7837 94.4031C42.2446 96.5517 52.6396 101.465 56.998 103.503L55.3859 104.338L36.5972 97.0644Z" fill="#A8A8A8"/>
<path d="M37.7681 67.1607C37.7681 67.1607 40.2066 69.7384 48.8738 74.5361C60.3548 80.8928 67.2666 83.8271 67.2666 83.8271L76.7594 78.9613L91.63 69.6962L100.185 64.3682L126.223 48.0751L126.813 47.7087L96.9803 30.4765C96.7774 30.232 96.507 30.0794 96.1915 30.0235L96.1256 30.0135C95.856 29.9775 95.5558 30.0135 95.2349 30.1201C95.0619 30.1814 94.8788 30.2626 94.6958 30.37L90.1443 33.0014L90.1389 33.0068C77.2687 40.4183 53.0439 54.3797 50.3312 56.0247C50.3312 56.0247 46.3993 58.4998 42.4912 61.2247C38.5777 63.9551 39.2033 64.8481 37.7681 67.1607" fill="#F2F2F2"/>
<path d="M42.4897 61.2221L75.1221 80.0709L68.0341 84.4868C68.0341 84.4868 61.1237 81.551 49.6397 75.1966C40.9725 70.3995 37.3868 66.8016 37.3868 66.8016C38.6589 64.7511 39.5726 63.4036 42.4897 61.2221Z" fill="#DDDDDD"/>
<path d="M45.9497 121.978L46.2499 114.755L53.1863 106.255C53.1863 106.255 53.1863 106.255 53.756 105.908C54.3213 105.556 55.4356 104.935 55.4356 104.935C55.4356 104.935 63.7719 88.472 65.2071 86.1604C66.637 83.8477 67.6142 82.4311 71.5224 79.706C75.4313 76.9759 80.9731 73.7164 80.9731 73.7164C84.1897 71.7656 116.404 53.2045 125.341 48.0596C126.618 47.3214 127.722 47.7031 128.003 48.9763L128.75 52.4149L130.639 65.9686L130.522 76.2223L130.637 76.5702C130.637 76.5702 131.153 80.613 130.929 81.6415C130.705 82.6709 130.318 83.6231 129.046 84.622C128.52 85.0304 127.33 85.8798 126.11 86.7382C125.479 86.1634 124.747 85.6682 123.98 85.3232C123.627 85.1639 123.264 85.0265 122.917 84.8525C122.898 84.8433 122.754 84.7591 122.63 84.6884C121.804 83.7351 120.592 83.3363 119.391 83.5788C118.263 83.2276 116.735 83.4153 114.664 84.6111C111.193 86.6185 109.35 89.7559 108.369 92.5575C108.261 92.8582 108.165 93.1585 108.084 93.4492C107.218 96.3375 107.254 98.67 107.254 98.67L104.719 99.7853C104.719 99.7853 71.1946 119.018 69.1306 120.353C68.5823 120.708 68.1595 121.03 68.1595 121.03L68.1541 120.989C68.1289 120.836 68.2491 119.754 67.3822 116.842C67.2627 116.442 66.6738 115.793 66.5466 115.462C65.407 112.503 58.8758 115.596 54.0923 119.35C53.1709 120.068 52.4281 120.888 51.8169 121.749C51.4715 121.882 51.1299 122.024 50.8044 122.192H50.6773C50.0309 122.192 49.3845 122.197 48.7382 122.197C48.5612 122.196 48.3461 122.206 48.1102 122.216C47.3972 122.247 46.5003 122.276 45.9344 121.993L45.9497 121.978" fill="#C2C2C2"/>
<path d="M47.9621 113.577L54.6557 108.427L57.9351 106.686L58.2154 104.544L58.2338 104.478C58.2522 104.433 60.1676 99.9134 61.7307 97.0737C62.2201 96.1853 62.9109 94.8714 63.6767 93.415C65.3586 90.2187 67.4524 86.2388 68.52 84.662C70.2195 82.1556 73.5548 79.8446 76.5937 77.9151C77.7249 77.1968 78.5543 76.6764 79.1601 76.301C79.3822 76.1635 79.631 76.0941 79.8815 76.0941C80.0929 76.0941 80.305 76.1437 80.5026 76.2441C80.933 76.4632 81.2133 76.8842 81.2485 77.3686L82.258 90.9283V92.5395C86.6547 90.4148 90.6127 88.5914 90.6127 88.5914L130.646 65.972L128.758 52.4161C128.758 52.4161 128.01 48.9805 127.973 48.8449C127.61 48.0423 127.152 47.8369 126.778 47.8369C126.387 47.8369 126.089 48.0607 126.089 48.0607L93.2288 67.0198C93.2288 67.0198 74.4255 77.8262 67.974 84.1401C61.5224 90.4532 56.1844 104.937 56.1844 104.937L53.9366 106.255L47.9621 113.577V113.577ZM58.4865 106.393L67.2364 101.745C67.2364 101.745 69.0607 100.477 70.7142 98.737C71.5681 97.8387 76.8449 95.1634 81.7494 92.7856L81.7502 90.9475L80.7416 77.4061C80.7186 77.101 80.5424 76.8366 80.2713 76.6979C80.1472 76.6351 80.014 76.6037 79.8815 76.6037C79.7245 76.6037 79.5675 76.6473 79.4274 76.7339C78.8231 77.1088 77.9952 77.6286 76.8663 78.3445C73.8718 80.247 70.5878 82.5188 68.942 84.9479C67.889 86.5017 65.8028 90.4669 64.1271 93.6525C63.3589 95.1128 62.6674 96.4281 62.1764 97.3189C60.6945 100.012 58.8894 104.237 58.7148 104.645L58.4865 106.393V106.393ZM70.4929 97.7749C69.475 98.8091 68.7421 99.6191 68.7421 99.6191L62.5333 102.691L61.2053 101.472C61.2053 101.472 62.1826 99.3439 63.8062 96.288C65.1901 93.6795 66.5441 91.143 67.5665 89.2076C68.1264 88.1527 68.5844 87.282 68.8999 86.6756C70.4776 83.6302 72.4221 81.9747 73.8619 80.9615C74.4118 80.5788 74.8851 80.2883 75.2358 80.0491C77.613 78.4394 77.9025 78.2463 79.0123 77.6193C79.1938 77.5172 79.3645 77.469 79.5154 77.469C79.9275 77.469 80.194 77.8277 80.1419 78.4241L80.6152 88.5605C80.5286 89.5486 79.8623 90.6648 79.0375 91.1789C78.6508 91.4236 78.1729 91.7287 77.6536 92.0599C76.5033 92.7988 75.1646 93.6848 74.208 94.4031C73.0125 95.299 71.5873 96.6644 70.4929 97.7749" fill="#E4E4E4"/>
<path d="M46.498 123.846C46.537 123.308 46.6213 122.76 46.7461 122.207C46.6304 122.195 46.5171 122.177 46.4091 122.154L44.8437 123.058L46.498 123.846" fill="url(#paint2_linear_722_44627)"/>
<path d="M46.6191 123.901L49.0293 122.194C48.9328 122.195 48.8363 122.195 48.7398 122.195C48.7298 122.195 48.7191 122.195 48.7092 122.195C48.5384 122.195 48.3339 122.204 48.1118 122.213C47.8905 122.223 47.65 122.233 47.408 122.233C47.1821 122.233 46.9546 122.224 46.7371 122.2C46.6122 122.753 46.528 123.301 46.489 123.839L46.6191 123.901" fill="url(#paint3_linear_722_44627)"/>
<path d="M65.6325 116.853L66.9375 116.078C66.7713 115.842 66.6105 115.617 66.5508 115.462C66.2329 114.636 65.4939 114.281 64.4906 114.281C63.7539 114.281 62.8731 114.473 61.9119 114.809C62.8509 115.269 63.724 115.699 64.3122 115.989C64.8192 116.159 65.2649 116.451 65.6325 116.853" fill="url(#paint4_linear_722_44627)"/>
<path d="M59.156 116.044L62.4408 115.566L62.649 115.851C62.8298 115.828 63.0067 115.817 63.1798 115.817C63.5834 115.817 63.9625 115.878 64.3125 115.995C63.7243 115.705 62.8512 115.275 61.9123 114.816C61.0446 115.119 60.111 115.54 59.156 116.044" fill="url(#paint5_linear_722_44627)"/>
<path d="M65.1186 117.153L65.6348 116.847C65.2672 116.445 64.8214 116.154 64.3144 115.984C63.9645 115.866 63.5853 115.806 63.1817 115.806C63.0087 115.806 62.8317 115.817 62.651 115.839L63.1649 116.54C63.1848 116.54 63.2047 116.54 63.2246 116.54C63.9514 116.54 64.5955 116.751 65.1186 117.153" fill="url(#paint6_linear_722_44627)"/>
<path d="M108.921 91.1616L108.923 91.1605C108.923 91.1605 108.924 91.1567 108.926 91.1511C108.925 91.1549 108.923 91.1578 108.921 91.1616" fill="url(#paint7_linear_722_44627)"/>
<path d="M130.583 71.6255L130.594 70.6335L130.582 71.6246L130.583 71.6255Z" fill="url(#paint8_linear_722_44627)"/>
<path d="M130.529 76.2275L130.531 76.2261L130.582 71.6284L130.581 71.6276L130.529 76.2275Z" fill="url(#paint9_linear_722_44627)"/>
<path d="M47.4146 122.238C47.6566 122.238 47.8971 122.229 48.1184 122.219C48.3405 122.209 48.545 122.2 48.7157 122.2C48.7257 122.2 48.7364 122.2 48.7464 122.2C48.8429 122.2 48.9394 122.2 49.0359 122.199L57.3554 116.304L59.1597 116.041C60.1148 115.536 61.0483 115.115 61.916 114.812C62.8772 114.476 63.7579 114.284 64.4947 114.284C65.498 114.284 66.237 114.639 66.5548 115.465C66.6146 115.62 66.7754 115.845 66.9416 116.081L67.1936 115.932C67.1522 115.752 67.1124 115.587 67.0749 115.443L67.2701 115.339C66.9561 114.209 66.561 113.141 66.0999 112.619C65.5822 112.031 64.9029 111.738 64.0459 111.738C63.4255 111.738 62.7125 111.892 61.9007 112.199L60.1929 112.844L57.5552 109.59L57.8348 107.453L55.3082 108.775L47.0002 114.756L46.6992 121.982L46.4067 122.152C46.5147 122.175 46.628 122.193 46.7437 122.205C46.9612 122.229 47.1886 122.238 47.4146 122.238ZM67.7281 115.093L76.8273 110.214L79.5461 108.601V104.497L79.9405 102.994L81.7494 101.948V93.5094C77.4897 95.4416 71.794 98.143 70.7808 99.2093C69.1273 100.95 68.2367 102.011 68.2367 102.011L58.3855 107.165L58.0875 109.439L60.3568 112.238L61.7207 111.723C62.5816 111.397 63.3566 111.235 64.0436 111.235C65.0499 111.235 65.8656 111.585 66.4813 112.282C66.9799 112.848 67.3988 113.94 67.7281 115.093V115.093ZM80.0546 108.299L108.932 91.1623C108.933 91.1593 108.935 91.1569 108.936 91.1539C109.007 90.9161 110.785 85.1406 116.602 83.1766C117.773 82.7811 118.766 82.6225 119.607 82.6225C123.031 82.6225 123.917 85.2547 123.917 85.2547L130.53 76.2244L130.582 71.6244L130.593 70.6324L130.646 65.9736L86.5628 91.3721C86.5628 91.3721 84.7049 92.174 82.258 93.2795V102.241L80.3778 103.329L80.0546 104.53V108.299" fill="#D2D2D2"/>
<path d="M85.9249 87.0376L84.855 74.7343C84.8213 74.3469 85.0153 73.9751 85.3523 73.781L125.083 50.9059C125.7 50.5503 126.481 50.9365 126.573 51.6432L128.183 63.9819C128.235 64.3853 128.038 64.7804 127.684 64.9811L87.4145 87.8208C86.7809 88.1802 85.988 87.7633 85.9249 87.0376Z" fill="#00B9BF"/>
<path d="M68.1582 120.984C68.1582 120.984 68.1582 120.984 68.1582 120.984C68.1582 120.984 68.1582 120.984 68.1582 120.984ZM67.8144 119.054L67.9308 118.988C67.8174 118.42 67.6459 117.711 67.3863 116.838C67.5325 117.551 67.6842 118.349 67.8144 119.054" fill="url(#paint10_linear_722_44627)"/>
<path d="M67.9349 118.987L68.0375 118.929C67.9433 118.343 67.722 117.076 67.3957 115.803L67.1935 115.923C67.2563 116.197 67.323 116.508 67.3904 116.836C67.65 117.71 67.8215 118.418 67.9349 118.987V118.987ZM68.5108 118.663L79.2205 112.648L79.546 112.461V108.748L76.8272 110.206L67.8514 115.533C68.1754 116.758 68.3982 117.986 68.5108 118.663V118.663ZM80.0546 112.18L107.387 96.8304C107.497 95.919 107.704 94.7372 108.092 93.4433L80.0546 108.476V112.18Z" fill="#E5E5E5"/>
<path d="M68.1582 120.989C68.1582 120.989 68.1582 120.988 68.1582 120.988C68.1582 120.988 68.1582 120.989 68.1582 120.989ZM68.1582 120.988C68.1482 120.929 68.0051 120.097 67.8144 119.061C68.0043 120.095 68.1482 120.929 68.1582 120.988Z" fill="url(#paint11_linear_722_44627)"/>
<path d="M107.248 98.6675C107.248 98.666 107.246 98.5842 107.25 98.4343V98.4333C107.248 98.522 107.247 98.5871 107.247 98.6254C107.247 98.6528 107.248 98.6666 107.248 98.6675" fill="url(#paint12_linear_722_44627)"/>
<path d="M107.263 98.4375C107.271 98.141 107.296 97.5789 107.386 96.8391C107.296 97.5798 107.27 98.141 107.263 98.4366V98.4375Z" fill="url(#paint13_linear_722_44627)"/>
<path d="M79.5469 108.753L80.0554 108.481V108.296L79.5469 108.598V108.753ZM57.8356 107.45L58.3863 107.161L58.4874 106.391L57.9359 106.684L57.8356 107.45V107.45ZM81.7502 93.5059C81.9226 93.4275 82.0918 93.3512 82.2588 93.276V92.5376C82.0895 92.6191 81.9203 92.7011 81.7502 92.7837V93.5059Z" fill="#A5A5A5"/>
<path d="M57.9242 106.679L58.4756 106.386L58.7039 104.638C58.8785 104.23 60.6836 100.005 62.1656 97.3119C62.6565 96.4211 63.348 95.1058 64.1162 93.6455C65.7919 90.4599 67.8781 86.4947 68.9311 84.9409C70.5769 82.5118 73.861 80.24 76.8555 78.3375C77.9843 77.6216 78.8122 77.1018 79.4165 76.7269C79.5566 76.6404 79.7136 76.5967 79.8706 76.5967C80.0031 76.5967 80.1364 76.6281 80.2604 76.6909C80.5315 76.8296 80.7077 77.094 80.7307 77.3991L81.7393 90.9405L81.7385 92.7786C81.9086 92.696 82.0778 92.614 82.2471 92.5325V90.9213L81.2377 77.3617C81.2024 76.8772 80.9221 76.4562 80.4917 76.2371C80.2941 76.1368 80.082 76.0871 79.8706 76.0871C79.6202 76.0871 79.3713 76.1565 79.1492 76.294C78.5434 76.6694 77.714 77.1898 76.5828 77.9081C73.5439 79.8376 70.2086 82.1486 68.5092 84.655C67.4415 86.2318 65.3477 90.2117 63.6659 93.408C62.9 94.8644 62.2092 96.1783 61.7198 97.0667C60.1567 99.9064 58.2413 104.426 58.2229 104.471L58.2045 104.537L57.9242 106.679Z" fill="#A5A5A5"/>
<path d="M67.2592 115.327L67.7172 115.081C67.3879 113.928 66.969 112.836 66.4704 112.27C65.8547 111.573 65.039 111.223 64.0327 111.223C63.3457 111.223 62.5707 111.386 61.7099 111.711L60.3459 112.226L58.0766 109.427L58.3746 107.153L57.8239 107.441L57.5443 109.578L60.182 112.832L61.8898 112.187C62.7016 111.88 63.4146 111.726 64.035 111.726C64.892 111.726 65.5713 112.019 66.089 112.607C66.5501 113.129 66.9452 114.197 67.2592 115.327ZM79.5352 108.589L80.0437 108.287V104.518L80.3669 103.317L82.2471 102.23V93.2675C82.0801 93.3427 81.9108 93.4191 81.7385 93.4975V101.936L79.9296 102.982L79.5352 104.485V108.589" fill="#A5A5A5"/>
<path d="M67.4766 115.287C67.1641 115.459 67.2736 115.719 66.7697 115.95C65.6331 112.993 61.4707 113.198 56.6833 116.951C55.7191 117.707 55.072 118.911 54.4463 119.818C54.2977 120.033 54.0289 119.911 53.8964 120.13L53.0915 119.576C53.0915 119.576 54.2946 116.563 58.1882 114.314C62.0818 112.064 62.6946 112.116 64.0333 112.095C65.3728 112.072 67.0622 113.545 67.4766 115.287Z" fill="#8C8C8F"/>
<path d="M130.639 65.9743C130.639 65.9743 129.073 66.5438 128.887 67.9014C128.701 69.2587 128.569 77.3838 128.569 77.3838L130.524 76.2236L130.639 65.9743" fill="#EF3220"/>
<path d="M129.468 67.6392C129.294 68.917 129.166 76.1873 129.151 77.0383L128.569 77.3838C128.569 77.3838 128.701 69.2587 128.887 67.9014C129.073 66.5438 130.639 65.9743 130.639 65.9743V66.0126C130.172 66.3093 129.579 66.8351 129.468 67.6392" fill="#AD2322"/>
<path d="M16.273 106.612C16.273 106.612 16.4308 110.412 16.9294 111.935C17.4233 113.458 17.7741 113.743 17.7741 113.743C17.7741 113.743 23.8711 119.647 26.9046 121.557C31.4492 124.414 47.3224 130.21 47.5667 130.297L47.5713 130.302L47.4848 129.064L47.0015 122.198C46.7932 122.173 46.5787 122.137 46.3605 122.091C45.8818 121.989 45.3679 121.837 44.7774 121.643C44.7774 121.643 32.971 117.966 29.6732 116.02C25.9427 113.82 17.3827 105.064 17.3827 105.064L16.5227 104.07L16.273 106.612" fill="#9B9B9B"/>
<path d="M46.6746 128.2C46.7665 128.48 46.8577 128.729 46.9396 128.948C47.2804 129.839 47.5347 130.242 47.5707 130.298L47.5753 130.303C47.5753 130.303 48.0387 130.807 48.695 130.512C49.3467 130.216 52.0035 129.285 52.0035 129.285C52.0035 129.285 51.7592 124.813 54.1356 120.859C54.2681 120.64 54.4106 120.422 54.5576 120.208L53.9166 119.234L52.6139 120.131L48.7815 121.95L46.3798 121.812L46.3645 122.092L46.2527 124.399C46.2527 124.399 46.1814 126.671 46.6746 128.2" fill="#9B9B9B"/>
<path d="M16.2772 106.613C16.2772 106.613 16.4349 110.413 16.9335 111.936C17.4275 113.459 17.7782 113.744 17.7782 113.744C17.7782 113.744 23.8752 119.648 26.9088 121.558C31.4534 124.415 47.3265 130.211 47.5708 130.298L47.5754 130.303C47.5754 130.303 48.0388 130.807 48.6951 130.512C49.3468 130.216 52.0036 129.285 52.0036 129.285C52.0036 129.285 51.7593 124.813 54.1357 120.859C54.1357 120.859 52.0235 122.668 51.6114 125.612C51.1994 128.556 51.1328 128.785 51.1328 128.785C51.1328 128.785 49.2756 129.366 47.4889 129.065C47.3058 129.04 47.1228 128.999 46.9397 128.948C46.782 128.903 46.6189 128.847 46.4664 128.785C44.4561 127.955 31.0972 123.233 29.443 121.95C27.7887 120.661 22.2432 117.174 18.8497 113.914C16.9182 112.059 16.5268 107.927 16.5268 107.927V104.071L16.2772 106.613" fill="#999999"/>
<path d="M67.7178 116.021C67.4053 116.193 66.3431 115.06 65.8391 115.29C65.0404 114.238 61.712 113.932 56.9246 117.685C55.9604 118.441 55.1845 119.304 54.5588 120.211C54.4103 120.426 54.2701 120.644 54.1376 120.864L53.3327 120.31C53.3327 120.31 54.5359 117.297 58.4295 115.047C62.3231 112.798 62.9358 112.85 64.2745 112.828C65.614 112.807 67.3034 114.279 67.7178 116.021" fill="#5C5C5C"/>
<path d="M108.124 90.1013C108.124 90.1013 108.337 89.6537 108.903 88.747C109.468 87.8409 110.778 85.4372 115.144 82.9146C119.511 80.392 121.042 82.1082 121.042 82.1082L128.572 77.3809L130.528 76.2207L130.537 75.3491L132.047 76.8291C132.047 76.8291 131.159 80.6111 130.935 81.6414C130.71 82.6699 130.324 83.6242 129.05 84.6201C128.365 85.1551 126.541 86.4436 125.001 87.5206C124.102 86.068 122.775 84.8769 121.408 83.8428C120.691 83.3002 119.811 83.2427 118.992 83.4796C117.911 83.284 116.505 83.5514 114.671 84.6117C111.2 86.617 109.354 89.7558 108.371 92.5596L67.1857 114.631C67.0785 114.463 66.956 114.306 66.8181 114.162L66.7714 114.065L108.124 90.1013" fill="#8C8C8F"/>
<path d="M66.8871 116.183C66.616 115.817 66.2721 115.502 65.8371 115.288L108.697 90.5168C108.697 90.5168 108.907 90.0682 109.471 89.1622C110.041 88.2555 111.349 85.8509 115.716 83.3297C120.082 80.8086 121.614 82.5249 121.614 82.5249L129.14 77.7979L131.1 76.6364L132.047 76.8304C132.047 76.8304 131.731 81.0271 131.507 82.0566C131.278 83.0854 130.897 84.0381 129.619 85.0361C128.347 86.0296 123.135 89.6307 123.135 89.6307C123.135 89.6307 123.1 88.7492 122.82 87.6698C122.204 85.3158 120.413 82.0359 115.242 85.0262C111.772 87.033 109.924 90.1703 108.942 92.9771L67.4132 116.98C67.404 116.957 66.9522 116.267 66.8871 116.183" fill="#9B9B9B"/>
<path d="M122.82 87.667C123.1 88.7464 123.135 89.6279 123.135 89.6279C123.135 89.6279 128.347 86.0268 129.619 85.0333C130.897 84.0353 131.278 83.0826 131.507 82.0538C131.731 81.0243 132.047 76.8276 132.047 76.8276C132.047 76.8276 131.364 81.7274 129.817 83.3829C129.121 84.1219 126.031 85.9095 122.82 87.667Z" fill="#999999"/>
<path d="M130.561 67.4454L129.913 67.8195L129.82 71.6743L130.532 71.2626L130.561 67.4454Z" fill="#FEF9E4"/>
<path d="M130.561 72.1113L129.913 72.4862L129.82 76.3403L130.532 75.9286L130.561 72.1113" fill="#F6871F"/>
<path d="M82.001 94.0475L79.453 95.5201C79.453 95.5201 79.0187 95.832 79.0187 96.4414C79.0187 97.0516 79.0187 98.5877 79.0187 98.5877C79.0187 98.5877 79.0011 99.0859 79.4966 98.7993C79.9921 98.5134 82.001 97.3519 82.001 97.3519V94.0475" fill="#666666"/>
<path d="M79.9905 98.1157L81.0352 97.5118V95.0613L79.9905 95.6643V98.1157" fill="#505050"/>
<path d="M61.2015 101.471L62.5295 102.689L68.7383 99.6175C68.7383 99.6175 69.4712 98.8075 70.489 97.7733C71.5834 96.6628 73.0087 95.2974 74.2042 94.4016C75.1607 93.6833 76.4995 92.7972 77.6498 92.0583C78.169 91.7271 78.6469 91.422 79.0337 91.1773C79.8585 90.6632 80.5248 89.547 80.6113 88.5589L80.1381 78.4226C80.2093 77.6079 79.6854 77.236 79.0084 77.6177C77.8987 78.2448 77.6092 78.4378 75.232 80.0475C74.8812 80.2868 74.4079 80.5772 73.858 80.9599C72.4182 81.9731 70.4737 83.6286 68.896 86.674C68.5805 87.2804 68.1225 88.1511 67.5627 89.206C66.5403 91.1415 65.1862 93.6779 63.8023 96.2864C62.1787 99.3423 61.2015 101.471 61.2015 101.471" fill="#9F9F9F"/>
<path d="M70.4896 97.7788C71.584 96.6683 73.0093 95.3029 74.2048 94.407C75.1613 93.6887 76.5001 92.8027 77.6504 92.0638L73.8587 80.9654C72.4188 81.9786 70.4743 83.6341 68.8967 86.6795C68.5811 87.2859 68.1231 88.1566 67.5633 89.2115L70.4896 97.7788Z" fill="#B1B1B1"/>
<path d="M62.2423 102.186L68.4488 99.1188C68.4488 99.1188 71.6071 95.6297 73.917 93.8991C75.3024 92.8603 77.4782 91.4743 78.7472 90.6772C79.569 90.1607 80.2391 89.0454 80.3234 88.0573L79.8493 77.9192C79.8608 77.7874 79.8516 77.6718 79.8332 77.5643C80.0507 77.7063 80.1733 78.0045 80.1381 78.4213L80.6113 88.5594C80.5271 89.5475 79.857 90.6626 79.036 91.1794C77.7662 91.9765 75.5904 93.3625 74.2049 94.4011C71.8959 96.1319 68.7367 99.621 68.7367 99.621L62.5302 102.688L61.203 101.473C61.203 101.473 61.2298 101.411 61.2773 101.303L62.2423 102.186" fill="#878787"/>
<path d="M18.4369 95.3939C18.4369 95.3939 27.1385 104.051 30.6194 106.143C34.8461 108.684 49.0834 113.083 49.0834 113.083L56.0205 104.583C56.0205 104.583 42.0054 98.1043 37.6407 95.3946C34.5252 93.4606 25.94 86.5466 25.94 86.5466L18.4369 95.3939Z" fill="#C1C1C1"/>
<path d="M48.7828 121.946C48.7828 121.946 33.5921 116.859 29.3783 114.325C25.8684 112.215 17.928 104.074 17.928 104.074L18.4365 95.3945C18.4365 95.3945 27.1382 104.051 30.619 106.144C34.8458 108.685 49.083 113.084 49.083 113.084L48.7828 121.946Z" fill="#696969"/>
<path d="M44.7785 121.64C44.7785 121.64 32.9759 117.961 29.675 116.016C25.9469 113.818 17.2314 105.353 17.2314 105.353L16.5261 104.07L17.9766 103.223L17.9268 104.074C17.9268 104.074 26.195 112.392 29.7317 114.458C33.368 116.583 46.2704 120.587 46.2704 120.587C47.8848 121.128 49.6517 120.972 51.1466 120.155L53.9229 118.137L53.9159 119.231L53.8026 119.412L50.1755 121.602C48.0817 122.514 46.9451 122.363 44.7785 121.64" fill="#8C8C8F"/>
<path d="M40.0967 110.495L39.5384 117.82C39.5384 117.82 30.8398 114.762 29.5616 113.869C27.7564 112.609 22.9545 108.241 22.9545 108.241L23.4967 100.604C23.4967 100.604 28.1194 105.528 31.2549 107.083C33.5501 108.221 37.1221 109.568 40.0967 110.495" fill="#797A7E"/>
<path d="M23.9049 104.389C23.9049 104.389 23.9708 104.455 24.0979 104.583L24.1945 104.679C24.307 104.787 24.4495 104.929 24.6218 105.097C24.7137 105.183 24.8102 105.275 24.9121 105.377L24.9733 105.438C25.0392 105.499 25.1058 105.565 25.1771 105.632C26.0877 106.503 27.375 107.689 28.6019 108.692C28.7544 108.821 28.9022 108.938 29.05 109.054C29.1924 109.167 29.3349 109.279 29.472 109.381C29.6098 109.487 29.7469 109.59 29.884 109.681C29.9813 109.753 30.0778 109.819 30.1697 109.88L30.2761 109.951C30.4033 110.038 30.5311 110.114 30.6475 110.185C30.8612 110.313 31.248 110.491 31.7473 110.71L31.8944 110.771C32.1594 110.883 32.4496 111.001 32.7598 111.128L32.831 111.153C33.0547 111.245 33.289 111.336 33.528 111.434C33.6505 111.479 33.7676 111.525 33.8894 111.571L33.9254 111.586C34.231 111.703 34.5412 111.825 34.8513 111.943C35.2634 112.1 35.6762 112.253 36.0729 112.401C36.1441 112.432 36.2153 112.457 36.2812 112.483C36.5155 112.569 36.7499 112.651 36.9682 112.732C37.0501 112.763 37.1267 112.794 37.2025 112.824C37.9201 113.084 38.5159 113.298 38.8568 113.425L38.9893 113.471C39.1065 113.512 39.1723 113.537 39.1723 113.537L39.2229 113.068L39.4473 110.929C36.9735 110.155 34.0426 109.07 31.9357 108.087C31.7014 107.98 31.4824 107.873 31.2687 107.771C30.6376 107.46 29.9453 107.002 29.243 106.472C27.3705 105.061 25.4413 103.161 24.5766 102.28C24.3882 102.087 24.2504 101.939 24.1692 101.858L24.1286 101.817L24.0979 101.781L23.9049 104.389" fill="#555555"/>
<path d="M23.3356 107.877C23.3356 107.877 27.6306 112.212 30.0836 113.674C30.236 113.766 30.4757 113.882 30.7805 114.02C30.8778 114.066 30.9843 114.112 31.0915 114.157C33.4733 115.187 38.6083 117.026 38.6083 117.026L38.8779 114.417C36.5214 113.684 33.7582 112.661 31.6819 111.718C31.3358 111.565 31.0103 111.407 30.7047 111.259C30.1602 110.99 29.5697 110.612 28.9693 110.179C26.3531 108.28 23.5286 105.27 23.5286 105.27L23.3356 107.877Z" fill="#555555"/>
<path d="M23.9116 104.389C23.9116 104.389 26.6947 107.196 29.0566 109.054C29.6264 109.508 30.1763 109.9 30.6542 110.185C30.8679 110.313 31.2546 110.491 31.754 110.71C34.171 111.744 39.1789 113.537 39.1789 113.537L39.2295 113.068C37.7843 112.549 33.54 110.995 31.7892 110.201C31.5296 110.078 31.3266 109.976 31.1941 109.895C30.5784 109.528 29.8554 108.983 29.1072 108.372C26.8678 106.539 24.4507 104.099 24.4507 104.099L24.5832 102.28C24.283 101.97 24.1046 101.781 24.1046 101.781L23.9116 104.389" fill="#444444"/>
<path d="M29.0498 109.053C29.1922 109.166 29.3347 109.278 29.4718 109.38C29.6096 109.486 29.7467 109.589 29.8838 109.68C29.9811 109.752 30.0776 109.818 30.1695 109.879L30.2759 109.95C30.4031 110.037 30.5309 110.113 30.6474 110.184C30.861 110.312 31.2478 110.49 31.7471 110.709L31.7824 110.2L31.9355 108.086C31.7012 107.979 31.4822 107.872 31.2685 107.77C30.6374 107.459 29.9451 107.001 29.2428 106.471L29.1003 108.371L29.0498 109.053" fill="#444444"/>
<path d="M28.8054 112.242L30.7744 114.02L30.9888 114.213L31.0853 114.157L31.518 113.913L31.6758 111.717C31.3296 111.564 31.0041 111.407 30.6986 111.259C30.154 110.989 29.5636 110.612 28.9631 110.179L28.8054 112.242" fill="#444444"/>
<path d="M23.5288 105.271C23.5288 105.271 23.7081 105.461 24.0083 105.767L23.8742 107.586C23.8742 107.586 28.1707 111.922 30.6199 113.386C31.663 114.009 37.0026 115.962 38.6553 116.56L38.607 117.026C38.607 117.026 31.3199 114.416 30.0823 113.675C27.6331 112.211 23.3374 107.876 23.3374 107.876L23.5288 105.271Z" fill="#444444"/>
<path d="M45.3153 115.378C43.7782 114.953 41.8973 114.232 40.3893 113.613L40.544 110.77C40.544 110.77 42.0068 111.46 44.5992 112.271C46.9726 113.014 48.623 113.443 48.623 113.443L48.4905 116.196C47.936 116.07 46.942 115.828 45.3153 115.378" fill="#C7C7C7"/>
<path d="M45.3162 116.114C46.9789 116.574 47.9217 116.801 48.457 116.921L48.3345 119.477C48.3345 119.477 46.8112 119.477 43.4499 118.244C40.1919 117.049 40.2057 117.013 40.2057 117.013L40.3512 114.333C41.8661 114.955 43.7661 115.685 45.3162 116.114Z" fill="#C7C7C7"/>
<path d="M42.6156 112.825L42.6807 111.63C43.226 111.827 43.8655 112.046 44.5992 112.276C46.9726 113.019 48.623 113.448 48.623 113.448L48.5549 114.866C48.247 114.783 47.9131 114.693 47.5416 114.59C46.0046 114.165 44.1236 113.444 42.6156 112.825" fill="#FDFEFB"/>
<path d="M42.432 116.221L42.4887 115.173C43.4552 115.533 44.4409 115.872 45.3162 116.115C46.9789 116.575 47.9217 116.802 48.457 116.922L48.3904 118.308C47.6736 118.125 46.7752 117.855 45.6762 117.452C42.419 116.257 42.432 116.221 42.432 116.221" fill="#FDFEFB"/>
<path d="M21.568 101.97C20.5808 101.144 19.5117 100.001 18.5505 98.9836L18.6394 96.04C18.6394 96.04 19.5676 97.1185 21.2295 98.6093C22.7513 99.9747 23.2031 100.473 23.2031 100.473L23.0017 103.255C22.6441 102.985 22.6134 102.844 21.568 101.97" fill="#C7C7C7"/>
<path d="M21.5387 102.721C22.6078 103.616 22.6048 103.727 22.9502 103.987L22.7633 106.569C22.7633 106.569 22.3765 106.542 20.2291 104.424C18.1483 102.372 18.2892 102.413 18.2892 102.413L18.3658 99.6343C19.33 100.658 20.5431 101.888 21.5387 102.721" fill="#C7C7C7"/>
<path d="M19.5048 98.2848L19.5439 97.0009C19.9689 97.4323 20.5295 97.9797 21.2295 98.6073C22.7513 99.9727 23.2031 100.471 23.2031 100.471L23.1082 101.778C22.9573 101.641 22.7697 101.478 22.5223 101.271C21.5351 100.445 20.466 99.3025 19.5048 98.2848" fill="#FDFEFB"/>
<path d="M19.2435 101.711L19.2748 100.576C20.0292 101.345 20.8372 102.129 21.5387 102.716C22.6078 103.611 22.6048 103.722 22.9502 103.982L22.8567 105.272C22.4769 104.955 21.9416 104.471 21.1834 103.723C19.1018 101.67 19.2435 101.711 19.2435 101.711Z" fill="#FDFEFB"/>
<path fill-rule="evenodd" clip-rule="evenodd" d="M31.9922 123.732V121.12C31.9922 120.52 31.6583 119.971 31.126 119.695L25.5935 116.826C25.2427 116.644 24.8246 116.899 24.8246 117.293V119.973C24.8246 120.579 25.1654 121.132 25.7045 121.406L31.2279 124.201C31.5779 124.379 31.9922 124.124 31.9922 123.732Z" fill="#ECECEC"/>
<path d="M55.3833 104.341L56.0159 104.585L58.2637 103.267L68.0322 84.4924L67.3843 84.2648L57.6748 103.103L55.3833 104.341" fill="#A5A5A5"/>
<path d="M37.3848 66.8059L37.7646 67.1623L27.3199 85.6232L26.2952 86.8374L25.9368 86.55L26.744 85.158L37.3848 66.8059" fill="#DDDDDD"/>
<path d="M49.9199 101.779L45.6181 105.912L41.1784 109.214L40.094 109.542L45.4427 105.274L49.3004 101.303L49.9199 101.779Z" fill="#BBBBBB"/>
<path d="M49.3008 101.303L45.4432 105.275L40.0944 109.542L30.4921 105.423L23.9065 99.8177L27.735 94.2612L30.9922 90.47L49.3008 101.303" fill="#E5E5E5"/>
<path d="M30.5088 107.162L31.46 107.692L30.9951 114.213L30.1266 113.916L28.2824 112.543L28.7749 106.033L30.5088 107.162" fill="#797A7E"/>
<path d="M31.1995 91.9962L31.4415 91.7494C31.5656 91.6236 31.8865 91.6581 32.1384 91.8252L35.8781 94.2766C36.3445 94.5856 36.4808 95.0092 36.1722 95.1895L35.9149 95.3389C35.7686 95.4248 35.4906 95.3796 35.2685 95.2356L31.584 92.8561C31.1627 92.5824 30.9942 92.2054 31.1995 91.9962" fill="#100F0D"/>
<path d="M42.4593 98.6812L42.6913 98.4067C42.8077 98.2695 43.0942 98.2542 43.3178 98.3752L47.0261 100.353C47.5484 100.635 47.7728 101.125 47.4902 101.405L47.2504 101.644C47.1126 101.781 46.8116 101.774 46.5558 101.628L42.7756 99.4935C42.3911 99.2753 42.2578 98.9186 42.4593 98.6812" fill="#100F0D"/>
<path d="M32.5615 91.9747L32.2743 91.832L31.1454 92.745L31.3989 92.9351L32.5615 91.9747" fill="#E5E5E5"/>
<path d="M33.3379 92.43L33.0507 92.2875L31.9218 93.2006L32.1753 93.3896L33.3379 92.43" fill="#E5E5E5"/>
<path d="M34.127 92.8894L33.8398 92.747L32.7109 93.6597L32.9651 93.8491L34.127 92.8894Z" fill="#E5E5E5"/>
<path d="M34.9082 93.3399L34.621 93.1975L33.4921 94.1102L33.7456 94.2993L34.9082 93.3399" fill="#E5E5E5"/>
<path d="M35.6553 93.8255L35.3681 93.6831L34.2392 94.5961L34.4935 94.7852L35.6553 93.8255Z" fill="#E5E5E5"/>
<path d="M36.3115 94.3825L36.0243 94.2401L34.8955 95.1537L35.149 95.3428L36.3115 94.3825" fill="#E5E5E5"/>
<path d="M43.6992 98.4503L43.4396 98.3567L42.3659 99.4411L42.5964 99.6006L43.6992 98.4503" fill="#E5E5E5"/>
<path d="M44.4326 98.7774L44.1638 98.681L43.1016 99.8014L43.3428 99.9668L44.4326 98.7774" fill="#E5E5E5"/>
<path d="M45.1787 99.12L44.9007 99.0191L43.8515 100.178L44.1042 100.35L45.1787 99.12" fill="#E5E5E5"/>
<path d="M45.959 99.4769L45.671 99.3719L44.6371 100.572L44.9021 100.75L45.959 99.4769Z" fill="#E5E5E5"/>
<path d="M46.7393 99.8781L46.4406 99.7687L45.4212 101.015L45.6992 101.202L46.7393 99.8781Z" fill="#E5E5E5"/>
<path d="M47.4844 100.404L47.1734 100.289L46.1633 101.594L46.4558 101.791L47.4844 100.404Z" fill="#E5E5E5"/>
<path d="M16.7848 104.903C16.7848 104.903 16.4662 108.492 17.1662 110.231C17.8662 111.97 24.3867 116.738 24.3867 116.738V116.491C24.3867 116.032 24.8776 115.741 25.2797 115.962L31.722 119.49C32.18 119.741 32.4657 120.223 32.4657 120.746V121.075C32.4657 121.075 35.8056 122.476 39.6219 123.526C43.4389 124.577 46.2526 124.95 46.2526 124.95L46.3545 122.344C46.3545 122.344 32.3064 118.125 28.6555 115.6C24.5636 112.77 16.7848 104.903 16.7848 104.903" fill="#999999"/>
<path d="M46.3565 122.344L46.2546 124.949C46.2546 124.949 48.2014 124.989 49.1978 124.917C50.195 124.845 51.9128 123.786 51.9128 123.786C51.9128 123.786 52.6258 122.094 53.1979 121.497C53.5157 121.166 54.1399 120.504 54.1399 120.504L54.8759 118.799L56.2598 116.84C55.353 117.123 53.721 119.752 53.721 119.752C53.721 119.752 49.9116 122.1 48.9681 122.244C47.6944 122.438 47.1116 122.546 46.3565 122.344" fill="#999999"/>
<path fill-rule="evenodd" clip-rule="evenodd" d="M120.439 59.9369C120.223 59.7614 119.773 59.3963 119.697 59.339C119.992 58.9402 120.644 58.0757 120.893 57.8079C121.204 57.473 122.568 56.181 123.74 56.2049C124.678 56.2241 125.247 57.2176 125.415 57.712L125.63 63.1188L124.29 63.7169V63.1653C124.267 63.3153 124.049 63.6943 123.285 64.3389C122.209 65.248 120.893 65.9657 120.175 65.0088C119.458 64.0518 119.912 61.9465 120.893 60.9417C121.678 60.1379 123.118 59.4265 123.74 59.1714C123.676 58.8923 123.434 58.2958 122.974 58.1427C122.515 57.9896 121.092 59.275 120.439 59.9369ZM123.915 62.7269L123.801 60.8588C123.741 60.7884 123.456 60.7223 122.792 61.0212C121.962 61.3949 120.433 62.7269 121.263 63.6367C121.927 64.3645 123.307 63.3334 123.915 62.7269ZM112.688 62.7532L113.553 70.1253L115.249 69.1562L114.557 63.4455C114.661 63.1571 115 62.5318 115.526 62.338C116.184 62.0957 116.876 62.0609 116.98 62.7532C117.063 63.3071 117.476 66.2144 117.672 67.5988L119.299 66.8027L118.641 61.6458C118.572 61.2882 118.177 60.5315 117.153 60.3653C115.872 60.1577 114.799 61.3687 114.557 61.6458C114.363 61.8675 114.246 62.1996 114.211 62.338L114.069 61.7683L112.638 62.454L112.688 62.7532ZM111.722 69.7807C110.828 72.1398 108.843 73.5745 107.287 72.9852C105.73 72.396 105.193 70.0059 106.086 67.6469C106.98 65.2879 108.965 63.8532 110.521 64.4424C112.078 65.0317 112.615 67.4217 111.722 69.7807ZM110.68 69.0336C110.411 70.5214 109.398 71.5838 108.416 71.4065C107.435 71.2292 106.857 69.8793 107.126 68.3915C107.395 66.9037 108.408 65.8413 109.39 66.0186C110.371 66.1959 110.949 67.5457 110.68 69.0336ZM99.235 66.8673L100.824 66.2345L101.437 72.4635L103.435 67.8361L105.115 67.0451L103.138 71.6282L106.104 74.4212L104.404 75.489L101.655 73.2347L101.991 76.8535L100.29 77.7631L99.235 66.8673ZM97.8925 73.061L98.2507 71.6282C97.667 71.6913 96.3937 71.868 95.9702 72.0697C95.4408 72.3218 92.8272 74.2 93.676 75.8765C94.3025 77.1139 95.357 76.9092 96.2161 76.7425C96.521 76.6833 96.8012 76.6289 97.029 76.6454C97.8988 76.7085 97.6845 77.7169 97.029 78.3975C96.5047 78.9421 95.029 78.8429 94.3567 78.7253L94.0164 80.0741C94.0626 80.2631 94.5181 80.5556 95.9702 80.2127C97.7854 79.7841 99.0585 77.8807 99.235 76.2925C99.4114 74.7042 97.9618 74.5907 96.3231 74.9941C94.6844 75.3975 94.9315 74.5176 95.5762 73.8012C96.092 73.2281 97.3354 73.0689 97.8925 73.061ZM87.8511 78.8072C87.6357 78.6318 87.186 78.2666 87.1094 78.2093C87.4044 77.8105 88.0568 76.9461 88.3056 76.6782C88.6166 76.3434 89.9803 75.0513 91.1525 75.0753C92.0903 75.0944 92.6597 76.088 92.8272 76.5823L93.0425 81.9891L91.7028 82.5872V82.0356C91.6796 82.1856 91.4613 82.5646 90.698 83.2092C89.6214 84.1183 88.3056 84.836 87.5879 83.8791C86.8702 82.9221 87.3247 80.8169 88.3056 79.8121C89.0903 79.0082 90.5305 78.2969 91.1525 78.0417C91.0887 77.7626 90.8463 77.1661 90.387 77.013C89.9276 76.8599 88.505 78.1453 87.8511 78.8072ZM91.2134 79.7301L91.3273 81.5982C90.7198 82.2047 89.339 83.2357 88.6752 82.5079C87.8454 81.5982 89.3748 80.2661 90.2046 79.8924C90.8684 79.5935 91.1537 79.6596 91.2134 79.7301Z" fill="white"/>
<defs>
<linearGradient id="paint0_linear_722_44627" x1="114.895" y1="89.1077" x2="118.713" y2="100.113" gradientUnits="userSpaceOnUse">
<stop stop-color="#515256"/>
<stop offset="0.117647" stop-color="#515256"/>
<stop offset="0.984626" stop-color="#ACB8DA"/>
<stop offset="1" stop-color="#ACB8DA"/>
</linearGradient>
<linearGradient id="paint1_linear_722_44627" x1="59.5003" y1="121.081" x2="63.3186" y2="132.087" gradientUnits="userSpaceOnUse">
<stop stop-color="#515256"/>
<stop offset="0.117647" stop-color="#515256"/>
<stop offset="0.984626" stop-color="#ACB8DA"/>
<stop offset="1" stop-color="#ACB8DA"/>
</linearGradient>
<linearGradient id="paint2_linear_722_44627" x1="95.5232" y1="111.657" x2="65.921" y2="46.5158" gradientUnits="userSpaceOnUse">
<stop stop-color="#A6A6A8"/>
<stop offset="0.979294" stop-color="#7B522C"/>
<stop offset="1" stop-color="#7B522C"/>
</linearGradient>
<linearGradient id="paint3_linear_722_44627" x1="95.5144" y1="111.65" x2="65.9123" y2="46.5085" gradientUnits="userSpaceOnUse">
<stop stop-color="#121110"/>
<stop offset="0.979294" stop-color="#11100E"/>
<stop offset="1" stop-color="#11100E"/>
</linearGradient>
<linearGradient id="paint4_linear_722_44627" x1="97.3499" y1="107.661" x2="15.12" y2="23.406" gradientUnits="userSpaceOnUse">
<stop stop-color="#424242"/>
<stop offset="0.979294" stop-color="#11100E"/>
<stop offset="1" stop-color="#11100E"/>
</linearGradient>
<linearGradient id="paint5_linear_722_44627" x1="95.5174" y1="111.653" x2="65.9154" y2="46.5114" gradientUnits="userSpaceOnUse">
<stop stop-color="#424242"/>
<stop offset="0.979294" stop-color="#11100E"/>
<stop offset="1" stop-color="#11100E"/>
</linearGradient>
<linearGradient id="paint6_linear_722_44627" x1="95.5192" y1="111.642" x2="65.917" y2="46.5001" gradientUnits="userSpaceOnUse">
<stop stop-color="#3B3A3D"/>
<stop offset="0.979294" stop-color="#2C1F17"/>
<stop offset="1" stop-color="#2C1F17"/>
</linearGradient>
<linearGradient id="paint7_linear_722_44627" x1="91.9539" y1="116.993" x2="54.6504" y2="34.7073" gradientUnits="userSpaceOnUse">
<stop stop-color="#121110"/>
<stop offset="0.979294" stop-color="#11100E"/>
<stop offset="1" stop-color="#11100E"/>
</linearGradient>
<linearGradient id="paint8_linear_722_44627" x1="95.5152" y1="111.611" x2="65.9166" y2="46.4659" gradientUnits="userSpaceOnUse">
<stop stop-color="white"/>
<stop offset="0.979294" stop-color="#BF823E"/>
<stop offset="1" stop-color="#BF823E"/>
</linearGradient>
<linearGradient id="paint9_linear_722_44627" x1="95.5122" y1="111.649" x2="65.872" y2="46.4651" gradientUnits="userSpaceOnUse">
<stop stop-color="#A6A6A8"/>
<stop offset="0.979294" stop-color="#7B522C"/>
<stop offset="1" stop-color="#7B522C"/>
</linearGradient>
<linearGradient id="paint10_linear_722_44627" x1="90.6696" y1="111.693" x2="86.5098" y2="104.42" gradientUnits="userSpaceOnUse">
<stop stop-color="#110F0E"/>
<stop offset="0.979294" stop-color="#100F0D"/>
<stop offset="1" stop-color="#100F0D"/>
</linearGradient>
<linearGradient id="paint11_linear_722_44627" x1="88.6842" y1="110.541" x2="87.2322" y2="108" gradientUnits="userSpaceOnUse">
<stop stop-color="#110F0E"/>
<stop offset="0.979294" stop-color="#100F0D"/>
<stop offset="1" stop-color="#100F0D"/>
</linearGradient>
<linearGradient id="paint12_linear_722_44627" x1="88.7919" y1="110.495" x2="87.3395" y2="107.964" gradientUnits="userSpaceOnUse">
<stop stop-color="#A6A6A8"/>
<stop offset="0.979294" stop-color="#7B522C"/>
<stop offset="1" stop-color="#7B522C"/>
</linearGradient>
<linearGradient id="paint13_linear_722_44627" x1="88.6872" y1="110.521" x2="87.2352" y2="107.98" gradientUnits="userSpaceOnUse">
<stop stop-color="#121110"/>
<stop offset="0.979294" stop-color="#11100E"/>
<stop offset="1" stop-color="#11100E"/>
</linearGradient>
</defs>
</svg>
