<svg width="144" height="144" viewBox="0 0 144 144" fill="none" xmlns="http://www.w3.org/2000/svg">
<path opacity="0.08" d="M62.4225 129.849L19.4249 107.17C17.3184 106.036 17.5662 104.108 20.0444 102.861L57.7139 82.9031C60.0682 81.6557 63.7856 81.5423 65.7682 82.5629L108.766 105.242C110.872 106.376 110.625 108.304 108.146 109.551L70.4768 129.509C68.1225 130.87 64.529 130.983 62.4225 129.849Z" fill="#212121"/>
<path d="M126.164 97.9423L125.281 98.0222L87.0227 77.7355C86.1358 77.2651 84.5727 77.3246 83.5496 77.8676L29.134 106.72L28.1299 106.811V107.813L28.1332 107.814C28.1187 108.125 28.3117 108.425 28.7279 108.646L67.2709 129.083C68.1579 129.553 69.7209 129.493 70.7451 128.951L125.317 100.014C125.866 99.7231 126.149 99.3501 126.162 98.9935L126.164 98.9925V97.9423" fill="#C6C6C6"/>
<path d="M67.2711 128.014L28.728 107.577C27.8411 107.107 27.9538 106.278 28.978 105.736L83.5498 76.7989C84.5729 76.2559 86.1359 76.1965 87.0229 76.6668L125.566 97.1041C126.453 97.5744 126.34 98.4033 125.317 98.9464L70.7453 127.882C69.7211 128.425 68.158 128.485 67.2711 128.014" fill="#DBDBDB"/>
<path d="M125.414 87.6152C125.324 87.4328 124.546 87.6941 124.546 87.6941L86.8718 76.8955C85.9982 76.4313 84.4597 76.4908 83.4523 77.0246L29.87 96.259C29.87 96.259 28.9619 96.133 28.8827 96.3482C27.6108 99.7653 28.8827 106.513 28.8827 106.513H28.8849C28.8704 106.82 29.0612 107.115 29.4695 107.332L67.4235 127.456C68.297 127.919 69.8355 127.861 70.8441 127.326L124.579 98.8329C125.119 98.546 125.399 98.1792 125.41 97.8277L125.414 97.8267C125.414 97.8267 126.616 90.0661 125.414 87.6152" fill="#ECECEC"/>
<path d="M67.2711 116.429L28.728 95.9909C27.8411 95.5216 27.9538 94.6927 28.978 94.1496L83.5498 65.213C84.5729 64.6709 86.1359 64.6105 87.0229 65.0808L125.566 85.5192C126.453 85.9895 126.34 86.8174 125.317 87.3604L70.7453 116.297C69.7211 116.84 68.158 116.9 67.2711 116.429Z" fill="#ECECEC"/>
<path d="M67.4955 115.978L29.5784 95.874C28.8209 95.4714 28.9168 94.7644 29.7915 94.3002L83.839 65.6422C84.7136 65.1791 86.048 65.1279 86.8055 65.5295L124.723 85.6349C125.48 86.0355 125.384 86.7446 124.51 87.2077L70.4621 115.866C69.5874 116.33 68.2531 116.381 67.4955 115.978Z" fill="#ECECEC"/>
<path d="M67.749 115.17L31.0971 95.7355C30.3395 95.3348 30.4355 94.6258 31.309 94.1627L83.577 66.4484C84.4506 65.9852 85.7872 65.934 86.5436 66.3357L123.196 85.7699C123.953 86.1715 123.857 86.8796 122.982 87.3437L70.7156 115.058C69.842 115.521 68.5055 115.572 67.749 115.17" fill="#F2F1EE"/>
<path d="M86.8789 91.1533L96.0185 91.1677L96.0475 96.0142L86.9068 95.9988L86.8789 91.1533" fill="#FFFFFC"/>
<path d="M75.7969 73.6664L84.9376 73.6828L84.9655 78.5283L75.827 78.514L75.7969 73.6664Z" fill="#FFFFFC"/>
<path d="M64.8477 79.4731L73.9872 79.4885L74.0162 84.335L64.8755 84.3206L64.8477 79.4731" fill="#FFFFFC"/>
<path d="M86.8125 79.5078L95.9532 79.5232L95.9811 84.3687L86.8415 84.3543L86.8125 79.5078" fill="#FFFFFC"/>
<path d="M97.791 79.5264L106.932 79.5417L106.96 84.3872L97.82 84.3718L97.791 79.5264" fill="#FFFFFC"/>
<path d="M86.8477 85.3315L95.9872 85.3469L96.0174 90.1924L86.8767 90.177L86.8477 85.3315Z" fill="#FFFFFC"/>
<path d="M86.7803 73.686L95.9209 73.7004L95.9488 78.5469L86.8104 78.5315L86.7803 73.686Z" fill="#FFFFFC"/>
<path d="M53.9727 96.9222L63.1122 96.9386L63.1412 101.785L54.0017 101.77L53.9727 96.9222Z" fill="#FFFFFC"/>
<path d="M64.9854 102.766L74.1249 102.78L74.1539 107.627L65.0132 107.612L64.9854 102.766" fill="#FFFFFC"/>
<path d="M53.8994 85.2783L63.0401 85.2936L63.068 90.1401L53.9295 90.1248L53.8994 85.2783Z" fill="#FFFFFC"/>
<path d="M75.9336 96.9599L85.0731 96.9743L85.1021 101.821L75.9626 101.805L75.9336 96.9599Z" fill="#FFFFFC"/>
<path d="M75.9053 91.1362L85.0459 91.1516L85.0738 95.9971L75.9343 95.9817L75.9053 91.1362" fill="#FFFFFC"/>
<path d="M42.957 91.0815L52.0966 91.0968L52.1256 95.9434L42.9849 95.928L42.957 91.0815" fill="#FFFFFC"/>
<path d="M64.918 91.1181L74.0587 91.1335L74.0866 95.98L64.947 95.9646L64.918 91.1181" fill="#FFFFFC"/>
<path d="M108.776 79.5443L110.86 79.5484L117.938 83.3006L117.945 84.4072L108.804 84.3908L108.776 79.5443" fill="#FFFFFC"/>
<path d="M75.7812 70.9595L81.6318 67.8558L84.903 67.8609L84.9309 72.7085L75.7913 72.6921L75.7812 70.9595" fill="#FFFFFC"/>
<path d="M64.9551 96.9409L74.0947 96.9563L74.1237 101.802L64.9841 101.786L64.9551 96.9409Z" fill="#FFFFFC"/>
<path d="M119.789 85.3857L121.873 85.3887L122.708 85.8314C123.171 86.0763 123.173 86.4748 122.713 86.7187L119.806 88.2598L119.789 85.3857Z" fill="#FFFFFC"/>
<path d="M43.016 101.246L42.9893 96.9067L52.1299 96.921L52.1578 101.769L43.9755 101.754L43.016 101.246Z" fill="#FFFFFC"/>
<path d="M84.3878 66.396C84.5317 66.3202 84.7069 66.2669 84.8965 66.2392L84.8999 66.8848L83.4707 66.8827L84.3878 66.396Z" fill="#FFFFFC"/>
<path d="M54.0335 107.086L54.0078 102.748L63.1485 102.763L63.1764 107.608L54.9929 107.595L54.0335 107.086Z" fill="#FFFFFC"/>
<path d="M97.8281 85.349L106.967 85.3644L106.996 90.2119L97.856 90.1955L97.8281 85.349Z" fill="#FFFFFC"/>
<path d="M53.9395 91.1L63.079 91.1154L63.1069 95.9619L53.9673 95.9466L53.9395 91.1Z" fill="#FFFFFC"/>
<path d="M64.8828 85.2963L74.0235 85.3117L74.0514 90.1582L64.9129 90.1428L64.8828 85.2963Z" fill="#FFFFFC"/>
<path d="M75.8633 85.3144L85.0028 85.3298L85.0318 90.1753L75.8923 90.1609L75.8633 85.3144Z" fill="#FFFFFC"/>
<path d="M75.8301 79.4887L84.9697 79.5041L84.9976 84.3506L75.858 84.3352L75.8301 79.4887Z" fill="#FFFFFC"/>
<path d="M119.785 84.28L120.029 84.4087H119.785V84.28Z" fill="#FFFFFC"/>
<path d="M56.8408 108.572L63.1823 108.582L63.2024 111.945L56.8408 108.572Z" fill="#FFFFFC"/>
<path d="M86.916 96.9752L96.0556 96.9906L96.0779 100.843L94.2091 101.833L86.945 101.822L86.916 96.9752" fill="#FFFFFC"/>
<path d="M75.9688 102.781L85.1083 102.797L85.1318 106.649L83.263 107.639L75.9966 107.628L75.9688 102.781" fill="#FFFFFC"/>
<path d="M86.9531 102.8L92.3764 102.809L86.9698 105.675L86.9531 102.8Z" fill="#FFFFFC"/>
<path d="M65.0462 112.926L65.0205 108.587L74.1601 108.602L74.1824 112.455L72.3136 113.444L66.0056 113.435L65.0462 112.926" fill="#FFFFFC"/>
<path d="M75.999 108.604L81.4223 108.614L76.0157 111.479L75.999 108.604Z" fill="#FFFFFC"/>
<path d="M97.8984 96.996L103.322 97.0052L97.9152 99.8711L97.8984 96.996Z" fill="#FFFFFC"/>
<path d="M97.8564 91.1724L106.996 91.1878L107.019 95.0404L105.151 96.0312L97.8843 96.019L97.8564 91.1724" fill="#FFFFFC"/>
<path d="M86.7422 66.76L86.9865 66.8896H86.7433L86.7422 66.76Z" fill="#FFFFFC"/>
<path d="M67.8564 114.414L70.4827 114.418L70.0086 114.669C69.5489 114.913 68.797 114.912 68.334 114.667L67.8564 114.414" fill="#FFFFFC"/>
<path d="M30.9098 94.2062C30.4635 94.5546 30.4669 95.0188 30.9165 95.3682L30.9098 94.2062Z" fill="#FFFFFC"/>
<path d="M108.84 91.1913L114.263 91.1995L108.857 94.0664L108.84 91.1913Z" fill="#FFFFFC"/>
<path d="M108.809 85.3673L117.948 85.3826L117.97 89.2342L116.102 90.2261L108.838 90.2148L108.809 85.3673" fill="#FFFFFC"/>
<path d="M42.9355 88.3711L48.7873 85.2685L52.0573 85.2736L52.0852 90.1201L42.9467 90.1048L42.9355 88.3711" fill="#FFFFFC"/>
<path d="M73.9392 71.9323L73.9437 72.6895L72.5156 72.6874L73.9392 71.9323Z" fill="#FFFFFC"/>
<path d="M45.8184 102.732L52.161 102.743L52.1799 106.105L45.8184 102.732Z" fill="#FFFFFC"/>
<path d="M64.833 76.7627L70.6847 73.6591L73.9547 73.6642L73.9826 78.5117L64.8441 78.4953L64.833 76.7627" fill="#FFFFFC"/>
<path d="M97.7539 72.5998L97.9994 72.7295H97.755L97.7539 72.5998Z" fill="#FFFFFC"/>
<path d="M97.7607 73.7031L99.8448 73.7062L106.923 77.4594L106.929 78.564L97.7898 78.5496L97.7607 73.7031" fill="#FFFFFC"/>
<path d="M62.998 77.733L63.0024 78.4902L61.5732 78.4882L62.998 77.733Z" fill="#FFFFFC"/>
<path d="M86.7471 67.8647L88.8311 67.8688L95.9089 71.621L95.9156 72.7266L86.775 72.7122L86.7471 67.8647" fill="#FFFFFC"/>
<path d="M53.8857 82.5674L59.7363 79.4648L63.0075 79.4699L63.0354 84.3164L53.8958 84.301L53.8857 82.5674" fill="#FFFFFC"/>
<path d="M34.8047 96.8916L41.1462 96.9018L41.1651 100.265L34.8047 96.8916Z" fill="#FFFFFC"/>
<path d="M41.1044 89.3444L41.1089 90.1016L39.6797 90.0995L41.1044 89.3444Z" fill="#FFFFFC"/>
<path d="M31.9989 95.4022L31.9922 94.1758L37.8428 91.0732L41.1139 91.0783L41.1418 95.9248L32.9583 95.9115L31.9989 95.4022" fill="#FFFFFC"/>
<path d="M108.77 78.4387L109.014 78.5684L108.771 78.5673L108.77 78.4387Z" fill="#FFFFFC"/>
<path d="M52.0535 83.5392L52.0579 84.2964L50.6299 84.2943L52.0535 83.5392Z" fill="#FFFFFC"/>
<path d="M102.237 90.7088C110.346 88.814 110.898 84.3745 103.428 80.7694C103.239 80.6888 103.077 80.6015 102.859 80.5272C97.8704 78.2576 90.8 76.9323 84.2959 76.849C81.0236 76.8016 77.8929 77.0749 75.2449 77.6937C67.1361 79.5885 66.5966 84.0458 74.054 87.6332C76.4182 88.7672 79.2682 89.6835 82.3321 90.3212C85.8847 91.0942 89.7347 91.5272 93.3778 91.5502C96.582 91.5932 99.6443 91.3146 102.237 90.7088" fill="#ECECEC"/>
<path fill-rule="evenodd" clip-rule="evenodd" d="M73.1304 75.324C77.1905 72.4933 87.4043 66.9243 95.7777 67.2936C105.2 67.7091 112.059 71.3032 114.191 72.4203C114.427 72.5442 114.605 72.6376 114.723 72.6929C115.662 73.1356 117.838 74.8777 118.809 75.6934C111.135 76.2151 94.4911 77.1181 89.3003 76.5568C84.1096 75.9956 76.3575 75.5011 73.1304 75.324ZM118.43 76.2144C118.736 75.8821 119.472 75.2194 119.973 75.2271C120.598 75.2367 121.568 75.3524 122.168 75.7035C122.768 76.0546 123.03 76.8985 122.708 76.8983L122.588 76.8987C121.982 76.901 119.765 76.9094 119.238 76.7487C118.779 76.6088 118.508 76.3342 118.43 76.2144ZM96.4117 87.3304C96.1055 86.3516 95.6642 84.158 96.3486 83.2144C97.2042 82.0349 98.1965 81.3839 98.7846 81.9367C99.3726 82.4895 99.6823 84.5043 98.8353 85.4401C98.6274 85.6698 98.4088 85.9189 98.1939 86.1638L98.1938 86.164L98.1937 86.164L98.1937 86.164C97.5333 86.9167 96.9085 87.6288 96.7394 87.6106C96.5601 87.5912 96.4462 87.4157 96.4117 87.3304Z" fill="#F7F7F7"/>
<path d="M97.4817 87.3184C95.8003 87.0364 94.4809 85.8251 93.7267 84.2972C86.5752 83.0606 79.4592 80.5914 73.067 77.0563C72.0314 77.085 70.9904 77.03 69.958 76.8921C68.9582 76.7585 67.966 76.5473 66.9953 76.26C66.9425 76.1981 66.8942 76.1362 66.851 76.0746C68.315 75.0606 70.188 74.6455 71.9957 74.8658C78.1487 70.7235 85.5251 68.2983 93.0728 68.0081C94.6498 67.9459 96.3252 68.0437 98.0554 68.2748C105.252 69.2363 113.405 72.5034 119.442 76.1527C119.697 76.1225 119.951 76.1125 120.21 76.1273C120.349 76.1344 120.488 76.1471 120.626 76.1656C122.045 76.3551 123.364 77.1334 124.019 78.1926L124.014 78.1974C122.115 78.2467 120.192 78.276 118.295 78.0601C112.585 80.7466 106.385 82.5599 100.099 83.5855C99.7125 85.1231 98.741 86.3571 97.4817 87.3184ZM98.3858 82.0715C98.1408 82.0388 97.8906 82.1334 97.6599 82.3452C96.7265 83.2022 96.9318 85.5089 97.0509 86.6582C97.9345 86.0536 98.4589 85.0718 98.9519 84.1263C99.24 83.5736 99.4469 82.9626 98.9698 82.4199C98.788 82.2132 98.5887 82.0986 98.3858 82.0715ZM98.801 68.9436C96.0072 68.5704 93.1887 68.5028 90.4027 68.7747C84.077 69.3917 78.2747 71.1733 72.9334 74.6688C76.6637 72.3852 81.0042 71.237 85.3658 71.1731C86.6664 71.1541 87.971 71.2315 89.2662 71.4045C90.1526 71.523 91.0343 71.6862 91.9074 71.8943C92.9607 72.1453 93.9806 72.6261 95.0199 72.8717C95.0728 72.8842 95.126 72.8938 95.1795 72.9009C96.0911 73.0227 97.0702 72.3977 97.957 72.1588C100.145 71.5698 102.454 71.4234 104.719 71.726C106.067 71.9062 107.401 72.2455 108.683 72.7451C112.019 74.0444 115.071 75.334 118.469 76.427C112.717 72.3165 105.663 69.8603 98.801 68.9436ZM87.3927 72.0954C90.9863 72.5755 94.4841 73.974 97.4316 76.1355C97.2402 75.5523 96.9431 75.045 96.4512 74.6644C99.0017 73.6008 102.791 72.9188 105.592 72.9227C105.16 72.8294 104.729 72.754 104.298 72.6965C101.326 72.2994 98.3897 72.7425 95.6002 73.8226C93.5906 72.9664 91.4934 72.3936 89.3612 72.1088C87.9869 71.9252 86.5985 71.8613 85.2082 71.9182C85.9372 71.939 86.6676 71.9985 87.3927 72.0954ZM120.818 76.3983C120.574 76.3657 120.367 76.3583 120.245 76.3766C119.685 76.4604 119.186 76.7536 118.909 77.162C119.486 77.2935 120.069 77.3985 120.654 77.4767C121.104 77.5368 121.556 77.5809 122.008 77.6096C122.224 77.6232 122.661 77.7226 122.718 77.4752L122.721 77.3723C122.656 76.8311 121.564 76.4979 120.818 76.3983Z" fill="#EFEFEF"/>
<path fill-rule="evenodd" clip-rule="evenodd" d="M95.7313 73.5349C98.947 72.0859 102.325 71.5289 105.686 72.1973C102.905 72.2965 99.1174 73.1706 96.5466 74.4096C97.0217 74.8011 97.2988 75.3362 97.4682 75.9568C94.0414 73.2919 89.786 71.8407 85.4779 71.8688C89.0064 71.5813 92.4986 72.1415 95.7313 73.5349ZM119.983 78.7177C121.433 78.6417 122.691 78.0414 123.794 77.1942C121.906 77.3175 119.996 77.42 118.119 77.2577C112.353 80.3602 106.131 82.5409 99.8517 83.877C99.4136 85.5463 98.405 86.9104 97.1202 87.9916C95.4604 87.7502 94.1928 86.495 93.4979 84.8784C86.4391 83.8114 79.4593 81.4164 73.236 77.8473C71.2094 77.9838 69.173 77.77 67.2341 77.2144C68.355 78.8045 70.2605 79.4233 71.2852 79.6441C78.1361 84.0813 85.2331 87.5708 93.3202 88.6945C101.671 89.8506 112.09 84.9322 119.026 78.6148C119.332 78.6965 119.65 78.7363 119.983 78.7177Z" fill="#D8D8D8"/>
<path d="M100.574 50.4145C100.574 52.7833 100.574 55.1506 100.574 57.5178C100.574 60.0051 98.6736 63.0296 96.3278 64.2731C95.9967 64.4489 95.6674 64.6229 95.3361 64.7985L92.9794 70.0098L90.6226 67.2995C90.2913 67.4735 89.9603 67.6491 89.6308 67.8249C89.5354 67.8757 89.4396 67.9229 89.3457 67.9652C88.2861 68.4536 87.3329 68.4722 86.6266 68.0971L86.5714 68.0665C85.8353 67.6476 85.3828 66.7857 85.3828 65.5724C85.3828 63.2054 85.3828 60.838 85.3828 58.4708C85.3828 55.9818 87.2853 52.9573 89.6308 51.7138C91.8626 50.5309 94.0962 49.3465 96.3278 48.1638C97.4777 47.5537 98.5209 47.4845 99.2844 47.8663L99.3304 47.89C100.099 48.2972 100.574 49.1707 100.574 50.4145Z" fill="#F4C410"/>
<path d="M83.181 66.2703C82.412 65.8631 81.9375 64.9878 81.9375 63.7459C81.9375 61.3786 81.9375 59.0114 81.9375 56.6425C81.9375 54.1553 83.838 51.1307 86.1835 49.8872C88.4153 48.7045 90.6489 47.52 92.8805 46.3354C94.0544 45.7137 95.1158 45.6561 95.8831 46.0632C97.0183 46.6632 98.1498 47.2647 99.2831 47.8663C98.5196 47.4844 97.4764 47.5537 96.3264 48.1638C94.0948 49.3465 91.8613 50.5308 89.6294 51.7137C87.284 52.9572 85.3815 55.9818 85.3815 58.4707C85.3815 60.8379 85.3815 63.2054 85.3815 65.5724C85.3815 66.7857 85.8339 67.6476 86.5701 68.0664C85.4404 67.4685 84.3105 66.8702 83.181 66.2703" fill="#FFE998"/>
<path d="M90.6226 67.2995L92.9793 70.0098L89.5334 68.1833L89.3457 67.9652C89.4395 67.9229 89.5354 67.8757 89.6307 67.8249C89.9602 67.6491 90.2913 67.4735 90.6226 67.2995" fill="#D1A500"/>
<path opacity="0.7" d="M91.8411 56.2718C91.6244 56.2718 91.3747 56.3436 91.1084 56.4847C90.0948 57.0215 89.2391 58.3838 89.2391 59.4596C89.2391 59.8846 89.3723 60.2057 89.6143 60.3642C90.7485 61.1077 91.8448 61.9404 92.8782 62.8437C93.9969 60.7954 95.115 58.7474 96.2317 56.6991C96.5493 56.118 96.7168 55.5725 96.7168 55.1216C96.7168 54.6622 96.5672 54.3304 96.2955 54.1873C96.0215 54.0395 95.6324 54.0856 95.1975 54.3159C94.1848 54.8546 93.3282 56.2169 93.3282 57.2906C93.3282 57.4683 93.1715 57.6125 92.978 57.6125C92.7844 57.6125 92.6277 57.4683 92.6277 57.2906C92.6277 56.8362 92.4733 56.4956 92.2044 56.3556C92.0984 56.2996 91.9763 56.2718 91.8411 56.2718V56.2718ZM92.978 63.7012C92.887 63.7012 92.7986 63.6686 92.7326 63.6093C91.6249 62.6111 90.4388 61.6956 89.2071 60.8883C88.7758 60.6054 88.5381 60.0983 88.5381 59.4596C88.5381 58.1384 89.5131 56.5867 90.7582 55.9272C91.4158 55.5785 92.0528 55.5319 92.5524 55.7971C92.6767 55.8619 92.7875 55.9436 92.8836 56.0404C93.2528 55.1018 93.9853 54.2167 94.847 53.7585C95.5106 53.4074 96.1498 53.3624 96.6474 53.6307C97.143 53.8917 97.4178 54.4218 97.4178 55.1216C97.4178 55.68 97.2294 56.3077 96.8582 56.9874C95.6707 59.1661 94.4809 61.3448 93.2911 63.5237C93.2412 63.6156 93.146 63.6801 93.0355 63.6967L92.978 63.7012" fill="white"/>
<path fill-rule="evenodd" clip-rule="evenodd" d="M91.1095 56.5001C91.3759 56.359 91.6255 56.2872 91.8423 56.2872C91.9774 56.2872 92.0996 56.315 92.2055 56.371C92.4744 56.511 92.6289 56.8516 92.6289 57.306C92.6289 57.4838 92.7855 57.6279 92.9791 57.6279C93.1726 57.6279 93.3293 57.4838 93.3293 57.306C93.3293 56.2323 94.1859 54.87 95.1986 54.3313C95.6335 54.101 96.0226 54.0549 96.2966 54.2027C96.5683 54.3459 96.7179 54.6777 96.7179 55.137C96.7179 55.588 96.5505 56.1334 96.2328 56.7145C95.1161 58.7628 93.998 60.8108 92.8793 62.8591C91.8459 61.9559 90.7497 61.1231 89.6154 60.3796C89.3734 60.2211 89.2402 59.9 89.2402 59.4751C89.2402 58.3993 90.096 57.0369 91.1095 56.5001Z" fill="#FCEDB7"/>
<path d="M68.1055 27.0096C68.8537 28.9551 69.6014 30.8992 70.3491 32.8434C71.1347 34.8861 70.5291 37.8764 68.9953 39.5227C68.7789 39.7553 68.5634 39.9859 68.3468 40.2184L68.0572 45.1261L65.2656 43.5281C65.0485 43.7592 64.8321 43.9916 64.617 44.2238C64.5547 44.291 64.4909 44.3553 64.4272 44.415C63.7112 45.0984 62.9343 45.3676 62.2357 45.2477L62.1807 45.2372C61.4439 45.0894 60.8 44.5021 60.4168 43.5056C59.6692 41.5616 58.9214 39.6173 58.1737 37.6732C57.3876 35.6291 57.9948 32.6382 59.5283 30.9921C60.9876 29.426 62.4479 27.8583 63.9071 26.2925C64.6588 25.4851 65.4937 25.1503 66.2414 25.2605L66.2866 25.2677C67.0469 25.3972 67.7126 25.9881 68.1055 27.0096Z" fill="#F4C410"/>
<path d="M58.83 44.6658C58.0697 44.5363 57.4036 43.9438 57.0113 42.9238C56.2636 40.9797 55.5159 39.0355 54.7677 37.09C53.9821 35.0473 54.5877 32.057 56.1211 30.4108C57.5805 28.8449 59.0408 27.2771 60.4994 25.7097C61.2672 24.8863 62.1207 24.5562 62.8795 24.6862C64.0013 24.8765 65.1205 25.0691 66.2413 25.2612C65.4936 25.151 64.6587 25.4858 63.907 26.2933C62.4478 27.8591 60.9875 29.4268 59.5282 30.9929C57.9947 32.639 57.3875 35.6298 58.1736 37.6739C58.9213 39.6181 59.6691 41.5624 60.4167 43.5064C60.7999 44.5028 61.4438 45.0902 62.1806 45.238C61.064 45.0479 59.9471 44.8576 58.83 44.6658" fill="#FFE998"/>
<path d="M65.2668 43.5287L68.0584 45.1267L64.6514 44.5447L64.4284 44.4155C64.4921 44.3558 64.5559 44.2916 64.6182 44.2244C64.8333 43.9922 65.0497 43.7598 65.2668 43.5287" fill="#D1A500"/>
<path opacity="0.7" d="M62.7851 34.1469C62.6071 34.2046 62.4247 34.3301 62.2505 34.5169C61.5877 35.2278 61.3152 36.5747 61.655 37.4582C61.7892 37.8072 62 38.0355 62.2488 38.1011C63.4152 38.4096 64.5786 38.8014 65.7126 39.268C65.9844 37.2877 66.2558 35.3078 66.5259 33.3281C66.6032 32.7662 66.5685 32.2737 66.4261 31.9033C66.281 31.5261 66.0533 31.2934 65.7849 31.2483C65.5132 31.1999 65.2083 31.3414 64.9238 31.6464C64.2622 32.3586 63.989 33.7056 64.3282 34.5874C64.3843 34.7334 64.3011 34.8936 64.1422 34.9451C63.9833 34.9967 63.809 34.92 63.7529 34.774C63.6094 34.4009 63.375 34.1623 63.1099 34.1189C63.0052 34.1012 62.8961 34.1109 62.7851 34.1469V34.1469ZM66.0653 39.9456C65.9906 39.9698 65.9077 39.9667 65.8348 39.9355C64.6098 39.4108 63.3465 38.9749 62.0799 38.6401C61.6364 38.5226 61.281 38.1694 61.0793 37.6449C60.6619 36.5599 60.9726 35.0257 61.7868 34.1524C62.2168 33.6908 62.7252 33.4829 63.2193 33.5676C63.3419 33.5876 63.4587 33.6252 63.5682 33.6792C63.5749 32.8099 63.8969 31.8879 64.4599 31.282C64.894 30.8168 65.4048 30.6096 65.8981 30.6974C66.3876 30.7797 66.7808 31.1418 67.0018 31.7165C67.1782 32.1752 67.2217 32.7409 67.1315 33.398C66.8444 35.5037 66.5553 37.6099 66.2664 39.7164C66.2545 39.8051 66.1967 39.8835 66.1112 39.9266L66.0653 39.9456" fill="white"/>
<path fill-rule="evenodd" clip-rule="evenodd" d="M62.2574 34.5289C62.4316 34.3421 62.6139 34.2166 62.792 34.1589C62.903 34.1229 63.0121 34.1132 63.1168 34.1309C63.3818 34.1743 63.6163 34.4129 63.7598 34.7861C63.8159 34.932 63.9901 35.0087 64.1491 34.9571C64.308 34.9056 64.3912 34.7454 64.335 34.5995C63.9959 33.7176 64.2691 32.3706 64.9307 31.6584C65.2151 31.3534 65.5201 31.2119 65.7918 31.2603C66.0602 31.3054 66.2879 31.5381 66.4329 31.9153C66.5754 32.2857 66.6101 32.7783 66.5328 33.3401C66.2626 35.3199 65.9912 37.2997 65.7194 39.28C64.5854 38.8134 63.4221 38.4216 62.2557 38.1132C62.0069 38.0475 61.7961 37.8192 61.6619 37.4702C61.3221 36.5867 61.5946 35.2399 62.2574 34.5289Z" fill="#FCEDB7"/>
<path d="M99.1765 24.8733C98.1344 26.7012 97.093 28.5278 96.0516 30.3544C94.9573 32.2736 92.1603 33.9022 89.8031 33.9912C89.4703 34.0041 89.1396 34.0161 88.8068 34.0287L84.6956 37.1753L84.0695 34.2095C83.7373 34.2208 83.4046 34.2334 83.073 34.2468C82.977 34.2507 82.8823 34.2515 82.7913 34.2493C81.7588 34.233 81.0152 33.8936 80.6351 33.3421L80.6061 33.298C80.2223 32.7017 80.2523 31.8687 80.7861 30.9325C81.8274 29.1061 82.8689 27.2793 83.9104 25.4527C85.0053 23.5322 87.8039 21.9044 90.1608 21.8151C92.4033 21.7305 94.6478 21.6455 96.8901 21.561C98.0458 21.5169 98.8812 21.8506 99.3023 22.4285L99.3274 22.4639C99.7417 23.0634 99.7237 23.9136 99.1765 24.8733Z" fill="#F4C410"/>
<path d="M78.779 30.6541C78.3647 30.0546 78.3837 29.2031 78.93 28.2448C79.9715 26.4182 81.0129 24.5916 82.055 22.7637C83.1493 20.8445 85.9463 19.2159 88.3032 19.1267C90.5456 19.0422 92.7902 18.957 95.0332 18.8711C96.2126 18.8269 97.057 19.1764 97.4699 19.7753C98.082 20.6594 98.6904 21.5434 99.3002 22.4281C98.879 21.8502 98.0436 21.5165 96.8879 21.5606C94.6456 21.6451 92.4011 21.7302 90.1586 21.8148C87.8018 21.904 85.0032 23.5318 83.9082 25.4523C82.8668 27.2789 81.8253 29.1057 80.784 30.9321C80.2502 31.8683 80.2201 32.7013 80.6039 33.2976C79.9952 32.4171 79.3866 31.5362 78.779 30.6541" fill="#FFE998"/>
<path d="M84.0672 34.2092L84.6934 37.175L82.838 34.4869L82.7891 34.249C82.8801 34.2512 82.9748 34.2504 83.0708 34.2465C83.4024 34.2331 83.7351 34.2205 84.0672 34.2092" fill="#D1A500"/>
<path opacity="0.7" d="M89.8611 26.1522C89.6938 26.0717 89.4696 26.0345 89.202 26.0445C88.1838 26.0827 86.9241 26.8163 86.4509 27.6465C86.2639 27.9744 86.2254 28.2716 86.3424 28.4836C86.8905 29.4782 87.3701 30.5276 87.7701 31.608C89.5344 30.4426 91.2982 29.2772 93.0609 28.1111C93.5617 27.7805 93.9309 27.4218 94.1293 27.0738C94.3313 26.7194 94.3618 26.4079 94.2151 26.1966C94.0687 25.9809 93.7483 25.8721 93.3113 25.8884C92.2929 25.9282 91.0327 26.6616 90.5603 27.4901C90.4821 27.6272 90.2978 27.6803 90.1484 27.6085C89.9991 27.5367 89.9416 27.3673 90.0198 27.2302C90.2197 26.8796 90.2504 26.5594 90.1045 26.3516C90.0474 26.2691 89.9654 26.2023 89.8611 26.1522V26.1522ZM87.4698 32.3067C87.3997 32.2729 87.3458 32.215 87.3209 32.1447C86.9054 30.9635 86.3929 29.8169 85.7976 28.737C85.5893 28.3587 85.629 27.8791 85.9099 27.3863C86.4912 26.3669 87.9262 25.5313 89.177 25.4844C89.8379 25.4594 90.3499 25.6598 90.6187 26.0498C90.6862 26.146 90.7357 26.2501 90.7672 26.3605C91.4651 25.7732 92.4196 25.3621 93.2861 25.3282C93.9526 25.3035 94.4657 25.506 94.7316 25.8977C94.9991 26.283 94.978 26.794 94.6702 27.3339C94.4245 27.7649 94.003 28.1793 93.4175 28.566C91.5427 29.8065 89.6662 31.0461 87.7895 32.2859C87.7106 32.3383 87.6088 32.3528 87.5162 32.3246L87.4698 32.3067" fill="white"/>
<path fill-rule="evenodd" clip-rule="evenodd" d="M89.1941 26.0568C89.4617 26.0468 89.6859 26.084 89.8531 26.1645C89.9574 26.2146 90.0394 26.2814 90.0966 26.3639C90.2425 26.5717 90.2118 26.8919 90.0119 27.2425C89.9337 27.3796 89.9912 27.549 90.1405 27.6208C90.2898 27.6927 90.4742 27.6396 90.5524 27.5024C91.0247 26.6739 92.285 25.9406 93.3034 25.9007C93.7404 25.8844 94.0608 25.9932 94.2072 26.2089C94.3539 26.4202 94.3234 26.7317 94.1213 27.0861C93.9229 27.4341 93.5538 27.7929 93.053 28.1234C91.2902 29.2895 89.5265 30.4549 87.7622 31.6203C87.3622 30.5399 86.8826 29.4905 86.3344 28.496C86.2175 28.2839 86.256 27.9867 86.4429 27.6588C86.9162 26.8287 88.1758 26.095 89.1941 26.0568Z" fill="#FCEDB7"/>
<path d="M71.9061 62.308C71.9061 66.3833 71.9061 70.4558 71.9061 74.5283C71.9061 78.8073 68.6365 84.0106 64.6008 86.15C64.0312 86.4524 63.4647 86.7517 62.8948 87.0538L58.8403 96.019L54.7858 91.3564C54.2159 91.6557 53.6464 91.9578 53.0795 92.2603C52.9154 92.3477 52.7506 92.4289 52.5892 92.5016C50.7662 93.3419 49.1264 93.3738 47.9112 92.7285L47.8163 92.6758C46.5499 91.9553 45.7715 90.4726 45.7715 88.3852C45.7715 84.3131 45.7715 80.2402 45.7715 76.1678C45.7715 71.8859 49.0445 66.6826 53.0795 64.5433C56.919 62.5083 60.7616 60.4708 64.6008 58.4362C66.579 57.3865 68.3737 57.2674 69.6872 57.9243L69.7664 57.9651C71.0895 58.6655 71.9061 60.1684 71.9061 62.308Z" fill="#F4C410"/>
<path d="M41.9831 89.5859C40.66 88.8854 39.8438 87.3794 39.8438 85.2429C39.8438 81.1704 39.8438 77.0979 39.8438 73.0226C39.8438 68.7436 43.1133 63.5403 47.1483 61.401C50.9878 59.3663 54.8304 57.3285 58.6696 55.2907C60.6892 54.221 62.5152 54.1219 63.8352 54.8224C65.7883 55.8545 67.7348 56.8894 69.6844 57.9243C68.3709 57.2674 66.5762 57.3864 64.5979 58.4361C60.7588 60.4708 56.9162 62.5082 53.0767 64.5432C49.0417 66.6826 45.7687 71.8859 45.7687 76.1677C45.7687 80.2402 45.7687 84.313 45.7687 88.3851C45.7687 90.4725 46.547 91.9553 47.8135 92.6758C45.87 91.6472 43.9262 90.6179 41.9831 89.5859" fill="#FFE998"/>
<path d="M54.7836 91.3564L58.8381 96.019L52.9097 92.8768L52.5869 92.5016C52.7483 92.4289 52.9132 92.3477 53.0773 92.2603C53.6441 91.9578 54.2137 91.6557 54.7836 91.3564" fill="#D1A500"/>
<path opacity="0.7" d="M56.8817 72.3848C56.5088 72.3848 56.0793 72.5084 55.6211 72.751C53.8774 73.6746 52.4052 76.0183 52.4052 77.869C52.4052 78.6001 52.6343 79.1526 53.0506 79.4252C55.002 80.7043 56.888 82.1369 58.6658 83.6909C60.5903 80.1671 62.5139 76.6437 64.435 73.1199C64.9815 72.1202 65.2696 71.1818 65.2696 70.406C65.2696 69.6158 65.0122 69.045 64.5447 68.7988C64.0733 68.5445 63.404 68.6237 62.6558 69.0199C60.9135 69.9467 59.4399 72.2903 59.4399 74.1375C59.4399 74.4433 59.1703 74.6913 58.8374 74.6913C58.5045 74.6913 58.2349 74.4433 58.2349 74.1375C58.2349 73.3558 57.9692 72.7698 57.5066 72.5289C57.3243 72.4327 57.1142 72.3848 56.8817 72.3848V72.3848ZM58.8374 85.166C58.6809 85.166 58.5288 85.1101 58.4153 85.008C56.5097 83.2906 54.4692 81.7156 52.3501 80.3269C51.6082 79.8402 51.1992 78.9677 51.1992 77.869C51.1992 75.5961 52.8766 72.9265 55.0186 71.792C56.15 71.1921 57.2458 71.112 58.1052 71.5682C58.3192 71.6797 58.5098 71.8203 58.6751 71.9868C59.3102 70.372 60.5704 68.8493 62.0527 68.061C63.1944 67.457 64.2941 67.3796 65.1501 67.8411C66.0027 68.2902 66.4756 69.2021 66.4756 70.406C66.4756 71.3667 66.1514 72.4466 65.5128 73.6159C63.4698 77.364 61.423 81.1121 59.3761 84.8607C59.2903 85.0187 59.1265 85.1298 58.9364 85.1584L58.8374 85.166" fill="white"/>
<path fill-rule="evenodd" clip-rule="evenodd" d="M55.6221 72.7773C56.0803 72.5346 56.5098 72.4111 56.8827 72.4111C57.1152 72.4111 57.3253 72.459 57.5076 72.5552C57.9702 72.7961 58.2359 73.3821 58.2359 74.1638C58.2359 74.4696 58.5055 74.7176 58.8384 74.7176C59.1714 74.7176 59.4409 74.4696 59.4409 74.1638C59.4409 72.3166 60.9145 69.9729 62.6568 69.0462C63.405 68.65 64.0743 68.5708 64.5457 68.825C65.0132 69.0713 65.2706 69.6421 65.2706 70.4323C65.2706 71.2081 64.9825 72.1465 64.436 73.1462C62.5149 76.67 60.5914 80.1933 58.6668 83.7171C56.889 82.1632 55.003 80.7306 53.0516 79.4515C52.6353 79.1789 52.4062 78.6264 52.4062 77.8953C52.4062 76.0446 53.8784 73.7009 55.6221 72.7773Z" fill="#FCEDB7"/>
</svg>
